<?xml version="1.0" encoding="UTF-8"?>
<svg width="580px" height="446px" viewBox="0 0 580 446" version="1.1" xmlns="http://www.w3.org/2000/svg" xmlns:xlink="http://www.w3.org/1999/xlink">
    <!-- Generator: Sketch 51.2 (57519) - http://www.bohemiancoding.com/sketch -->
    <title>Artboard Copy</title>
    <desc>Created with Sketch.</desc>
    <defs></defs>
    <g id="Artboard-Copy" stroke="none" stroke-width="1" fill="none" fill-rule="evenodd">
        <g id="Group-2" transform="translate(289.500000, 222.500000) rotate(-180.164085) translate(-289.500000, -222.500000) translate(23.000000, 19.000000)" stroke="#6D727C" stroke-width="3">
            <g id="Circuit" transform="translate(0.462681, 1.006711)">
                <path d="M27,1.974 L27,144.5" id="Stroke-1" stroke-linecap="round"></path>
                <path d="M47,147.5 L47,244.5" id="Stroke-3" stroke-linecap="round"></path>
                <path d="M47,17.5 L47,95.5" id="Stroke-4" stroke-linecap="round"></path>
                <path d="M103.5,141 L180,141" id="Stroke-19" stroke-linecap="round"></path>
                <path d="M180,141 L193,155" id="Stroke-21" stroke-linecap="round"></path>
                <path d="M103.5,163 L173,163" id="Stroke-22" stroke-linecap="round"></path>
                <path d="M173,163 L186,177" id="Stroke-24" stroke-linecap="round"></path>
                <path d="M103.5,184 L166,184" id="Stroke-25" stroke-linecap="round"></path>
                <path d="M166,184 L179,198" id="Stroke-27" stroke-linecap="round"></path>
                <path d="M53.075,11.038 C53.075,14.372 50.372,17.075 47.038,17.075 C43.703,17.075 41,14.372 41,11.038 C41,7.703 43.703,5 47.038,5 C50.372,5 53.075,7.703 53.075,11.038 Z" id="Stroke-210"></path>
                <path d="M53.075,102.037 C53.075,105.372 50.372,108.074 47.038,108.074 C43.703,108.074 41,105.372 41,102.037 C41,98.703 43.703,96 47.038,96 C50.372,96 53.075,98.703 53.075,102.037 Z" id="Stroke-214"></path>
                <path d="M33.075,151.037 C33.075,154.371 30.372,157.074 27.038,157.074 C23.703,157.074 21,154.371 21,151.037 C21,147.703 23.703,145 27.038,145 C30.372,145 33.075,147.703 33.075,151.037 Z" id="Stroke-218"></path>
                <path d="M53.075,141.037 C53.075,144.371 50.372,147.074 47.038,147.074 C43.703,147.074 41,144.371 41,141.037 C41,137.703 43.703,135 47.038,135 C50.372,135 53.075,137.703 53.075,141.037 Z" id="Stroke-226"></path>
                <path d="M53.075,251.038 C53.075,254.372 50.372,257.075 47.038,257.075 C43.703,257.075 41,254.372 41,251.038 C41,247.703 43.703,245 47.038,245 C50.372,245 53.075,247.703 53.075,251.038 Z" id="Stroke-230"></path>
                <path d="M206.075,398.037 C206.075,401.371 203.372,404.074 200.038,404.074 C196.703,404.074 194,401.371 194,398.037 C194,394.702 196.703,392 200.038,392 C203.372,392 206.075,394.702 206.075,398.037 Z" id="Stroke-242"></path>
                <path d="M103.075,141.037 C103.075,144.371 100.372,147.074 97.038,147.074 C93.703,147.074 91,144.371 91,141.037 C91,137.703 93.703,135 97.038,135 C100.372,135 103.075,137.703 103.075,141.037 Z" id="Stroke-246"></path>
                <path d="M103.075,163.037 C103.075,166.372 100.372,169.075 97.038,169.075 C93.703,169.075 91,166.372 91,163.037 C91,159.703 93.703,157 97.038,157 C100.372,157 103.075,159.703 103.075,163.037 Z" id="Stroke-250"></path>
                <path d="M103.075,183.038 C103.075,186.372 100.372,189.075 97.038,189.075 C93.703,189.075 91,186.372 91,183.038 C91,179.703 93.703,177 97.038,177 C100.372,177 103.075,179.703 103.075,183.038 Z" id="Stroke-254"></path>
                <polygon id="Stroke-324" points="96 121.077 128.078 121.077 128.078 89 96 89"></polygon>
                <polygon id="Stroke-326" points="105 112.327 119.327 112.327 119.327 98 105 98"></polygon>
                <polygon id="Stroke-327" points="89 118.296 95.519 118.296 95.519 109 89 109"></polygon>
                <polygon id="Stroke-328" points="129 102.297 135.519 102.297 135.519 93 129 93"></polygon>
                <polygon id="Stroke-329" points="89 102.297 95.519 102.297 95.519 93 89 93"></polygon>
                <polygon id="Stroke-330" points="129 118.296 135.519 118.296 135.519 109 129 109"></polygon>
                <polygon id="Stroke-331" points="162 121.078 194.078 121.078 194.078 89 162 89"></polygon>
                <polygon id="Stroke-332" points="171 112.327 185.327 112.327 185.327 98 171 98"></polygon>
                <polygon id="Stroke-333" points="155 118.296 161.519 118.296 161.519 109 155 109"></polygon>
                <polygon id="Stroke-335" points="155 102.297 161.519 102.297 161.519 93 155 93"></polygon>
                <polygon id="Stroke-337" points="96 69.077 128.078 69.077 128.078 37 96 37"></polygon>
                <polygon id="Stroke-338" points="105 60.327 119.327 60.327 119.327 46 105 46"></polygon>
                <polygon id="Stroke-339" points="89 66.296 95.519 66.296 95.519 57 89 57"></polygon>
                <polygon id="Stroke-340" points="129 50.297 135.519 50.297 135.519 41 129 41"></polygon>
                <polygon id="Stroke-341" points="89 50.297 95.519 50.297 95.519 41 89 41"></polygon>
                <polygon id="Stroke-342" points="129 66.296 135.519 66.296 135.519 57 129 57"></polygon>
                <polygon id="Stroke-343" points="162 69.077 194.078 69.077 194.078 37 162 37"></polygon>
                <polygon id="Stroke-344" points="170 60.327 184.327 60.327 184.327 46 170 46"></polygon>
                <polygon id="Stroke-345" points="155 66.296 161.519 66.296 161.519 57 155 57"></polygon>
                <polygon id="Stroke-347" points="155 50.297 161.519 50.297 161.519 41 155 41"></polygon>
                <polygon id="Stroke-349" points="96 17 128.078 17 128.078 1.8189894e-12 96 1.8189894e-12"></polygon>
                <polygon id="Stroke-350" points="104 8 118.327 8 118.327 1 104 1"></polygon>
                <polygon id="Stroke-351" points="89 14.297 95.519 14.297 95.519 5 89 5"></polygon>
                <polygon id="Stroke-354" points="128 14.297 134.519 14.297 134.519 5 128 5"></polygon>
                <polygon id="Stroke-355" points="162 17 194.078 17 194.078 0 162 0"></polygon>
                <polygon id="Stroke-356" points="170 8 184.327 8 184.327 1 170 1"></polygon>
                <polygon id="Stroke-357" points="155 14.297 161.519 14.297 161.519 5 155 5"></polygon>
                <path d="M221,1.6683 L221,75.5" id="Stroke-11" stroke-linecap="round"></path>
                <path d="M242,1.6683 L242,135.5" id="Stroke-13" stroke-linecap="round"></path>
                <path d="M263,1.6683 L263,134.5" id="Stroke-15" stroke-linecap="round"></path>
                <path d="M221,128.5 L221,206.5" id="Stroke-18" stroke-linecap="round"></path>
                <path d="M193,155 L221,155" id="Stroke-20" stroke-linecap="round"></path>
                <path d="M186,177 L221,177" id="Stroke-23" stroke-linecap="round"></path>
                <path d="M179,198 L221,198" id="Stroke-26" stroke-linecap="round"></path>
                <path d="M200,234.5 L200,391.5" id="Stroke-32" stroke-linecap="round"></path>
                <path d="M221,261.5 L221,335.5" id="Stroke-34" stroke-linecap="round"></path>
                <path d="M242,189.5 L242,268.5" id="Stroke-35" stroke-linecap="round"></path>
                <path d="M263,189.5 L263,268.5" id="Stroke-36" stroke-linecap="round"></path>
                <path d="M283.5,189.5 L283.5,269.5" id="Stroke-37" stroke-linecap="round"></path>
                <path d="M263,42 L334.5,42" id="Stroke-38" stroke-linecap="round"></path>
                <path d="M263,64 L335.5,64" id="Stroke-39" stroke-linecap="round"></path>
                <path d="M388.5,42 L488.5,42" id="Stroke-40" stroke-linecap="round"></path>
                <path d="M388.5,64 L488.5,64" id="Stroke-41" stroke-linecap="round"></path>
                <path d="M283,134.5 L283,86" id="Stroke-42" stroke-linecap="round"></path>
                <path d="M505,86 L283,86" id="Stroke-43" stroke-linecap="round"></path>
                <path d="M505,203.5 L505,86" id="Stroke-44" stroke-linecap="round"></path>
                <path d="M304.667,147.5 L304.667,222.5" id="Stroke-45" stroke-linecap="round"></path>
                <path d="M319.5,104 L464,104" id="Stroke-46" stroke-linecap="round"></path>
                <path d="M464,203.622716 L464,104.5" id="Stroke-47" stroke-linecap="round"></path>
                <path d="M305,155 L333,155" id="Stroke-50" stroke-linecap="round"></path>
                <path d="M358,126 L440,126.666" id="Stroke-51" stroke-linecap="round"></path>
                <path d="M333,155 L358,126" id="Stroke-52" stroke-linecap="round"></path>
                <path d="M378.5,234.4995 L421,234.4995" id="Stroke-53" stroke-linecap="round"></path>
                <path d="M440,127 L440,213.5" id="Stroke-54" stroke-linecap="round"></path>
                <path d="M421,234.4995 L439.5,213.9995" id="Stroke-55" stroke-linecap="round"></path>
                <path d="M505,86 L486,105" id="Stroke-59" stroke-linecap="round"></path>
                <path d="M227.075,81.038 C227.075,84.372 224.372,87.075 221.038,87.075 C217.703,87.075 215,84.372 215,81.038 C215,77.703 217.703,75 221.038,75 C224.372,75 227.075,77.703 227.075,81.038 Z" id="Stroke-262"></path>
                <path d="M227.075,122.037 C227.075,125.372 224.372,128.074 221.038,128.074 C217.703,128.074 215,125.372 215,122.037 C215,118.703 217.703,116 221.038,116 C224.372,116 227.075,118.703 227.075,122.037 Z" id="Stroke-266"></path>
                <path d="M227.075,213.037 C227.075,216.371 224.372,219.074 221.038,219.074 C217.703,219.074 215,216.371 215,213.037 C215,209.703 217.703,207 221.038,207 C224.372,207 227.075,209.703 227.075,213.037 Z" id="Stroke-270"></path>
                <path d="M206.075,229.037 C206.075,232.372 203.372,235.074 200.038,235.074 C196.703,235.074 194,232.372 194,229.037 C194,225.703 196.703,223 200.038,223 C203.372,223 206.075,225.703 206.075,229.037 Z" id="Stroke-274"></path>
                <path d="M227.075,255.037 C227.075,258.371 224.372,261.074 221.038,261.074 C217.703,261.074 215,258.371 215,255.037 C215,251.702 217.703,249 221.038,249 C224.372,249 227.075,251.702 227.075,255.037 Z" id="Stroke-278"></path>
                <path d="M227.075,342.037 C227.075,345.372 224.372,348.074 221.038,348.074 C217.703,348.074 215,345.372 215,342.037 C215,338.703 217.703,336 221.038,336 C224.372,336 227.075,338.703 227.075,342.037 Z" id="Stroke-282"></path>
                <path d="M248.075,276.037 C248.075,279.371 245.372,282.074 242.038,282.074 C238.703,282.074 236,279.371 236,276.037 C236,272.703 238.703,270 242.038,270 C245.372,270 248.075,272.703 248.075,276.037 Z" id="Stroke-290"></path>
                <path d="M269.075,276.038 C269.075,279.372 266.372,282.075 263.038,282.075 C259.703,282.075 257,279.372 257,276.038 C257,272.703 259.703,270 263.038,270 C266.372,270 269.075,272.703 269.075,276.038 Z" id="Stroke-294"></path>
                <path d="M290.075,276.037 C290.075,279.371 287.372,282.074 284.038,282.074 C280.703,282.074 278,279.371 278,276.037 C278,272.703 280.703,270 284.038,270 C287.372,270 290.075,272.703 290.075,276.037 Z" id="Stroke-298"></path>
                <path d="M248.075,183.038 C248.075,186.372 245.372,189.075 242.038,189.075 C238.703,189.075 236,186.372 236,183.038 C236,179.703 238.703,177 242.038,177 C245.372,177 248.075,179.703 248.075,183.038 Z" id="Stroke-302"></path>
                <path d="M268.075,183.038 C268.075,186.372 265.372,189.075 262.038,189.075 C258.703,189.075 256,186.372 256,183.038 C256,179.703 258.703,177 262.038,177 C265.372,177 268.075,179.703 268.075,183.038 Z" id="Stroke-306"></path>
                <path d="M290.075,183.038 C290.075,186.372 287.372,189.075 284.038,189.075 C280.703,189.075 278,186.372 278,183.038 C278,179.703 280.703,177 284.038,177 C287.372,177 290.075,179.703 290.075,183.038 Z" id="Stroke-310"></path>
                <path d="M247.075,141.037 C247.075,144.372 244.372,147.074 241.038,147.074 C237.703,147.074 235,144.372 235,141.037 C235,137.703 237.703,135 241.038,135 C244.372,135 247.075,137.703 247.075,141.037 Z" id="Stroke-314"></path>
                <path d="M526,0.6683 L526,108.5" id="Stroke-13" stroke-linecap="round"></path>
                <path d="M486.25,104.6683 L486.25,243.5" id="Stroke-13" stroke-linecap="round"></path>
                <path d="M531.075,115.037 C531.075,118.372 528.372,121.074 525.038,121.074 C521.703,121.074 519,118.372 519,115.037 C519,111.703 521.703,109 525.038,109 C528.372,109 531.075,111.703 531.075,115.037 Z" id="Stroke-314"></path>
                <path d="M492.075,250.037 C492.075,253.372 489.372,256.074 486.038,256.074 C482.703,256.074 480,253.372 480,250.037 C480,246.703 482.703,244 486.038,244 C489.372,244 492.075,246.703 492.075,250.037 Z" id="Stroke-314"></path>
                <path d="M268.075,141.037 C268.075,144.371 265.372,147.074 262.038,147.074 C258.703,147.074 256,144.371 256,141.037 C256,137.703 258.703,135 262.038,135 C265.372,135 268.075,137.703 268.075,141.037 Z" id="Stroke-318"></path>
                <path d="M289.075,141.037 C289.075,144.372 286.372,147.074 283.038,147.074 C279.703,147.074 277,144.372 277,141.037 C277,137.703 279.703,135 283.038,135 C286.372,135 289.075,137.703 289.075,141.037 Z" id="Stroke-322"></path>
                <polygon id="Stroke-334" points="194 102.297 200.519 102.297 200.519 93 194 93"></polygon>
                <polygon id="Stroke-336" points="195 118.296 201.519 118.296 201.519 109 195 109"></polygon>
                <polygon id="Stroke-346" points="194 50.297 200.519 50.297 200.519 41 194 41"></polygon>
                <polygon id="Stroke-348" points="194 66.296 200.519 66.296 200.519 57 194 57"></polygon>
                <polygon id="Stroke-360" points="194 14.297 200.519 14.297 200.519 5 194 5"></polygon>
                <path d="M347.075,42.037 C347.075,45.372 344.372,48.074 341.038,48.074 C337.703,48.074 335,45.372 335,42.037 C335,38.703 337.703,36 341.038,36 C344.372,36 347.075,38.703 347.075,42.037 Z" id="Stroke-362"></path>
                <path d="M347.075,64.037 C347.075,67.371 344.372,70.074 341.038,70.074 C337.703,70.074 335,67.371 335,64.037 C335,60.703 337.703,58 341.038,58 C344.372,58 347.075,60.703 347.075,64.037 Z" id="Stroke-364"></path>
                <path d="M388.075,42.037 C388.075,45.372 385.372,48.074 382.038,48.074 C378.703,48.074 376,45.372 376,42.037 C376,38.703 378.703,36 382.038,36 C385.372,36 388.075,38.703 388.075,42.037 Z" id="Stroke-366"></path>
                <path d="M388.075,64.037 C388.075,67.371 385.372,70.074 382.038,70.074 C378.703,70.074 376,67.371 376,64.037 C376,60.703 378.703,58 382.038,58 C385.372,58 388.075,60.703 388.075,64.037 Z" id="Stroke-368"></path>
                <path d="M319.075,104.037 C319.075,107.372 316.372,110.074 313.038,110.074 C309.703,110.074 307,107.372 307,104.037 C307,100.703 309.703,98 313.038,98 C316.372,98 319.075,100.703 319.075,104.037 Z" id="Stroke-370"></path>
                <path d="M311.075,141.037 C311.075,144.371 308.372,147.074 305.038,147.074 C301.703,147.074 299,144.371 299,141.037 C299,137.703 301.703,135 305.038,135 C308.372,135 311.075,137.703 311.075,141.037 Z" id="Stroke-372"></path>
                <path d="M311.075,229.037 C311.075,232.372 308.372,235.074 305.038,235.074 C301.703,235.074 299,232.372 299,229.037 C299,225.703 301.703,223 305.038,223 C308.372,223 311.075,225.703 311.075,229.037 Z" id="Stroke-374"></path>
                <path d="M378.075,233.5375 C378.075,236.8715 375.372,239.5745 372.038,239.5745 C368.703,239.5745 366,236.8715 366,233.5375 C366,230.2025 368.703,227.4995 372.038,227.4995 C375.372,227.4995 378.075,230.2025 378.075,233.5375 Z" id="Stroke-386"></path>
                <path d="M469.075,211.038 C469.075,214.372 466.372,217.075 463.038,217.075 C459.703,217.075 457,214.372 457,211.038 C457,207.703 459.703,205 463.038,205 C466.372,205 469.075,207.703 469.075,211.038 Z" id="Stroke-390"></path>
                <path d="M511.075,211.037 C511.075,214.371 508.372,217.074 505.038,217.074 C501.703,217.074 499,214.371 499,211.037 C499,207.703 501.703,205 505.038,205 C508.372,205 511.075,207.703 511.075,211.037 Z" id="Stroke-398"></path>
                <path d="M501.075,63.038 C501.075,66.372 498.372,69.075 495.038,69.075 C491.703,69.075 489,66.372 489,63.038 C489,59.703 491.703,57 495.038,57 C498.372,57 501.075,59.703 501.075,63.038 Z" id="Stroke-400"></path>
                <path d="M501.075,42.037 C501.075,45.372 498.372,48.074 495.038,48.074 C491.703,48.074 489,45.372 489,42.037 C489,38.703 491.703,36 495.038,36 C498.372,36 501.075,38.703 501.075,42.037 Z" id="Stroke-402"></path>
                <polygon id="Stroke-403" points="372 162.713 413.75 162.713 413.75 147 372 147"></polygon>
                <polygon id="Stroke-404" points="365 159.5 372.25 159.5 372.25 150 365 150"></polygon>
                <polygon id="Stroke-405" points="414 159.5 421.25 159.5 421.25 150 414 150"></polygon>
                <polygon id="Stroke-405" points="414 195.5 421.25 195.5 421.25 186 414 186"></polygon>
                <polygon id="Stroke-406" points="372 198.713 413.75 198.713 413.75 183 372 183"></polygon>
                <polygon id="Stroke-407" points="365 195.5 372.25 195.5 372.25 186 365 186"></polygon>
                <path d="M6,2 L6,97.5" id="Stroke-171" stroke-linecap="round"></path>
                <path d="M12.074,104.037 C12.074,107.371 9.371,110.074 6.037,110.074 C2.702,110.074 0,107.371 0,104.037 C0,100.703 2.702,98 6.037,98 C9.371,98 12.074,100.703 12.074,104.037 Z" id="Stroke-561"></path>
            </g>
            <polygon id="Stroke-502" stroke-linecap="round" transform="translate(323.015652, 10.882769) rotate(-90.381503) translate(-323.015652, -10.882769) " points="313.142789 53.3827693 332.888516 53.3827693 332.888516 -31.6172307 313.142789 -31.6172307"></polygon>
            <polygon id="Stroke-503" stroke-linecap="round" transform="translate(322.988839, 6.855883) rotate(-90.381503) translate(-322.988839, -6.855883) " points="317.089 39.355883 328.888678 39.355883 328.888678 -25.644117 317.089 -25.644117"></polygon>
            <polygon id="Stroke-508" stroke-linecap="round" transform="translate(355.483971, 24.789753) rotate(-90.381503) translate(-355.483971, -24.789753) " points="351.733971 30.6647527 359.233971 30.6647527 359.233971 18.9147527 351.733971 18.9147527"></polygon>
            <polygon id="Stroke-509" stroke-linecap="round" transform="translate(334.109445, 24.932077) rotate(-90.381503) translate(-334.109445, -24.932077) " points="330.359445 31.4320768 337.859445 31.4320768 337.859445 18.4320768 330.359445 18.4320768"></polygon>
            <polygon id="Stroke-510" stroke-linecap="round" transform="translate(313.109910, 25.071904) rotate(-90.381503) translate(-313.109910, -25.071904) " points="309.35991 31.5719039 316.85991 31.5719039 316.85991 18.5719039 309.35991 18.5719039"></polygon>
            <polygon id="Stroke-511" stroke-linecap="round" transform="translate(291.610387, 25.215060) rotate(-90.381503) translate(-291.610387, -25.215060) " points="287.860387 32.2150603 295.360387 32.2150603 295.360387 18.2150603 287.860387 18.2150603"></polygon>
        </g>
    </g>
</svg>