<?xml version="1.0" encoding="UTF-8"?>
<svg width="1440px" height="952px" viewBox="0 0 1440 952" version="1.1" xmlns="http://www.w3.org/2000/svg" xmlns:xlink="http://www.w3.org/1999/xlink">
    <!-- Generator: Sketch 51.2 (57519) - http://www.bohemiancoding.com/sketch -->
    <title>Desktop HD Copy 25</title>
    <desc>Created with Sketch.</desc>
    <defs></defs>
    <g id="Desktop-HD-Copy-25" stroke="none" stroke-width="1" fill="none" fill-rule="evenodd">
        <path d="M530,235.204838 L635.5,235.204838" id="Stroke-49" stroke="#00E174" stroke-width="3" stroke-linecap="round"></path>
        <g id="Circuit" transform="translate(259.000000, 317.000000) rotate(-90.089039) translate(-259.000000, -317.000000) translate(-5.000000, 58.000000)" stroke-width="3">
            <path d="M27.0862461,2.97717507 L27.0862461,145.503175" id="Stroke-1" stroke="#6D727C" stroke-linecap="round"></path>
            <path d="M47.0862461,148.503175 L47.0862461,245.503175" id="Stroke-3" stroke="#6D727C" stroke-linecap="round"></path>
            <path d="M47.0862461,18.5031751 L47.0862461,96.5031751" id="Stroke-4" stroke="#6D727C" stroke-linecap="round"></path>
            <path d="M68.0862461,2.50317507 L68.0862461,72.5031751" id="Stroke-5" stroke="#6D727C" stroke-linecap="round"></path>
            <path d="M67.0862461,122.503175 L67.0862461,177.503175" id="Stroke-6" stroke="#6D727C" stroke-linecap="round"></path>
            <path d="M103.586246,142.003175 L180.086246,142.003175" id="Stroke-19" stroke="#6D727C" stroke-linecap="round"></path>
            <path d="M180.086246,142.003175 L193.086246,156.003175" id="Stroke-21" stroke="#6D727C" stroke-linecap="round"></path>
            <path d="M103.586246,164.003175 L173.086246,164.003175" id="Stroke-22" stroke="#6D727C" stroke-linecap="round"></path>
            <path d="M173.086246,164.003175 L186.086246,178.003175" id="Stroke-24" stroke="#6D727C" stroke-linecap="round"></path>
            <path d="M103.586246,185.003175 L166.086246,185.003175" id="Stroke-25" stroke="#6D727C" stroke-linecap="round"></path>
            <path d="M166.086246,185.003175 L179.086246,199.003175" id="Stroke-27" stroke="#6D727C" stroke-linecap="round"></path>
            <path d="M103.586246,205.003175 L156.086246,205.003175" id="Stroke-28" stroke="#6D727C" stroke-linecap="round"></path>
            <path d="M168.086246,219.003175 L156.086246,205.003175" id="Stroke-29" stroke="#6D727C" stroke-linecap="round"></path>
            <path d="M168.086246,219.003175 L180.086246,219.003175" id="Stroke-30" stroke="#6D727C" stroke-linecap="round"></path>
            <path d="M180.086246,297.960665 L180.086246,219.003175" id="Stroke-31" stroke="#6D727C" stroke-linecap="round"></path>
            <path d="M53.1612461,12.0411751 C53.1612461,15.3751751 50.4582461,18.0781751 47.1242461,18.0781751 C43.7892461,18.0781751 41.0862461,15.3751751 41.0862461,12.0411751 C41.0862461,8.70617507 43.7892461,6.00317507 47.1242461,6.00317507 C50.4582461,6.00317507 53.1612461,8.70617507 53.1612461,12.0411751 Z" id="Stroke-210" stroke="#6D727C"></path>
            <path d="M53.1612461,103.040175 C53.1612461,106.375175 50.4582461,109.077175 47.1242461,109.077175 C43.7892461,109.077175 41.0862461,106.375175 41.0862461,103.040175 C41.0862461,99.7061751 43.7892461,97.0031751 47.1242461,97.0031751 C50.4582461,97.0031751 53.1612461,99.7061751 53.1612461,103.040175 Z" id="Stroke-214" stroke="#6D727C"></path>
            <path d="M33.1612461,152.040175 C33.1612461,155.374175 30.4582461,158.077175 27.1242461,158.077175 C23.7892461,158.077175 21.0862461,155.374175 21.0862461,152.040175 C21.0862461,148.706175 23.7892461,146.003175 27.1242461,146.003175 C30.4582461,146.003175 33.1612461,148.706175 33.1612461,152.040175 Z" id="Stroke-218" stroke="#6D727C"></path>
            <path d="M73.1612461,79.0401751 C73.1612461,82.3741751 70.4582461,85.0771751 67.1242461,85.0771751 C63.7892461,85.0771751 61.0862461,82.3741751 61.0862461,79.0401751 C61.0862461,75.7051751 63.7892461,73.0031751 67.1242461,73.0031751 C70.4582461,73.0031751 73.1612461,75.7051751 73.1612461,79.0401751 Z" id="Stroke-222" stroke="#6D727C"></path>
            <path d="M53.1612461,142.040175 C53.1612461,145.374175 50.4582461,148.077175 47.1242461,148.077175 C43.7892461,148.077175 41.0862461,145.374175 41.0862461,142.040175 C41.0862461,138.706175 43.7892461,136.003175 47.1242461,136.003175 C50.4582461,136.003175 53.1612461,138.706175 53.1612461,142.040175 Z" id="Stroke-226" stroke="#6D727C"></path>
            <path d="M53.1612461,252.041175 C53.1612461,255.375175 50.4582461,258.078175 47.1242461,258.078175 C43.7892461,258.078175 41.0862461,255.375175 41.0862461,252.041175 C41.0862461,248.706175 43.7892461,246.003175 47.1242461,246.003175 C50.4582461,246.003175 53.1612461,248.706175 53.1612461,252.041175 Z" id="Stroke-230" stroke="#6D727C"></path>
            <path d="M73.1612461,116.040175 C73.1612461,119.374175 70.4582461,122.077175 67.1242461,122.077175 C63.7892461,122.077175 61.0862461,119.374175 61.0862461,116.040175 C61.0862461,112.706175 63.7892461,110.003175 67.1242461,110.003175 C70.4582461,110.003175 73.1612461,112.706175 73.1612461,116.040175 Z" id="Stroke-234" stroke="#6D727C"></path>
            <path d="M73.1612461,184.041175 C73.1612461,187.375175 70.4582461,190.078175 67.1242461,190.078175 C63.7892461,190.078175 61.0862461,187.375175 61.0862461,184.041175 C61.0862461,180.706175 63.7892461,178.003175 67.1242461,178.003175 C70.4582461,178.003175 73.1612461,180.706175 73.1612461,184.041175 Z" id="Stroke-238" stroke="#6D727C"></path>
            <path d="M206.161246,365.040175 C206.161246,368.374175 203.458246,371.077175 200.124246,371.077175 C196.789246,371.077175 194.086246,368.374175 194.086246,365.040175 C194.086246,361.705175 196.789246,359.003175 200.124246,359.003175 C203.458246,359.003175 206.161246,361.705175 206.161246,365.040175 Z" id="Stroke-242" stroke="#6D727C"></path>
            <path d="M103.161246,142.040175 C103.161246,145.374175 100.458246,148.077175 97.1242461,148.077175 C93.7892461,148.077175 91.0862461,145.374175 91.0862461,142.040175 C91.0862461,138.706175 93.7892461,136.003175 97.1242461,136.003175 C100.458246,136.003175 103.161246,138.706175 103.161246,142.040175 Z" id="Stroke-246" stroke="#6D727C"></path>
            <path d="M103.161246,164.040175 C103.161246,167.375175 100.458246,170.078175 97.1242461,170.078175 C93.7892461,170.078175 91.0862461,167.375175 91.0862461,164.040175 C91.0862461,160.706175 93.7892461,158.003175 97.1242461,158.003175 C100.458246,158.003175 103.161246,160.706175 103.161246,164.040175 Z" id="Stroke-250" stroke="#6D727C"></path>
            <path d="M103.161246,184.041175 C103.161246,187.375175 100.458246,190.078175 97.1242461,190.078175 C93.7892461,190.078175 91.0862461,187.375175 91.0862461,184.041175 C91.0862461,180.706175 93.7892461,178.003175 97.1242461,178.003175 C100.458246,178.003175 103.161246,180.706175 103.161246,184.041175 Z" id="Stroke-254" stroke="#6D727C"></path>
            <path d="M103.161246,205.040175 C103.161246,208.374175 100.458246,211.077175 97.1242461,211.077175 C93.7892461,211.077175 91.0862461,208.374175 91.0862461,205.040175 C91.0862461,201.706175 93.7892461,199.003175 97.1242461,199.003175 C100.458246,199.003175 103.161246,201.706175 103.161246,205.040175 Z" id="Stroke-258" stroke="#6D727C"></path>
            <path d="M185.161246,304.041175 C185.161246,307.375175 182.458246,310.078175 179.124246,310.078175 C175.789246,310.078175 173.086246,307.375175 173.086246,304.041175 C173.086246,300.706175 175.789246,298.003175 179.124246,298.003175 C182.458246,298.003175 185.161246,300.706175 185.161246,304.041175 Z" id="Stroke-286" stroke="#6D727C"></path>
            <polygon id="Stroke-324" stroke="#6D727C" points="96.0862461 122.080175 128.164246 122.080175 128.164246 90.0031751 96.0862461 90.0031751"></polygon>
            <polygon id="Stroke-326" stroke="#6D727C" points="105.086246 113.330175 119.413246 113.330175 119.413246 99.0031751 105.086246 99.0031751"></polygon>
            <polygon id="Stroke-327" stroke="#6D727C" points="89.0862461 119.299175 95.6052461 119.299175 95.6052461 110.003175 89.0862461 110.003175"></polygon>
            <polygon id="Stroke-328" stroke="#6D727C" points="129.086246 103.300175 135.605246 103.300175 135.605246 94.0031751 129.086246 94.0031751"></polygon>
            <polygon id="Stroke-329" stroke="#6D727C" points="89.0862461 103.300175 95.6052461 103.300175 95.6052461 94.0031751 89.0862461 94.0031751"></polygon>
            <polygon id="Stroke-330" stroke="#6D727C" points="129.086246 119.299175 135.605246 119.299175 135.605246 110.003175 129.086246 110.003175"></polygon>
            <polygon id="Stroke-331" stroke="#6D727C" points="162.086246 122.081175 194.164246 122.081175 194.164246 90.0031751 162.086246 90.0031751"></polygon>
            <polygon id="Stroke-332" stroke="#6D727C" points="171.086246 113.330175 185.413246 113.330175 185.413246 99.0031751 171.086246 99.0031751"></polygon>
            <polygon id="Stroke-333" stroke="#6D727C" points="155.086246 119.299175 161.605246 119.299175 161.605246 110.003175 155.086246 110.003175"></polygon>
            <polygon id="Stroke-335" stroke="#6D727C" points="155.086246 103.300175 161.605246 103.300175 161.605246 94.0031751 155.086246 94.0031751"></polygon>
            <polygon id="Stroke-337" stroke="#6D727C" points="96.0862461 70.0801751 128.164246 70.0801751 128.164246 38.0031751 96.0862461 38.0031751"></polygon>
            <polygon id="Stroke-338" stroke="#6D727C" points="105.086246 61.3301751 119.413246 61.3301751 119.413246 47.0031751 105.086246 47.0031751"></polygon>
            <polygon id="Stroke-339" stroke="#6D727C" points="89.0862461 67.2991751 95.6052461 67.2991751 95.6052461 58.0031751 89.0862461 58.0031751"></polygon>
            <polygon id="Stroke-340" stroke="#6D727C" points="129.086246 51.3001751 135.605246 51.3001751 135.605246 42.0031751 129.086246 42.0031751"></polygon>
            <polygon id="Stroke-341" stroke="#6D727C" points="89.0862461 51.3001751 95.6052461 51.3001751 95.6052461 42.0031751 89.0862461 42.0031751"></polygon>
            <polygon id="Stroke-342" stroke="#6D727C" points="129.086246 67.2991751 135.605246 67.2991751 135.605246 58.0031751 129.086246 58.0031751"></polygon>
            <polygon id="Stroke-343" stroke="#6D727C" points="162.086246 70.0801751 194.164246 70.0801751 194.164246 38.0031751 162.086246 38.0031751"></polygon>
            <polygon id="Stroke-344" stroke="#6D727C" points="170.086246 61.3301751 184.413246 61.3301751 184.413246 47.0031751 170.086246 47.0031751"></polygon>
            <polygon id="Stroke-345" stroke="#6D727C" points="155.086246 67.2991751 161.605246 67.2991751 161.605246 58.0031751 155.086246 58.0031751"></polygon>
            <polygon id="Stroke-347" stroke="#6D727C" points="155.086246 51.3001751 161.605246 51.3001751 161.605246 42.0031751 155.086246 42.0031751"></polygon>
            <polygon id="Stroke-349" stroke="#6D727C" points="96.0862461 18.0031751 128.164246 18.0031751 128.164246 1.00317507 96.0862461 1.00317507"></polygon>
            <polygon id="Stroke-350" stroke="#6D727C" points="104.086246 9.00317507 118.413246 9.00317507 118.413246 2.00317507 104.086246 2.00317507"></polygon>
            <polygon id="Stroke-351" stroke="#6D727C" points="89.0862461 15.3001751 95.6052461 15.3001751 95.6052461 6.00317507 89.0862461 6.00317507"></polygon>
            <polygon id="Stroke-354" stroke="#6D727C" points="128.086246 15.3001751 134.605246 15.3001751 134.605246 6.00317507 128.086246 6.00317507"></polygon>
            <polygon id="Stroke-355" stroke="#6D727C" points="162.086246 18.0031751 194.164246 18.0031751 194.164246 1.00317507 162.086246 1.00317507"></polygon>
            <polygon id="Stroke-356" stroke="#6D727C" points="170.086246 9.00317507 184.413246 9.00317507 184.413246 2.00317507 170.086246 2.00317507"></polygon>
            <polygon id="Stroke-357" stroke="#6D727C" points="155.086246 15.3001751 161.605246 15.3001751 161.605246 6.00317507 155.086246 6.00317507"></polygon>
            <path d="M221.086246,2.67147507 L221.086246,76.5031751" id="Stroke-11" stroke="#6D727C" stroke-linecap="round"></path>
            <path d="M242.086246,2.67147507 L242.086246,136.503175" id="Stroke-13" stroke="#6D727C" stroke-linecap="round"></path>
            <path d="M263.086246,2.67147507 L263.086246,135.503175" id="Stroke-15" stroke="#6D727C" stroke-linecap="round"></path>
            <path d="M221.086246,129.503175 L221.086246,207.503175" id="Stroke-18" stroke="#6D727C" stroke-linecap="round"></path>
            <path d="M193.086246,156.003175 L221.086246,156.003175" id="Stroke-20" stroke="#6D727C" stroke-linecap="round"></path>
            <path d="M186.086246,178.003175 L221.086246,178.003175" id="Stroke-23" stroke="#6D727C" stroke-linecap="round"></path>
            <path d="M179.086246,199.003175 L221.086246,199.003175" id="Stroke-26" stroke="#6D727C" stroke-linecap="round"></path>
            <path d="M200.086246,235.503175 L200.086246,358.988564" id="Stroke-32" stroke="#6D727C" stroke-linecap="round"></path>
            <path d="M221.086246,262.503175 L221.086246,336.503175" id="Stroke-34" stroke="#6D727C" stroke-linecap="round"></path>
            <path d="M242.086246,190.503175 L242.086246,269.503175" id="Stroke-35" stroke="#6D727C" stroke-linecap="round"></path>
            <path d="M263.086246,190.503175 L263.086246,269.503175" id="Stroke-36" stroke="#6D727C" stroke-linecap="round"></path>
            <path d="M283.586246,190.503175 L283.586246,270.503175" id="Stroke-37" stroke="#6D727C" stroke-linecap="round"></path>
            <path d="M263.086246,43.0031751 L334.586246,43.0031751" id="Stroke-38" stroke="#6D727C" stroke-linecap="round"></path>
            <path d="M263.086246,65.0031751 L335.586246,65.0031751" id="Stroke-39" stroke="#6D727C" stroke-linecap="round"></path>
            <path d="M388.586246,43.0031751 L488.586246,43.0031751" id="Stroke-40" stroke="#6D727C" stroke-linecap="round"></path>
            <path d="M388.586246,65.0031751 L488.586246,65.0031751" id="Stroke-41" stroke="#6D727C" stroke-linecap="round"></path>
            <path d="M283.086246,135.503175 L283.086246,87.0031751" id="Stroke-42" stroke="#6D727C" stroke-linecap="round"></path>
            <path d="M453.081299,87.0031751 L283.086246,87.0031751" id="Stroke-43" stroke="#6D727C" stroke-linecap="round"></path>
            <path d="M304.753246,148.503175 L304.753246,223.503175" id="Stroke-45" stroke="#6D727C" stroke-linecap="round"></path>
            <path d="M319.586246,105.003175 L464.086246,105.003175" id="Stroke-46" stroke="#6D727C" stroke-linecap="round"></path>
            <path d="M464.086246,274.503175 L464.086246,105.503175" id="Stroke-47" stroke="#6D727C" stroke-linecap="round"></path>
            <path d="M305.086246,156.003175 L333.086246,156.003175" id="Stroke-50" stroke="#6D727C" stroke-linecap="round"></path>
            <path d="M358.086246,127.003175 L440.086246,127.669175" id="Stroke-51" stroke="#6D727C" stroke-linecap="round"></path>
            <path d="M333.086246,156.003175 L358.086246,127.003175" id="Stroke-52" stroke="#6D727C" stroke-linecap="round"></path>
            <path d="M378.586246,235.502675 L421.086246,235.502675" id="Stroke-53" stroke="#6D727C" stroke-linecap="round"></path>
            <path d="M440.086246,128.003175 L440.086246,214.503175" id="Stroke-54" stroke="#6D727C" stroke-linecap="round"></path>
            <path d="M421.086246,235.502675 L439.586246,215.002675" id="Stroke-55" stroke="#6D727C" stroke-linecap="round"></path>
            <path d="M526.112291,68.4939741 L486.086246,106.003175" id="Stroke-59" stroke="#00E174" stroke-linecap="round"></path>
            <path d="M476.117014,65.4162764 L454.084406,86.3820624" id="Stroke-59" stroke="#6D727C" stroke-linecap="round"></path>
            <path d="M227.161246,82.0411751 C227.161246,85.3751751 224.458246,88.0781751 221.124246,88.0781751 C217.789246,88.0781751 215.086246,85.3751751 215.086246,82.0411751 C215.086246,78.7061751 217.789246,76.0031751 221.124246,76.0031751 C224.458246,76.0031751 227.161246,78.7061751 227.161246,82.0411751 Z" id="Stroke-262" stroke="#6D727C"></path>
            <path d="M227.161246,123.040175 C227.161246,126.375175 224.458246,129.077175 221.124246,129.077175 C217.789246,129.077175 215.086246,126.375175 215.086246,123.040175 C215.086246,119.706175 217.789246,117.003175 221.124246,117.003175 C224.458246,117.003175 227.161246,119.706175 227.161246,123.040175 Z" id="Stroke-266" stroke="#6D727C"></path>
            <path d="M227.161246,214.040175 C227.161246,217.374175 224.458246,220.077175 221.124246,220.077175 C217.789246,220.077175 215.086246,217.374175 215.086246,214.040175 C215.086246,210.706175 217.789246,208.003175 221.124246,208.003175 C224.458246,208.003175 227.161246,210.706175 227.161246,214.040175 Z" id="Stroke-270" stroke="#6D727C"></path>
            <path d="M206.161246,230.040175 C206.161246,233.375175 203.458246,236.077175 200.124246,236.077175 C196.789246,236.077175 194.086246,233.375175 194.086246,230.040175 C194.086246,226.706175 196.789246,224.003175 200.124246,224.003175 C203.458246,224.003175 206.161246,226.706175 206.161246,230.040175 Z" id="Stroke-274" stroke="#6D727C"></path>
            <path d="M227.161246,256.040175 C227.161246,259.374175 224.458246,262.077175 221.124246,262.077175 C217.789246,262.077175 215.086246,259.374175 215.086246,256.040175 C215.086246,252.705175 217.789246,250.003175 221.124246,250.003175 C224.458246,250.003175 227.161246,252.705175 227.161246,256.040175 Z" id="Stroke-278" stroke="#6D727C"></path>
            <path d="M227.161246,343.040175 C227.161246,346.375175 224.458246,349.077175 221.124246,349.077175 C217.789246,349.077175 215.086246,346.375175 215.086246,343.040175 C215.086246,339.706175 217.789246,337.003175 221.124246,337.003175 C224.458246,337.003175 227.161246,339.706175 227.161246,343.040175 Z" id="Stroke-282" stroke="#6D727C"></path>
            <path d="M346.086246,345.218577 L346.086246,516.215262" id="Stroke-49" stroke="#00E174" stroke-linecap="round"></path>
            <path d="M346.000773,345.042485 L485.681874,345.042485" id="Stroke-49" stroke="#00E174" stroke-linecap="round"></path>
            <path d="M248.161246,277.040175 C248.161246,280.374175 245.458246,283.077175 242.124246,283.077175 C238.789246,283.077175 236.086246,280.374175 236.086246,277.040175 C236.086246,273.706175 238.789246,271.003175 242.124246,271.003175 C245.458246,271.003175 248.161246,273.706175 248.161246,277.040175 Z" id="Stroke-290" stroke="#6D727C"></path>
            <path d="M269.161246,277.041175 C269.161246,280.375175 266.458246,283.078175 263.124246,283.078175 C259.789246,283.078175 257.086246,280.375175 257.086246,277.041175 C257.086246,273.706175 259.789246,271.003175 263.124246,271.003175 C266.458246,271.003175 269.161246,273.706175 269.161246,277.041175 Z" id="Stroke-294" stroke="#6D727C"></path>
            <path d="M290.161246,277.040175 C290.161246,280.374175 287.458246,283.077175 284.124246,283.077175 C280.789246,283.077175 278.086246,280.374175 278.086246,277.040175 C278.086246,273.706175 280.789246,271.003175 284.124246,271.003175 C287.458246,271.003175 290.161246,273.706175 290.161246,277.040175 Z" id="Stroke-298" stroke="#6D727C"></path>
            <path d="M248.161246,184.041175 C248.161246,187.375175 245.458246,190.078175 242.124246,190.078175 C238.789246,190.078175 236.086246,187.375175 236.086246,184.041175 C236.086246,180.706175 238.789246,178.003175 242.124246,178.003175 C245.458246,178.003175 248.161246,180.706175 248.161246,184.041175 Z" id="Stroke-302" stroke="#6D727C"></path>
            <path d="M268.161246,184.041175 C268.161246,187.375175 265.458246,190.078175 262.124246,190.078175 C258.789246,190.078175 256.086246,187.375175 256.086246,184.041175 C256.086246,180.706175 258.789246,178.003175 262.124246,178.003175 C265.458246,178.003175 268.161246,180.706175 268.161246,184.041175 Z" id="Stroke-306" stroke="#6D727C"></path>
            <path d="M290.161246,184.041175 C290.161246,187.375175 287.458246,190.078175 284.124246,190.078175 C280.789246,190.078175 278.086246,187.375175 278.086246,184.041175 C278.086246,180.706175 280.789246,178.003175 284.124246,178.003175 C287.458246,178.003175 290.161246,180.706175 290.161246,184.041175 Z" id="Stroke-310" stroke="#6D727C"></path>
            <path d="M247.161246,142.040175 C247.161246,145.375175 244.458246,148.077175 241.124246,148.077175 C237.789246,148.077175 235.086246,145.375175 235.086246,142.040175 C235.086246,138.706175 237.789246,136.003175 241.124246,136.003175 C244.458246,136.003175 247.161246,138.706175 247.161246,142.040175 Z" id="Stroke-314" stroke="#6D727C"></path>
            <path d="M526.086246,1.67147507 L526.086246,68.490866" id="Stroke-13" stroke="#00E174" stroke-linecap="round"></path>
            <path d="M486.336246,105.671475 L486.336246,345.434587" id="Stroke-13" stroke="#00E174" stroke-linecap="round"></path>
            <path d="M268.161246,142.040175 C268.161246,145.374175 265.458246,148.077175 262.124246,148.077175 C258.789246,148.077175 256.086246,145.374175 256.086246,142.040175 C256.086246,138.706175 258.789246,136.003175 262.124246,136.003175 C265.458246,136.003175 268.161246,138.706175 268.161246,142.040175 Z" id="Stroke-318" stroke="#6D727C"></path>
            <path d="M289.161246,142.040175 C289.161246,145.375175 286.458246,148.077175 283.124246,148.077175 C279.789246,148.077175 277.086246,145.375175 277.086246,142.040175 C277.086246,138.706175 279.789246,136.003175 283.124246,136.003175 C286.458246,136.003175 289.161246,138.706175 289.161246,142.040175 Z" id="Stroke-322" stroke="#6D727C"></path>
            <polygon id="Stroke-334" stroke="#6D727C" points="194.086246 103.300175 200.605246 103.300175 200.605246 94.0031751 194.086246 94.0031751"></polygon>
            <polygon id="Stroke-336" stroke="#6D727C" points="195.086246 119.299175 201.605246 119.299175 201.605246 110.003175 195.086246 110.003175"></polygon>
            <polygon id="Stroke-346" stroke="#6D727C" points="194.086246 51.3001751 200.605246 51.3001751 200.605246 42.0031751 194.086246 42.0031751"></polygon>
            <polygon id="Stroke-348" stroke="#6D727C" points="194.086246 67.2991751 200.605246 67.2991751 200.605246 58.0031751 194.086246 58.0031751"></polygon>
            <polygon id="Stroke-360" stroke="#6D727C" points="194.086246 15.3001751 200.605246 15.3001751 200.605246 6.00317507 194.086246 6.00317507"></polygon>
            <path d="M347.161246,43.0401751 C347.161246,46.3751751 344.458246,49.0771751 341.124246,49.0771751 C337.789246,49.0771751 335.086246,46.3751751 335.086246,43.0401751 C335.086246,39.7061751 337.789246,37.0031751 341.124246,37.0031751 C344.458246,37.0031751 347.161246,39.7061751 347.161246,43.0401751 Z" id="Stroke-362" stroke="#6D727C"></path>
            <path d="M347.161246,65.0401751 C347.161246,68.3741751 344.458246,71.0771751 341.124246,71.0771751 C337.789246,71.0771751 335.086246,68.3741751 335.086246,65.0401751 C335.086246,61.7061751 337.789246,59.0031751 341.124246,59.0031751 C344.458246,59.0031751 347.161246,61.7061751 347.161246,65.0401751 Z" id="Stroke-364" stroke="#6D727C"></path>
            <path d="M388.161246,43.0401751 C388.161246,46.3751751 385.458246,49.0771751 382.124246,49.0771751 C378.789246,49.0771751 376.086246,46.3751751 376.086246,43.0401751 C376.086246,39.7061751 378.789246,37.0031751 382.124246,37.0031751 C385.458246,37.0031751 388.161246,39.7061751 388.161246,43.0401751 Z" id="Stroke-366" stroke="#6D727C"></path>
            <path d="M388.161246,65.0401751 C388.161246,68.3741751 385.458246,71.0771751 382.124246,71.0771751 C378.789246,71.0771751 376.086246,68.3741751 376.086246,65.0401751 C376.086246,61.7061751 378.789246,59.0031751 382.124246,59.0031751 C385.458246,59.0031751 388.161246,61.7061751 388.161246,65.0401751 Z" id="Stroke-368" stroke="#6D727C"></path>
            <path d="M319.161246,105.040175 C319.161246,108.375175 316.458246,111.077175 313.124246,111.077175 C309.789246,111.077175 307.086246,108.375175 307.086246,105.040175 C307.086246,101.706175 309.789246,99.0031751 313.124246,99.0031751 C316.458246,99.0031751 319.161246,101.706175 319.161246,105.040175 Z" id="Stroke-370" stroke="#6D727C"></path>
            <path d="M311.161246,142.040175 C311.161246,145.374175 308.458246,148.077175 305.124246,148.077175 C301.789246,148.077175 299.086246,145.374175 299.086246,142.040175 C299.086246,138.706175 301.789246,136.003175 305.124246,136.003175 C308.458246,136.003175 311.161246,138.706175 311.161246,142.040175 Z" id="Stroke-372" stroke="#6D727C"></path>
            <path d="M311.161246,230.040175 C311.161246,233.375175 308.458246,236.077175 305.124246,236.077175 C301.789246,236.077175 299.086246,233.375175 299.086246,230.040175 C299.086246,226.706175 301.789246,224.003175 305.124246,224.003175 C308.458246,224.003175 311.161246,226.706175 311.161246,230.040175 Z" id="Stroke-374" stroke="#6D727C"></path>
            <path d="M378.161246,234.540675 C378.161246,237.874675 375.458246,240.577675 372.124246,240.577675 C368.789246,240.577675 366.086246,237.874675 366.086246,234.540675 C366.086246,231.205675 368.789246,228.502675 372.124246,228.502675 C375.458246,228.502675 378.161246,231.205675 378.161246,234.540675 Z" id="Stroke-386" stroke="#6D727C"></path>
            <path d="M470.161246,281.041175 C470.161246,284.375175 467.458246,287.078175 464.124246,287.078175 C460.789246,287.078175 458.086246,284.375175 458.086246,281.041175 C458.086246,277.706175 460.789246,275.003175 464.124246,275.003175 C467.458246,275.003175 470.161246,277.706175 470.161246,281.041175 Z" id="Stroke-390" stroke="#6D727C"></path>
            <path d="M501.161246,64.0411751 C501.161246,67.3751751 498.458246,70.0781751 495.124246,70.0781751 C491.789246,70.0781751 489.086246,67.3751751 489.086246,64.0411751 C489.086246,60.7061751 491.789246,58.0031751 495.124246,58.0031751 C498.458246,58.0031751 501.161246,60.7061751 501.161246,64.0411751 Z" id="Stroke-400" stroke="#6D727C"></path>
            <path d="M501.161246,43.0401751 C501.161246,46.3751751 498.458246,49.0771751 495.124246,49.0771751 C491.789246,49.0771751 489.086246,46.3751751 489.086246,43.0401751 C489.086246,39.7061751 491.789246,37.0031751 495.124246,37.0031751 C498.458246,37.0031751 501.161246,39.7061751 501.161246,43.0401751 Z" id="Stroke-402" stroke="#6D727C"></path>
            <polygon id="Stroke-403" stroke="#6D727C" points="372.086246 163.716175 413.836246 163.716175 413.836246 148.003175 372.086246 148.003175"></polygon>
            <polygon id="Stroke-404" stroke="#6D727C" points="365.086246 160.503175 372.336246 160.503175 372.336246 151.003175 365.086246 151.003175"></polygon>
            <polygon id="Stroke-405" stroke="#6D727C" points="414.086246 160.503175 421.336246 160.503175 421.336246 151.003175 414.086246 151.003175"></polygon>
            <polygon id="Stroke-405" stroke="#6D727C" points="414.086246 196.503175 421.336246 196.503175 421.336246 187.003175 414.086246 187.003175"></polygon>
            <polygon id="Stroke-406" stroke="#6D727C" points="372.086246 199.716175 413.836246 199.716175 413.836246 184.003175 372.086246 184.003175"></polygon>
            <polygon id="Stroke-407" stroke="#6D727C" points="365.086246 196.503175 372.336246 196.503175 372.336246 187.003175 365.086246 187.003175"></polygon>
            <path d="M6.08624606,3.00317507 L6.08624606,98.5031751" id="Stroke-171" stroke="#6D727C" stroke-linecap="round"></path>
            <path d="M12.1602461,105.040175 C12.1602461,108.374175 9.45724606,111.077175 6.12324606,111.077175 C2.78824606,111.077175 0.0862460559,108.374175 0.0862460559,105.040175 C0.0862460559,101.706175 2.78824606,99.0031751 6.12324606,99.0031751 C9.45724606,99.0031751 12.1602461,101.706175 12.1602461,105.040175 Z" id="Stroke-561" stroke="#6D727C"></path>
            <polygon id="Stroke-502" stroke="#6D727C" stroke-linecap="round" transform="translate(322.639218, 10.879234) rotate(-90.381503) translate(-322.639218, -10.879234) " points="312.766354 53.3792339 332.512081 53.3792339 332.512081 -31.6207661 312.766354 -31.6207661"></polygon>
            <polygon id="Stroke-503" stroke="#6D727C" stroke-linecap="round" transform="translate(322.612404, 6.852348) rotate(-90.381503) translate(-322.612404, -6.852348) " points="316.712565 39.3523476 328.512243 39.3523476 328.512243 -25.6476524 316.712565 -25.6476524"></polygon>
            <polygon id="Stroke-508" stroke="#6D727C" stroke-linecap="round" transform="translate(355.107536, 24.786217) rotate(-90.381503) translate(-355.107536, -24.786217) " points="351.357536 30.6612173 358.857536 30.6612173 358.857536 18.9112173 351.357536 18.9112173"></polygon>
            <polygon id="Stroke-509" stroke="#6D727C" stroke-linecap="round" transform="translate(333.733010, 24.928541) rotate(-90.381503) translate(-333.733010, -24.928541) " points="329.98301 31.4285414 337.48301 31.4285414 337.48301 18.4285414 329.98301 18.4285414"></polygon>
            <polygon id="Stroke-510" stroke="#6D727C" stroke-linecap="round" transform="translate(312.733475, 25.068368) rotate(-90.381503) translate(-312.733475, -25.068368) " points="308.983475 31.5683685 316.483475 31.5683685 316.483475 18.5683685 308.983475 18.5683685"></polygon>
            <polygon id="Stroke-511" stroke="#6D727C" stroke-linecap="round" transform="translate(291.233952, 25.211525) rotate(-90.381503) translate(-291.233952, -25.211525) " points="287.483952 32.2115248 294.983952 32.2115248 294.983952 18.2115248 287.483952 18.2115248"></polygon>
        </g>
        <path d="M768,235.200806 L873.5,235.200806" id="Stroke-49" stroke="#00E174" stroke-width="3" stroke-linecap="round"></path>
        <path d="M886,235.200806 L1237.5,235.200806" id="Stroke-49" stroke="#00E174" stroke-width="3" stroke-linecap="round"></path>
        <path d="M648,235.200806 L753.5,235.200806" id="Stroke-49" stroke="#00E174" stroke-width="3" stroke-linecap="round"></path>
        <g id="Group-2" transform="translate(1153.500000, 594.500000) rotate(-180.142579) translate(-1153.500000, -594.500000) translate(887.000000, 234.000000)" stroke-width="3">
            <g id="Circuit" transform="translate(0.898358, 0.007335)">
                <path d="M27,7.974 L27,150.5" id="Stroke-1" stroke="#6D727C" stroke-linecap="round"></path>
                <path d="M47,153.5 L47,250.5" id="Stroke-3" stroke="#6D727C" stroke-linecap="round"></path>
                <path d="M47,23.5 L47,101.5" id="Stroke-4" stroke="#6D727C" stroke-linecap="round"></path>
                <path d="M67,0.946575613 L67,207.94188" id="Stroke-6" stroke="#00E174" stroke-linecap="round"></path>
                <path d="M103.5,147 L180,147" id="Stroke-19" stroke="#6D727C" stroke-linecap="round"></path>
                <path d="M180,147 L193,161" id="Stroke-21" stroke="#6D727C" stroke-linecap="round"></path>
                <path d="M103.5,169 L173,169" id="Stroke-22" stroke="#6D727C" stroke-linecap="round"></path>
                <path d="M173,169 L186,183" id="Stroke-24" stroke="#6D727C" stroke-linecap="round"></path>
                <path d="M103.5,190 L166,190" id="Stroke-25" stroke="#6D727C" stroke-linecap="round"></path>
                <path d="M166,190 L179,204" id="Stroke-27" stroke="#6D727C" stroke-linecap="round"></path>
                <path d="M67.9801003,210 L156,210" id="Stroke-28" stroke="#00E174" stroke-linecap="round"></path>
                <path d="M168,224 L156,210" id="Stroke-29" stroke="#00E174" stroke-linecap="round"></path>
                <path d="M168,224 L180,224" id="Stroke-30" stroke="#00E174" stroke-linecap="round"></path>
                <path d="M180,719.073881 L180,224" id="Stroke-31" stroke="#00E174" stroke-linecap="round"></path>
                <path d="M53.075,17.038 C53.075,20.372 50.372,23.075 47.038,23.075 C43.703,23.075 41,20.372 41,17.038 C41,13.703 43.703,11 47.038,11 C50.372,11 53.075,13.703 53.075,17.038 Z" id="Stroke-210" stroke="#6D727C"></path>
                <path d="M53.075,108.037 C53.075,111.372 50.372,114.074 47.038,114.074 C43.703,114.074 41,111.372 41,108.037 C41,104.703 43.703,102 47.038,102 C50.372,102 53.075,104.703 53.075,108.037 Z" id="Stroke-214" stroke="#6D727C"></path>
                <path d="M33.075,157.037 C33.075,160.371 30.372,163.074 27.038,163.074 C23.703,163.074 21,160.371 21,157.037 C21,153.703 23.703,151 27.038,151 C30.372,151 33.075,153.703 33.075,157.037 Z" id="Stroke-218" stroke="#6D727C"></path>
                <path d="M53.075,147.037 C53.075,150.371 50.372,153.074 47.038,153.074 C43.703,153.074 41,150.371 41,147.037 C41,143.703 43.703,141 47.038,141 C50.372,141 53.075,143.703 53.075,147.037 Z" id="Stroke-226" stroke="#6D727C"></path>
                <path d="M53.075,257.038 C53.075,260.372 50.372,263.075 47.038,263.075 C43.703,263.075 41,260.372 41,257.038 C41,253.703 43.703,251 47.038,251 C50.372,251 53.075,253.703 53.075,257.038 Z" id="Stroke-230" stroke="#6D727C"></path>
                <path d="M206.075,404.037 C206.075,407.371 203.372,410.074 200.038,410.074 C196.703,410.074 194,407.371 194,404.037 C194,400.702 196.703,398 200.038,398 C203.372,398 206.075,400.702 206.075,404.037 Z" id="Stroke-242" stroke="#6D727C"></path>
                <path d="M103.075,147.037 C103.075,150.371 100.372,153.074 97.038,153.074 C93.703,153.074 91,150.371 91,147.037 C91,143.703 93.703,141 97.038,141 C100.372,141 103.075,143.703 103.075,147.037 Z" id="Stroke-246" stroke="#6D727C"></path>
                <path d="M103.075,169.037 C103.075,172.372 100.372,175.075 97.038,175.075 C93.703,175.075 91,172.372 91,169.037 C91,165.703 93.703,163 97.038,163 C100.372,163 103.075,165.703 103.075,169.037 Z" id="Stroke-250" stroke="#6D727C"></path>
                <path d="M103.075,189.038 C103.075,192.372 100.372,195.075 97.038,195.075 C93.703,195.075 91,192.372 91,189.038 C91,185.703 93.703,183 97.038,183 C100.372,183 103.075,185.703 103.075,189.038 Z" id="Stroke-254" stroke="#6D727C"></path>
                <polygon id="Stroke-324" stroke="#6D727C" points="96 127.077 128.078 127.077 128.078 95 96 95"></polygon>
                <polygon id="Stroke-326" stroke="#6D727C" points="105 118.327 119.327 118.327 119.327 104 105 104"></polygon>
                <polygon id="Stroke-327" stroke="#6D727C" points="89 124.296 95.519 124.296 95.519 115 89 115"></polygon>
                <polygon id="Stroke-328" stroke="#6D727C" points="129 108.297 135.519 108.297 135.519 99 129 99"></polygon>
                <polygon id="Stroke-329" stroke="#6D727C" points="89 108.297 95.519 108.297 95.519 99 89 99"></polygon>
                <polygon id="Stroke-330" stroke="#6D727C" points="129 124.296 135.519 124.296 135.519 115 129 115"></polygon>
                <polygon id="Stroke-331" stroke="#6D727C" points="162 127.078 194.078 127.078 194.078 95 162 95"></polygon>
                <polygon id="Stroke-332" stroke="#6D727C" points="171 118.327 185.327 118.327 185.327 104 171 104"></polygon>
                <polygon id="Stroke-333" stroke="#6D727C" points="155 124.296 161.519 124.296 161.519 115 155 115"></polygon>
                <polygon id="Stroke-335" stroke="#6D727C" points="155 108.297 161.519 108.297 161.519 99 155 99"></polygon>
                <polygon id="Stroke-337" stroke="#6D727C" points="96 75.077 128.078 75.077 128.078 43 96 43"></polygon>
                <polygon id="Stroke-338" stroke="#6D727C" points="105 66.327 119.327 66.327 119.327 52 105 52"></polygon>
                <polygon id="Stroke-339" stroke="#6D727C" points="89 72.296 95.519 72.296 95.519 63 89 63"></polygon>
                <polygon id="Stroke-340" stroke="#6D727C" points="129 56.297 135.519 56.297 135.519 47 129 47"></polygon>
                <polygon id="Stroke-341" stroke="#6D727C" points="89 56.297 95.519 56.297 95.519 47 89 47"></polygon>
                <polygon id="Stroke-342" stroke="#6D727C" points="129 72.296 135.519 72.296 135.519 63 129 63"></polygon>
                <polygon id="Stroke-343" stroke="#6D727C" points="162 75.077 194.078 75.077 194.078 43 162 43"></polygon>
                <polygon id="Stroke-344" stroke="#6D727C" points="170 66.327 184.327 66.327 184.327 52 170 52"></polygon>
                <polygon id="Stroke-345" stroke="#6D727C" points="155 72.296 161.519 72.296 161.519 63 155 63"></polygon>
                <polygon id="Stroke-347" stroke="#6D727C" points="155 56.297 161.519 56.297 161.519 47 155 47"></polygon>
                <polygon id="Stroke-349" stroke="#6D727C" points="96 23 128.078 23 128.078 6 96 6"></polygon>
                <polygon id="Stroke-350" stroke="#6D727C" points="104 14 118.327 14 118.327 7 104 7"></polygon>
                <polygon id="Stroke-351" stroke="#6D727C" points="89 20.297 95.519 20.297 95.519 11 89 11"></polygon>
                <polygon id="Stroke-354" stroke="#6D727C" points="128 20.297 134.519 20.297 134.519 11 128 11"></polygon>
                <polygon id="Stroke-355" stroke="#6D727C" points="162 23 194.078 23 194.078 6 162 6"></polygon>
                <polygon id="Stroke-356" stroke="#6D727C" points="170 14 184.327 14 184.327 7 170 7"></polygon>
                <polygon id="Stroke-357" stroke="#6D727C" points="155 20.297 161.519 20.297 161.519 11 155 11"></polygon>
                <path d="M221,7.6683 L221,81.5" id="Stroke-11" stroke="#6D727C" stroke-linecap="round"></path>
                <path d="M242,7.6683 L242,141.5" id="Stroke-13" stroke="#6D727C" stroke-linecap="round"></path>
                <path d="M263,7.6683 L263,140.5" id="Stroke-15" stroke="#6D727C" stroke-linecap="round"></path>
                <path d="M221,134.5 L221,212.5" id="Stroke-18" stroke="#6D727C" stroke-linecap="round"></path>
                <path d="M193,161 L221,161" id="Stroke-20" stroke="#6D727C" stroke-linecap="round"></path>
                <path d="M186,183 L221,183" id="Stroke-23" stroke="#6D727C" stroke-linecap="round"></path>
                <path d="M179,204 L221,204" id="Stroke-26" stroke="#6D727C" stroke-linecap="round"></path>
                <path d="M200,240.5 L200,397.5" id="Stroke-32" stroke="#6D727C" stroke-linecap="round"></path>
                <path d="M221,267.5 L221,341.5" id="Stroke-34" stroke="#6D727C" stroke-linecap="round"></path>
                <path d="M242,195.5 L242,274.5" id="Stroke-35" stroke="#6D727C" stroke-linecap="round"></path>
                <path d="M263,195.5 L263,274.5" id="Stroke-36" stroke="#6D727C" stroke-linecap="round"></path>
                <path d="M283.5,195.5 L283.5,275.5" id="Stroke-37" stroke="#6D727C" stroke-linecap="round"></path>
                <path d="M263,48 L334.5,48" id="Stroke-38" stroke="#6D727C" stroke-linecap="round"></path>
                <path d="M263,70 L335.5,70" id="Stroke-39" stroke="#6D727C" stroke-linecap="round"></path>
                <path d="M388.5,48 L488.5,48" id="Stroke-40" stroke="#6D727C" stroke-linecap="round"></path>
                <path d="M388.5,70 L488.5,70" id="Stroke-41" stroke="#6D727C" stroke-linecap="round"></path>
                <path d="M283,140.5 L283,92" id="Stroke-42" stroke="#6D727C" stroke-linecap="round"></path>
                <path d="M505,92 L283,92" id="Stroke-43" stroke="#6D727C" stroke-linecap="round"></path>
                <path d="M505,209.5 L505,92" id="Stroke-44" stroke="#6D727C" stroke-linecap="round"></path>
                <path d="M304.667,153.5 L304.667,228.5" id="Stroke-45" stroke="#6D727C" stroke-linecap="round"></path>
                <path d="M319.5,110 L464,110" id="Stroke-46" stroke="#6D727C" stroke-linecap="round"></path>
                <path d="M464,209.622716 L464,110.5" id="Stroke-47" stroke="#6D727C" stroke-linecap="round"></path>
                <path d="M305,161 L333,161" id="Stroke-50" stroke="#6D727C" stroke-linecap="round"></path>
                <path d="M358,132 L440,132.666" id="Stroke-51" stroke="#6D727C" stroke-linecap="round"></path>
                <path d="M333,161 L358,132" id="Stroke-52" stroke="#6D727C" stroke-linecap="round"></path>
                <path d="M378.5,240.4995 L421,240.4995" id="Stroke-53" stroke="#6D727C" stroke-linecap="round"></path>
                <path d="M440,133 L440,219.5" id="Stroke-54" stroke="#6D727C" stroke-linecap="round"></path>
                <path d="M421,240.4995 L439.5,219.9995" id="Stroke-55" stroke="#6D727C" stroke-linecap="round"></path>
                <path d="M505,92 L486,111" id="Stroke-59" stroke="#6D727C" stroke-linecap="round"></path>
                <path d="M227.075,87.038 C227.075,90.372 224.372,93.075 221.038,93.075 C217.703,93.075 215,90.372 215,87.038 C215,83.703 217.703,81 221.038,81 C224.372,81 227.075,83.703 227.075,87.038 Z" id="Stroke-262" stroke="#6D727C"></path>
                <path d="M227.075,128.037 C227.075,131.372 224.372,134.074 221.038,134.074 C217.703,134.074 215,131.372 215,128.037 C215,124.703 217.703,122 221.038,122 C224.372,122 227.075,124.703 227.075,128.037 Z" id="Stroke-266" stroke="#6D727C"></path>
                <path d="M227.075,219.037 C227.075,222.371 224.372,225.074 221.038,225.074 C217.703,225.074 215,222.371 215,219.037 C215,215.703 217.703,213 221.038,213 C224.372,213 227.075,215.703 227.075,219.037 Z" id="Stroke-270" stroke="#6D727C"></path>
                <path d="M206.075,235.037 C206.075,238.372 203.372,241.074 200.038,241.074 C196.703,241.074 194,238.372 194,235.037 C194,231.703 196.703,229 200.038,229 C203.372,229 206.075,231.703 206.075,235.037 Z" id="Stroke-274" stroke="#6D727C"></path>
                <path d="M227.075,261.037 C227.075,264.371 224.372,267.074 221.038,267.074 C217.703,267.074 215,264.371 215,261.037 C215,257.702 217.703,255 221.038,255 C224.372,255 227.075,257.702 227.075,261.037 Z" id="Stroke-278" stroke="#6D727C"></path>
                <path d="M227.075,348.037 C227.075,351.372 224.372,354.074 221.038,354.074 C217.703,354.074 215,351.372 215,348.037 C215,344.703 217.703,342 221.038,342 C224.372,342 227.075,344.703 227.075,348.037 Z" id="Stroke-282" stroke="#6D727C"></path>
                <path d="M248.075,282.037 C248.075,285.371 245.372,288.074 242.038,288.074 C238.703,288.074 236,285.371 236,282.037 C236,278.703 238.703,276 242.038,276 C245.372,276 248.075,278.703 248.075,282.037 Z" id="Stroke-290" stroke="#6D727C"></path>
                <path d="M269.075,282.038 C269.075,285.372 266.372,288.075 263.038,288.075 C259.703,288.075 257,285.372 257,282.038 C257,278.703 259.703,276 263.038,276 C266.372,276 269.075,278.703 269.075,282.038 Z" id="Stroke-294" stroke="#6D727C"></path>
                <path d="M290.075,282.037 C290.075,285.371 287.372,288.074 284.038,288.074 C280.703,288.074 278,285.371 278,282.037 C278,278.703 280.703,276 284.038,276 C287.372,276 290.075,278.703 290.075,282.037 Z" id="Stroke-298" stroke="#6D727C"></path>
                <path d="M248.075,189.038 C248.075,192.372 245.372,195.075 242.038,195.075 C238.703,195.075 236,192.372 236,189.038 C236,185.703 238.703,183 242.038,183 C245.372,183 248.075,185.703 248.075,189.038 Z" id="Stroke-302" stroke="#6D727C"></path>
                <path d="M268.075,189.038 C268.075,192.372 265.372,195.075 262.038,195.075 C258.703,195.075 256,192.372 256,189.038 C256,185.703 258.703,183 262.038,183 C265.372,183 268.075,185.703 268.075,189.038 Z" id="Stroke-306" stroke="#6D727C"></path>
                <path d="M290.075,189.038 C290.075,192.372 287.372,195.075 284.038,195.075 C280.703,195.075 278,192.372 278,189.038 C278,185.703 280.703,183 284.038,183 C287.372,183 290.075,185.703 290.075,189.038 Z" id="Stroke-310" stroke="#6D727C"></path>
                <path d="M247.075,147.037 C247.075,150.372 244.372,153.074 241.038,153.074 C237.703,153.074 235,150.372 235,147.037 C235,143.703 237.703,141 241.038,141 C244.372,141 247.075,143.703 247.075,147.037 Z" id="Stroke-314" stroke="#6D727C"></path>
                <path d="M526,6.6683 L526,114.5" id="Stroke-13" stroke="#6D727C" stroke-linecap="round"></path>
                <path d="M486.25,110.6683 L486.25,249.5" id="Stroke-13" stroke="#6D727C" stroke-linecap="round"></path>
                <path d="M531.075,121.037 C531.075,124.372 528.372,127.074 525.038,127.074 C521.703,127.074 519,124.372 519,121.037 C519,117.703 521.703,115 525.038,115 C528.372,115 531.075,117.703 531.075,121.037 Z" id="Stroke-314" stroke="#6D727C"></path>
                <path d="M492.075,256.037 C492.075,259.372 489.372,262.074 486.038,262.074 C482.703,262.074 480,259.372 480,256.037 C480,252.703 482.703,250 486.038,250 C489.372,250 492.075,252.703 492.075,256.037 Z" id="Stroke-314" stroke="#6D727C"></path>
                <path d="M268.075,147.037 C268.075,150.371 265.372,153.074 262.038,153.074 C258.703,153.074 256,150.371 256,147.037 C256,143.703 258.703,141 262.038,141 C265.372,141 268.075,143.703 268.075,147.037 Z" id="Stroke-318" stroke="#6D727C"></path>
                <path d="M289.075,147.037 C289.075,150.372 286.372,153.074 283.038,153.074 C279.703,153.074 277,150.372 277,147.037 C277,143.703 279.703,141 283.038,141 C286.372,141 289.075,143.703 289.075,147.037 Z" id="Stroke-322" stroke="#6D727C"></path>
                <polygon id="Stroke-334" stroke="#6D727C" points="194 108.297 200.519 108.297 200.519 99 194 99"></polygon>
                <polygon id="Stroke-336" stroke="#6D727C" points="195 124.296 201.519 124.296 201.519 115 195 115"></polygon>
                <polygon id="Stroke-346" stroke="#6D727C" points="194 56.297 200.519 56.297 200.519 47 194 47"></polygon>
                <polygon id="Stroke-348" stroke="#6D727C" points="194 72.296 200.519 72.296 200.519 63 194 63"></polygon>
                <polygon id="Stroke-360" stroke="#6D727C" points="194 20.297 200.519 20.297 200.519 11 194 11"></polygon>
                <path d="M347.075,48.037 C347.075,51.372 344.372,54.074 341.038,54.074 C337.703,54.074 335,51.372 335,48.037 C335,44.703 337.703,42 341.038,42 C344.372,42 347.075,44.703 347.075,48.037 Z" id="Stroke-362" stroke="#6D727C"></path>
                <path d="M347.075,70.037 C347.075,73.371 344.372,76.074 341.038,76.074 C337.703,76.074 335,73.371 335,70.037 C335,66.703 337.703,64 341.038,64 C344.372,64 347.075,66.703 347.075,70.037 Z" id="Stroke-364" stroke="#6D727C"></path>
                <path d="M388.075,48.037 C388.075,51.372 385.372,54.074 382.038,54.074 C378.703,54.074 376,51.372 376,48.037 C376,44.703 378.703,42 382.038,42 C385.372,42 388.075,44.703 388.075,48.037 Z" id="Stroke-366" stroke="#6D727C"></path>
                <path d="M388.075,70.037 C388.075,73.371 385.372,76.074 382.038,76.074 C378.703,76.074 376,73.371 376,70.037 C376,66.703 378.703,64 382.038,64 C385.372,64 388.075,66.703 388.075,70.037 Z" id="Stroke-368" stroke="#6D727C"></path>
                <path d="M319.075,110.037 C319.075,113.372 316.372,116.074 313.038,116.074 C309.703,116.074 307,113.372 307,110.037 C307,106.703 309.703,104 313.038,104 C316.372,104 319.075,106.703 319.075,110.037 Z" id="Stroke-370" stroke="#6D727C"></path>
                <path d="M311.075,147.037 C311.075,150.371 308.372,153.074 305.038,153.074 C301.703,153.074 299,150.371 299,147.037 C299,143.703 301.703,141 305.038,141 C308.372,141 311.075,143.703 311.075,147.037 Z" id="Stroke-372" stroke="#6D727C"></path>
                <path d="M311.075,235.037 C311.075,238.372 308.372,241.074 305.038,241.074 C301.703,241.074 299,238.372 299,235.037 C299,231.703 301.703,229 305.038,229 C308.372,229 311.075,231.703 311.075,235.037 Z" id="Stroke-374" stroke="#6D727C"></path>
                <path d="M378.075,239.5375 C378.075,242.8715 375.372,245.5745 372.038,245.5745 C368.703,245.5745 366,242.8715 366,239.5375 C366,236.2025 368.703,233.4995 372.038,233.4995 C375.372,233.4995 378.075,236.2025 378.075,239.5375 Z" id="Stroke-386" stroke="#6D727C"></path>
                <path d="M469.075,217.038 C469.075,220.372 466.372,223.075 463.038,223.075 C459.703,223.075 457,220.372 457,217.038 C457,213.703 459.703,211 463.038,211 C466.372,211 469.075,213.703 469.075,217.038 Z" id="Stroke-390" stroke="#6D727C"></path>
                <path d="M511.075,217.037 C511.075,220.371 508.372,223.074 505.038,223.074 C501.703,223.074 499,220.371 499,217.037 C499,213.703 501.703,211 505.038,211 C508.372,211 511.075,213.703 511.075,217.037 Z" id="Stroke-398" stroke="#6D727C"></path>
                <path d="M501.075,69.038 C501.075,72.372 498.372,75.075 495.038,75.075 C491.703,75.075 489,72.372 489,69.038 C489,65.703 491.703,63 495.038,63 C498.372,63 501.075,65.703 501.075,69.038 Z" id="Stroke-400" stroke="#6D727C"></path>
                <path d="M501.075,48.037 C501.075,51.372 498.372,54.074 495.038,54.074 C491.703,54.074 489,51.372 489,48.037 C489,44.703 491.703,42 495.038,42 C498.372,42 501.075,44.703 501.075,48.037 Z" id="Stroke-402" stroke="#6D727C"></path>
                <polygon id="Stroke-403" stroke="#6D727C" points="372 168.713 413.75 168.713 413.75 153 372 153"></polygon>
                <polygon id="Stroke-404" stroke="#6D727C" points="365 165.5 372.25 165.5 372.25 156 365 156"></polygon>
                <polygon id="Stroke-405" stroke="#6D727C" points="414 165.5 421.25 165.5 421.25 156 414 156"></polygon>
                <polygon id="Stroke-405" stroke="#6D727C" points="414 201.5 421.25 201.5 421.25 192 414 192"></polygon>
                <polygon id="Stroke-406" stroke="#6D727C" points="372 204.713 413.75 204.713 413.75 189 372 189"></polygon>
                <polygon id="Stroke-407" stroke="#6D727C" points="365 201.5 372.25 201.5 372.25 192 365 192"></polygon>
                <path d="M6,8 L6,103.5" id="Stroke-171" stroke="#6D727C" stroke-linecap="round"></path>
                <path d="M12.074,110.037 C12.074,113.371 9.371,116.074 6.037,116.074 C2.702,116.074 0,113.371 0,110.037 C0,106.703 2.702,104 6.037,104 C9.371,104 12.074,106.703 12.074,110.037 Z" id="Stroke-561" stroke="#6D727C"></path>
            </g>
            <polygon id="Stroke-502" stroke="#6D727C" stroke-linecap="round" transform="translate(323.451329, 15.883394) rotate(-90.381503) translate(-323.451329, -15.883394) " points="313.578466 58.3833936 333.324193 58.3833936 333.324193 -26.6166064 313.578466 -26.6166064"></polygon>
            <polygon id="Stroke-503" stroke="#6D727C" stroke-linecap="round" transform="translate(323.424516, 11.856507) rotate(-90.381503) translate(-323.424516, -11.856507) " points="317.524677 44.3565073 329.324355 44.3565073 329.324355 -20.6434927 317.524677 -20.6434927"></polygon>
            <polygon id="Stroke-508" stroke="#6D727C" stroke-linecap="round" transform="translate(355.919648, 29.790377) rotate(-90.381503) translate(-355.919648, -29.790377) " points="352.169648 35.6653771 359.669648 35.6653771 359.669648 23.9153771 352.169648 23.9153771"></polygon>
            <polygon id="Stroke-509" stroke="#6D727C" stroke-linecap="round" transform="translate(334.545122, 29.932701) rotate(-90.381503) translate(-334.545122, -29.932701) " points="330.795122 36.4327011 338.295122 36.4327011 338.295122 23.4327011 330.795122 23.4327011"></polygon>
            <polygon id="Stroke-510" stroke="#6D727C" stroke-linecap="round" transform="translate(313.545587, 30.072528) rotate(-90.381503) translate(-313.545587, -30.072528) " points="309.795587 36.5725282 317.295587 36.5725282 317.295587 23.5725282 309.795587 23.5725282"></polygon>
            <polygon id="Stroke-511" stroke="#6D727C" stroke-linecap="round" transform="translate(292.046064, 30.215685) rotate(-90.381503) translate(-292.046064, -30.215685) " points="288.296064 37.2156846 295.796064 37.2156846 295.796064 23.2156846 288.296064 23.2156846"></polygon>
        </g>
        <path d="M530,235.000497 C530,238.313789 527.313789,241 524.000497,241 C520.686211,241 518,238.313789 518,235.000497 C518,231.686211 520.686211,229 524.000497,229 C527.313789,229 530,231.686211 530,235.000497 Z" id="Stroke-230" stroke="#00E174" stroke-width="3"></path>
        <path d="M648,235.000497 C648,238.313789 645.313789,241 642.000497,241 C638.686211,241 636,238.313789 636,235.000497 C636,231.686211 638.686211,229 642.000497,229 C645.313789,229 648,231.686211 648,235.000497 Z" id="Stroke-230" stroke="#00E174" stroke-width="3"></path>
        <path d="M766,235.000497 C766,238.313789 763.313789,241 760.000497,241 C756.686211,241 754,238.313789 754,235.000497 C754,231.686211 756.686211,229 760.000497,229 C763.313789,229 766,231.686211 766,235.000497 Z" id="Stroke-230" stroke="#00E174" stroke-width="3"></path>
        <path d="M886,235.000497 C886,238.313789 883.313789,241 880.000497,241 C876.686211,241 874,238.313789 874,235.000497 C874,231.686211 876.686211,229 880.000497,229 C883.313789,229 886,231.686211 886,235.000497 Z" id="Stroke-230" stroke="#00E174" stroke-width="3"></path>
    </g>
</svg>