<svg width="1130" height="977" viewBox="0 0 1130 977" fill="none" xmlns="http://www.w3.org/2000/svg">
<path d="M159 26.6803L174 0L189 26.6803V74H159V26.6803Z" fill="#019153"/>
<path d="M159 26.5V74H169V26.5L174 0L159 26.5Z" fill="#06292E"/>
<path d="M84 144C84 96.5035 122.504 58 170 58H179C226.496 58 265 96.5035 265 144H84Z" fill="#06292E"/>
<path fill-rule="evenodd" clip-rule="evenodd" d="M83.9828 142C83.9676 142.665 83.96 143.332 83.96 144H264.96C264.96 96.5036 226.456 58.0001 178.96 58.0001H169.968C206.056 66.1736 233 98.4403 233 137V142H83.9828Z" fill="#019153"/>
<path d="M77 149L147 144V341H77V149Z" fill="#06292E"/>
<path d="M77 141L147 136V333H77V141Z" fill="#06292E"/>
<path d="M274 141L223 136V333H274V141Z" fill="#06292E"/>
<rect x="147" y="136" width="76" height="197" fill="#06292E"/>
<path d="M274 149L223 144V341H274V149Z" fill="#019153"/>
<rect x="147" y="144" width="76" height="197" fill="#064928"/>
<path d="M159 194C159 180.745 169.745 170 183 170C196.255 170 207 180.745 207 194V360H159V194Z" fill="#06292E"/>
<path d="M98 191.5C98 183.492 104.492 177 112.5 177C120.508 177 127 183.492 127 191.5V360H98V191.5Z" fill="#06292E"/>
<path d="M166 217C166 207.611 173.611 200 183 200C192.389 200 200 207.611 200 217V320H166V217Z" fill="#FCF8B8"/>
<path d="M102 216.5C102 210.701 106.701 206 112.5 206C118.299 206 123 210.701 123 216.5V321H102V216.5Z" fill="#FCF8B8"/>
<path d="M258 216.5C258 210.701 253.299 206 247.5 206C241.701 206 237 210.701 237 216.5V321H258V216.5Z" fill="#FCF8B8"/>
<rect x="147" y="291" width="76" height="59" fill="#019153"/>
<rect x="147" y="291" width="76" height="59" fill="#064928"/>
<path d="M43 323.215L187 316V966H43V323.215Z" fill="#06292E"/>
<path d="M70 294.366L141 291V327H70V294.366Z" fill="#06292E"/>
<path d="M117 350.355L126 350V382H117V350.355Z" fill="#FCF8B8"/>
<path d="M105 351.344L114 350.753V382H105V351.344Z" fill="#FCF8B8"/>
<path d="M105 428.5C105 422.701 109.701 418 115.5 418C121.299 418 126 422.701 126 428.5V451H105V428.5Z" fill="#FCF8B8"/>
<path d="M187 316L307 326.216V966H187V316Z" fill="#019153"/>
<path d="M238 349L246 349.534V383H238V349Z" fill="#FCF8B8"/>
<path d="M249 350L257 350.519V383H249V350Z" fill="#FCF8B8"/>
<path d="M50 280.68L65 254L80 280.68V328H50V280.68Z" fill="#06292E"/>
<path d="M271 280.68L286 254L301 280.68V328H271V280.68Z" fill="#019153"/>
<path d="M164 273.646L183 243L202 273.646V328H164V273.646Z" fill="#06292E"/>
<path d="M187 273.663V328H202V273.663L183 243L187 273.663Z" fill="#019153"/>
<rect x="73" y="189" width="8" height="102" fill="#06292E"/>
<rect x="270" y="192" width="8" height="102" fill="#019153"/>
<path d="M231 291L270 294V338H231V291Z" fill="#019153"/>
<path d="M98 208.074V293H91V215.612C91.875 209.581 95.6667 207.571 98 208.074Z" fill="#019153"/>
<path d="M269 196.492C268 188.972 261 187 258 187C247.5 187 244.5 195 244.5 198.5C249 195.5 254.237 195.803 256.5 197.5C258.5 199 260.2 201.6 261 206V293H269V196.492Z" fill="#06292E"/>
<mask id="path-35-inside-1_383_952" fill="white">
<path d="M60 423C60 413.059 68.0589 405 78 405C87.9411 405 96 413.059 96 423V427H60V423Z"/>
</mask>
<path d="M60 421.5C60 410.73 68.7304 402 79.5 402C90.2696 402 99 410.73 99 421.5L93 423C93 414.716 86.2843 408 78 408C68.0589 408 60 414.716 60 423V421.5ZM96 427H60H96ZM60 427V405V427ZM79.5 402C90.2696 402 99 410.73 99 421.5V427H93V423C93 414.716 86.2843 408 78 408L79.5 402Z" fill="#019153" mask="url(#path-35-inside-1_383_952)"/>
<mask id="path-37-inside-2_383_952" fill="white">
<path d="M224 419.5C224 411.492 217.508 405 209.5 405C201.492 405 195 411.492 195 419.5V427H224V419.5Z"/>
</mask>
<path d="M224 418C224 409.163 216.837 402 208 402C199.163 402 192 409.163 192 418L198 419.5C198 413.149 203.149 408 209.5 408C217.508 408 224 413.149 224 419.5V418ZM195 427H224H195ZM224 427V405V427ZM208 402C199.163 402 192 409.163 192 418V427H198V419.5C198 413.149 203.149 408 209.5 408L208 402Z" fill="#06292E" mask="url(#path-37-inside-2_383_952)"/>
<mask id="path-39-inside-3_383_952" fill="white">
<path d="M260 419.5C260 411.492 253.508 405 245.5 405C237.492 405 231 411.492 231 419.5V427H260V419.5Z"/>
</mask>
<path d="M260 418C260 409.163 252.837 402 244 402C235.163 402 228 409.163 228 418L234 419.5C234 413.149 239.149 408 245.5 408C253.508 408 260 413.149 260 419.5V418ZM231 427H260H231ZM260 427V405V427ZM244 402C235.163 402 228 409.163 228 418V427H234V419.5C234 413.149 239.149 408 245.5 408L244 402Z" fill="#06292E" mask="url(#path-39-inside-3_383_952)"/>
<mask id="path-41-inside-4_383_952" fill="white">
<path d="M296 419.5C296 411.492 289.508 405 281.5 405C273.492 405 267 411.492 267 419.5V427H296V419.5Z"/>
</mask>
<path d="M296 418C296 409.163 288.837 402 280 402C271.163 402 264 409.163 264 418L270 419.5C270 413.149 275.149 408 281.5 408C289.508 408 296 413.149 296 419.5V418ZM267 427H296H267ZM296 427V405V427ZM280 402C271.163 402 264 409.163 264 418V427H270V419.5C270 413.149 275.149 408 281.5 408L280 402Z" fill="#06292E" mask="url(#path-41-inside-4_383_952)"/>
<mask id="path-43-inside-5_383_952" fill="white">
<path d="M98 423C98 413.059 106.059 405 116 405C125.941 405 134 413.059 134 423V427H98V423Z"/>
</mask>
<path d="M98 421.5C98 410.73 106.73 402 117.5 402C128.27 402 137 410.73 137 421.5L131 423C131 414.716 124.284 408 116 408C106.059 408 98 414.716 98 423V421.5ZM134 427H98H134ZM98 427V405V427ZM117.5 402C128.27 402 137 410.73 137 421.5V427H131V423C131 414.716 124.284 408 116 408L117.5 402Z" fill="#019153" mask="url(#path-43-inside-5_383_952)"/>
<mask id="path-45-inside-6_383_952" fill="white">
<path d="M137 423C137 413.059 145.059 405 155 405C164.941 405 173 413.059 173 423V427H137V423Z"/>
</mask>
<path d="M137 421.5C137 410.73 145.73 402 156.5 402C167.27 402 176 410.73 176 421.5L170 423C170 414.716 163.284 408 155 408C145.059 408 137 414.716 137 423V421.5ZM173 427H137H173ZM137 427V405V427ZM156.5 402C167.27 402 176 410.73 176 421.5V427H170V423C170 414.716 163.284 408 155 408L156.5 402Z" fill="#019153" mask="url(#path-45-inside-6_383_952)"/>
<path d="M271 280.5V328H281V280.5L286 254L271 280.5Z" fill="#06292E"/>
<rect x="801.125" y="632.708" width="248.681" height="220.067" fill="#019153"/>
<rect x="973.737" y="651" width="56.7203" height="2.56638" fill="#06292E"/>
<rect x="973" y="651" width="2.94651" height="55.1772" fill="#06292E"/>
<rect x="975.712" y="653.327" width="55" height="53" fill="#FCF8B8"/>
<rect x="278.626" y="632.708" width="522.499" height="220.067" fill="#064928"/>
<rect x="825.618" y="667.996" width="9.57616" height="37.8541" fill="#FCF8B8"/>
<rect x="825.618" y="653.239" width="9.57616" height="8.98234" fill="#FCF8B8"/>
<rect x="837.404" y="653.239" width="9.57616" height="8.98234" fill="#FCF8B8"/>
<rect x="837.404" y="667.996" width="9.57616" height="37.8541" fill="#FCF8B8"/>
<rect x="855.82" y="667.996" width="9.57616" height="37.8541" fill="#FCF8B8"/>
<rect x="855.82" y="653.239" width="9.57616" height="8.98234" fill="#FCF8B8"/>
<rect x="867.606" y="653.239" width="9.57616" height="8.98234" fill="#FCF8B8"/>
<rect x="867.606" y="667.996" width="9.57616" height="37.8541" fill="#FCF8B8"/>
<rect x="823.408" y="650.673" width="56.7203" height="2.56638" fill="#06292E"/>
<rect x="822.671" y="650.673" width="2.94651" height="55.1772" fill="#06292E"/>
<rect x="823.025" y="650.673" width="56.7203" height="2.56638" fill="#06292E"/>
<rect x="822.288" y="650.673" width="2.94651" height="55.1772" fill="#06292E"/>
<rect x="825" y="653" width="55" height="53" fill="#FCF8B8"/>
<rect x="897.025" y="650.673" width="56.7203" height="2.56638" fill="#06292E"/>
<rect x="896.288" y="650.673" width="2.94651" height="55.1772" fill="#06292E"/>
<rect x="899" y="653" width="55" height="53" fill="#FCF8B8"/>
<rect width="9.57616" height="37.8541" transform="matrix(-1 0 0 1 754.188 667.996)" fill="#FCF8B8"/>
<rect width="9.57616" height="8.98234" transform="matrix(-1 0 0 1 754.188 653.239)" fill="#FCF8B8"/>
<rect width="9.57616" height="8.98234" transform="matrix(-1 0 0 1 742.402 653.239)" fill="#FCF8B8"/>
<rect width="9.57616" height="37.8541" transform="matrix(-1 0 0 1 742.402 667.996)" fill="#FCF8B8"/>
<rect width="9.57616" height="37.8541" transform="matrix(-1 0 0 1 723.987 667.996)" fill="#FCF8B8"/>
<rect width="9.57616" height="8.98234" transform="matrix(-1 0 0 1 723.987 653.239)" fill="#FCF8B8"/>
<rect width="9.57616" height="8.98234" transform="matrix(-1 0 0 1 712.201 653.239)" fill="#FCF8B8"/>
<rect width="9.57616" height="37.8541" transform="matrix(-1 0 0 1 712.201 667.996)" fill="#FCF8B8"/>
<rect x="701" y="653" width="55" height="53" fill="#FCF8B8"/>
<rect width="56.7203" height="2.56638" transform="matrix(-1 0 0 1 756.398 650.673)" fill="#06292E"/>
<rect width="2.94651" height="55.1772" transform="matrix(-1 0 0 1 757.135 650.673)" fill="#06292E"/>
<rect width="9.57616" height="37.8541" transform="matrix(-1 0 0 1 678.776 667.996)" fill="#FCF8B8"/>
<rect width="9.57616" height="8.98234" transform="matrix(-1 0 0 1 678.776 653.239)" fill="#FCF8B8"/>
<rect width="9.57616" height="8.98234" transform="matrix(-1 0 0 1 666.99 653.239)" fill="#FCF8B8"/>
<rect width="9.57616" height="37.8541" transform="matrix(-1 0 0 1 666.99 667.996)" fill="#FCF8B8"/>
<rect width="9.57616" height="37.8541" transform="matrix(-1 0 0 1 648.574 667.996)" fill="#FCF8B8"/>
<rect width="9.57616" height="8.98234" transform="matrix(-1 0 0 1 648.574 653.239)" fill="#FCF8B8"/>
<rect width="9.57616" height="8.98234" transform="matrix(-1 0 0 1 636.788 653.239)" fill="#FCF8B8"/>
<rect width="9.57616" height="37.8541" transform="matrix(-1 0 0 1 636.788 667.996)" fill="#FCF8B8"/>
<rect width="56.7203" height="2.56638" transform="matrix(-1 0 0 1 680.986 650.673)" fill="#06292E"/>
<rect width="2.94651" height="55.1772" transform="matrix(-1 0 0 1 681.723 650.673)" fill="#06292E"/>
<rect width="9.57616" height="37.8541" transform="matrix(-1 0 0 1 679.188 667.996)" fill="#FCF8B8"/>
<rect width="9.57616" height="8.98234" transform="matrix(-1 0 0 1 679.188 653.239)" fill="#FCF8B8"/>
<rect width="9.57616" height="8.98234" transform="matrix(-1 0 0 1 667.402 653.239)" fill="#FCF8B8"/>
<rect width="9.57616" height="37.8541" transform="matrix(-1 0 0 1 667.402 667.996)" fill="#FCF8B8"/>
<rect width="9.57616" height="37.8541" transform="matrix(-1 0 0 1 648.987 667.996)" fill="#FCF8B8"/>
<rect width="9.57616" height="8.98234" transform="matrix(-1 0 0 1 648.987 653.239)" fill="#FCF8B8"/>
<rect width="9.57616" height="8.98234" transform="matrix(-1 0 0 1 637.201 653.239)" fill="#FCF8B8"/>
<rect width="9.57616" height="37.8541" transform="matrix(-1 0 0 1 637.201 667.996)" fill="#FCF8B8"/>
<rect x="626" y="653" width="55" height="53" fill="#FCF8B8"/>
<rect width="56.7203" height="2.56638" transform="matrix(-1 0 0 1 681.398 650.673)" fill="#06292E"/>
<rect width="2.94651" height="55.1772" transform="matrix(-1 0 0 1 682.135 650.673)" fill="#06292E"/>
<rect width="9.57616" height="37.8541" transform="matrix(-1 0 0 1 603.364 667.996)" fill="#FCF8B8"/>
<rect width="9.57616" height="8.98234" transform="matrix(-1 0 0 1 603.364 653.239)" fill="#FCF8B8"/>
<rect width="9.57616" height="8.98234" transform="matrix(-1 0 0 1 591.578 653.239)" fill="#FCF8B8"/>
<rect width="9.57616" height="37.8541" transform="matrix(-1 0 0 1 591.578 667.996)" fill="#FCF8B8"/>
<rect width="9.57616" height="37.8541" transform="matrix(-1 0 0 1 573.162 667.996)" fill="#FCF8B8"/>
<rect width="9.57616" height="8.98234" transform="matrix(-1 0 0 1 573.162 653.239)" fill="#FCF8B8"/>
<rect width="9.57616" height="8.98234" transform="matrix(-1 0 0 1 561.376 653.239)" fill="#FCF8B8"/>
<rect width="9.57616" height="37.8541" transform="matrix(-1 0 0 1 561.376 667.996)" fill="#FCF8B8"/>
<rect width="56.7203" height="2.56638" transform="matrix(-1 0 0 1 605.574 650.673)" fill="#06292E"/>
<rect width="2.94651" height="55.1772" transform="matrix(-1 0 0 1 606.31 650.673)" fill="#06292E"/>
<rect width="9.57616" height="37.8541" transform="matrix(-1 0 0 1 603.188 667.996)" fill="#FCF8B8"/>
<rect width="9.57616" height="8.98234" transform="matrix(-1 0 0 1 603.188 653.239)" fill="#FCF8B8"/>
<rect width="9.57616" height="8.98234" transform="matrix(-1 0 0 1 591.402 653.239)" fill="#FCF8B8"/>
<rect width="9.57616" height="37.8541" transform="matrix(-1 0 0 1 591.402 667.996)" fill="#FCF8B8"/>
<rect width="9.57616" height="37.8541" transform="matrix(-1 0 0 1 572.987 667.996)" fill="#FCF8B8"/>
<rect width="9.57616" height="8.98234" transform="matrix(-1 0 0 1 572.987 653.239)" fill="#FCF8B8"/>
<rect width="9.57616" height="8.98234" transform="matrix(-1 0 0 1 561.201 653.239)" fill="#FCF8B8"/>
<rect width="9.57616" height="37.8541" transform="matrix(-1 0 0 1 561.201 667.996)" fill="#FCF8B8"/>
<rect x="550" y="653" width="55" height="53" fill="#FCF8B8"/>
<rect width="56.7203" height="2.56638" transform="matrix(-1 0 0 1 605.398 650.673)" fill="#06292E"/>
<rect width="2.94651" height="55.1772" transform="matrix(-1 0 0 1 606.135 650.673)" fill="#06292E"/>
<rect width="9.57616" height="37.8541" transform="matrix(-1 0 0 1 527.952 667.996)" fill="#FCF8B8"/>
<rect width="9.57616" height="8.98234" transform="matrix(-1 0 0 1 527.952 653.239)" fill="#FCF8B8"/>
<rect width="9.57616" height="8.98234" transform="matrix(-1 0 0 1 516.166 653.239)" fill="#FCF8B8"/>
<rect width="9.57616" height="37.8541" transform="matrix(-1 0 0 1 516.166 667.996)" fill="#FCF8B8"/>
<rect width="9.57616" height="37.8541" transform="matrix(-1 0 0 1 497.75 667.996)" fill="#FCF8B8"/>
<rect width="9.57616" height="8.98234" transform="matrix(-1 0 0 1 497.75 653.239)" fill="#FCF8B8"/>
<rect width="9.57616" height="8.98234" transform="matrix(-1 0 0 1 485.963 653.239)" fill="#FCF8B8"/>
<rect width="9.57616" height="37.8541" transform="matrix(-1 0 0 1 485.963 667.996)" fill="#FCF8B8"/>
<rect width="56.7203" height="2.56638" transform="matrix(-1 0 0 1 530.161 650.673)" fill="#06292E"/>
<rect width="2.94651" height="55.1772" transform="matrix(-1 0 0 1 530.898 650.673)" fill="#06292E"/>
<rect width="9.57616" height="37.8541" transform="matrix(-1 0 0 1 528.188 667.996)" fill="#FCF8B8"/>
<rect width="9.57616" height="8.98234" transform="matrix(-1 0 0 1 528.188 653.239)" fill="#FCF8B8"/>
<rect width="9.57616" height="8.98234" transform="matrix(-1 0 0 1 516.402 653.239)" fill="#FCF8B8"/>
<rect width="9.57616" height="37.8541" transform="matrix(-1 0 0 1 516.402 667.996)" fill="#FCF8B8"/>
<rect width="9.57616" height="37.8541" transform="matrix(-1 0 0 1 497.987 667.996)" fill="#FCF8B8"/>
<rect width="9.57616" height="8.98234" transform="matrix(-1 0 0 1 497.987 653.239)" fill="#FCF8B8"/>
<rect width="9.57616" height="8.98234" transform="matrix(-1 0 0 1 486.201 653.239)" fill="#FCF8B8"/>
<rect width="9.57616" height="37.8541" transform="matrix(-1 0 0 1 486.201 667.996)" fill="#FCF8B8"/>
<rect x="475" y="653" width="55" height="53" fill="#FCF8B8"/>
<rect width="56.7203" height="2.56638" transform="matrix(-1 0 0 1 530.398 650.673)" fill="#06292E"/>
<rect width="2.94651" height="55.1772" transform="matrix(-1 0 0 1 531.135 650.673)" fill="#06292E"/>
<rect width="9.57616" height="37.8541" transform="matrix(-1 0 0 1 452.54 667.996)" fill="#FCF8B8"/>
<rect width="9.57616" height="8.98234" transform="matrix(-1 0 0 1 452.54 653.239)" fill="#FCF8B8"/>
<rect width="9.57616" height="8.98234" transform="matrix(-1 0 0 1 440.753 653.239)" fill="#FCF8B8"/>
<rect width="9.57616" height="37.8541" transform="matrix(-1 0 0 1 440.753 667.996)" fill="#FCF8B8"/>
<rect width="9.57616" height="37.8541" transform="matrix(-1 0 0 1 422.337 667.996)" fill="#FCF8B8"/>
<rect width="9.57616" height="8.98234" transform="matrix(-1 0 0 1 422.337 653.239)" fill="#FCF8B8"/>
<rect width="9.57616" height="8.98234" transform="matrix(-1 0 0 1 410.552 653.239)" fill="#FCF8B8"/>
<rect width="9.57616" height="37.8541" transform="matrix(-1 0 0 1 410.552 667.996)" fill="#FCF8B8"/>
<rect width="56.7203" height="2.56638" transform="matrix(-1 0 0 1 454.749 650.673)" fill="#06292E"/>
<rect width="2.94651" height="55.1772" transform="matrix(-1 0 0 1 455.486 650.673)" fill="#06292E"/>
<rect width="9.57616" height="37.8541" transform="matrix(-1 0 0 1 452.188 667.996)" fill="#FCF8B8"/>
<rect width="9.57616" height="8.98234" transform="matrix(-1 0 0 1 452.188 653.239)" fill="#FCF8B8"/>
<rect width="9.57616" height="8.98234" transform="matrix(-1 0 0 1 440.402 653.239)" fill="#FCF8B8"/>
<rect width="9.57616" height="37.8541" transform="matrix(-1 0 0 1 440.402 667.996)" fill="#FCF8B8"/>
<rect width="9.57616" height="37.8541" transform="matrix(-1 0 0 1 421.987 667.996)" fill="#FCF8B8"/>
<rect width="9.57616" height="8.98234" transform="matrix(-1 0 0 1 421.987 653.239)" fill="#FCF8B8"/>
<rect width="9.57616" height="8.98234" transform="matrix(-1 0 0 1 410.201 653.239)" fill="#FCF8B8"/>
<rect width="9.57616" height="37.8541" transform="matrix(-1 0 0 1 410.201 667.996)" fill="#FCF8B8"/>
<rect x="399" y="653" width="55" height="53" fill="#FCF8B8"/>
<rect width="56.7203" height="2.56638" transform="matrix(-1 0 0 1 454.398 650.673)" fill="#06292E"/>
<rect width="2.94651" height="55.1772" transform="matrix(-1 0 0 1 455.135 650.673)" fill="#06292E"/>
<rect width="9.57616" height="37.8541" transform="matrix(-1 0 0 1 377.127 667.996)" fill="#FCF8B8"/>
<rect width="9.57616" height="8.98234" transform="matrix(-1 0 0 1 377.127 653.239)" fill="#FCF8B8"/>
<rect width="9.57616" height="8.98234" transform="matrix(-1 0 0 1 365.341 653.239)" fill="#FCF8B8"/>
<rect width="9.57616" height="37.8541" transform="matrix(-1 0 0 1 365.341 667.996)" fill="#FCF8B8"/>
<rect width="9.57616" height="37.8541" transform="matrix(-1 0 0 1 346.925 667.996)" fill="#FCF8B8"/>
<rect width="9.57616" height="8.98234" transform="matrix(-1 0 0 1 346.925 653.239)" fill="#FCF8B8"/>
<rect width="9.57616" height="8.98234" transform="matrix(-1 0 0 1 335.139 653.239)" fill="#FCF8B8"/>
<rect width="9.57616" height="37.8541" transform="matrix(-1 0 0 1 335.139 667.996)" fill="#FCF8B8"/>
<rect width="56.7203" height="2.56638" transform="matrix(-1 0 0 1 379.337 650.673)" fill="#06292E"/>
<rect width="2.94651" height="55.1772" transform="matrix(-1 0 0 1 380.074 650.673)" fill="#06292E"/>
<rect width="9.57616" height="37.8541" transform="matrix(-1 0 0 1 377.188 667.996)" fill="#FCF8B8"/>
<rect width="9.57616" height="8.98234" transform="matrix(-1 0 0 1 377.188 653.239)" fill="#FCF8B8"/>
<rect width="9.57616" height="8.98234" transform="matrix(-1 0 0 1 365.402 653.239)" fill="#FCF8B8"/>
<rect width="9.57616" height="37.8541" transform="matrix(-1 0 0 1 365.402 667.996)" fill="#FCF8B8"/>
<rect width="9.57616" height="37.8541" transform="matrix(-1 0 0 1 346.987 667.996)" fill="#FCF8B8"/>
<rect width="9.57616" height="8.98234" transform="matrix(-1 0 0 1 346.987 653.239)" fill="#FCF8B8"/>
<rect width="9.57616" height="8.98234" transform="matrix(-1 0 0 1 335.201 653.239)" fill="#FCF8B8"/>
<rect width="9.57616" height="37.8541" transform="matrix(-1 0 0 1 335.201 667.996)" fill="#FCF8B8"/>
<rect x="324" y="653" width="55" height="53" fill="#FCF8B8"/>
<rect width="56.7203" height="2.56638" transform="matrix(-1 0 0 1 379.398 650.673)" fill="#06292E"/>
<rect width="2.94651" height="55.1772" transform="matrix(-1 0 0 1 380.135 650.673)" fill="#06292E"/>
<rect x="278.626" y="717.399" width="771.18" height="7.05755" fill="#06292E"/>
<path d="M249.897 619.235H1078.53L1049.81 632.708H278.626L249.897 619.235Z" fill="#06292E"/>
<path d="M249 619.31H1077.64L924.605 559H450.099L249 619.31Z" fill="#06292E"/>
<path d="M924.605 559L1078.53 619.31H800.228L924.605 559Z" fill="#019153"/>
<rect x="279" y="623" width="521" height="6" fill="#064928"/>
<rect x="440.224" y="623.084" width="8.07988" height="5.77436" fill="#064928"/>
<rect x="601.821" y="623.084" width="8.07988" height="5.77436" fill="#064928"/>
<rect x="763.419" y="623.084" width="8.07988" height="5.77436" fill="#064928"/>
<rect x="925.017" y="623.084" width="8.07988" height="5.77436" fill="#019153"/>
<rect x="359.425" y="623.084" width="8.07988" height="5.77436" fill="#064928"/>
<rect x="521.022" y="623.084" width="8.07988" height="5.77436" fill="#064928"/>
<rect x="682.62" y="623.084" width="8.07988" height="5.77436" fill="#064928"/>
<rect x="844.218" y="623.084" width="8.07988" height="5.77436" fill="#019153"/>
<rect x="1005.82" y="623.084" width="8.07988" height="5.77436" fill="#019153"/>
<rect x="294.786" y="623.084" width="8.07988" height="5.77436" fill="#064928"/>
<rect x="456.384" y="623.084" width="8.07988" height="5.77436" fill="#064928"/>
<rect x="617.981" y="623.084" width="8.07988" height="5.77436" fill="#064928"/>
<rect x="779.579" y="623.084" width="8.07988" height="5.77436" fill="#064928"/>
<rect x="941.176" y="623.084" width="8.07988" height="5.77436" fill="#019153"/>
<rect x="375.584" y="623.084" width="8.07988" height="5.77436" fill="#064928"/>
<rect x="537.182" y="623.084" width="8.07988" height="5.77436" fill="#064928"/>
<rect x="698.78" y="623.084" width="8.07988" height="5.77436" fill="#064928"/>
<rect x="860.377" y="623.084" width="8.07988" height="5.77436" fill="#019153"/>
<rect x="1021.98" y="623.084" width="8.07988" height="5.77436" fill="#019153"/>
<rect x="310.946" y="623.084" width="8.07988" height="5.77436" fill="#064928"/>
<rect x="472.543" y="623.084" width="8.07988" height="5.77436" fill="#064928"/>
<rect x="634.141" y="623.084" width="8.07988" height="5.77436" fill="#064928"/>
<rect x="795.739" y="623.084" width="8.07988" height="5.77436" fill="#064928"/>
<rect x="957.336" y="623.084" width="8.07988" height="5.77436" fill="#019153"/>
<rect x="391.745" y="623.084" width="8.07988" height="5.77436" fill="#064928"/>
<rect x="553.342" y="623.084" width="8.07988" height="5.77436" fill="#064928"/>
<rect x="714.939" y="623.084" width="8.07988" height="5.77436" fill="#064928"/>
<rect x="876.537" y="623.084" width="8.07988" height="5.77436" fill="#019153"/>
<rect x="1038.13" y="623.084" width="8.07988" height="5.77436" fill="#019153"/>
<rect x="327.105" y="623.084" width="8.07988" height="5.77436" fill="#064928"/>
<rect x="488.703" y="623.084" width="8.07988" height="5.77436" fill="#064928"/>
<rect x="650.301" y="623.084" width="8.07988" height="5.77436" fill="#064928"/>
<rect x="812" y="623" width="238" height="6" fill="#019153"/>
<rect x="973.496" y="623.084" width="8.07988" height="5.77436" fill="#019153"/>
<rect x="407.904" y="623.084" width="8.07988" height="5.77436" fill="#064928"/>
<rect x="569.502" y="623.084" width="8.07988" height="5.77436" fill="#064928"/>
<rect x="731.1" y="623.084" width="8.07988" height="5.77436" fill="#064928"/>
<rect x="892.697" y="623.084" width="8.07988" height="5.77436" fill="#019153"/>
<rect x="343.265" y="623.084" width="8.07988" height="5.77436" fill="#064928"/>
<rect x="504.863" y="623.084" width="8.07988" height="5.77436" fill="#064928"/>
<rect x="666.46" y="623.084" width="8.07988" height="5.77436" fill="#064928"/>
<rect x="828.058" y="623.084" width="8.07988" height="5.77436" fill="#019153"/>
<rect x="424.064" y="623.084" width="8.07988" height="5.77436" fill="#064928"/>
<rect x="585.662" y="623.084" width="8.07988" height="5.77436" fill="#064928"/>
<rect x="747.259" y="623.084" width="8.07988" height="5.77436" fill="#064928"/>
<rect x="908.857" y="623.084" width="8.07988" height="5.77436" fill="#019153"/>
<ellipse cx="868.907" cy="792.187" rx="45.3373" ry="43.3341" fill="#FCF8B8"/>
<rect x="823.569" y="791.15" width="90.6746" height="61.7874" fill="#FCF8B8"/>
<path fill-rule="evenodd" clip-rule="evenodd" d="M914.257 792.187V852.937H885.789V803.489V802.452H885.776C885.2 778.998 865.128 760.155 840.451 760.155C839.741 760.155 839.033 760.17 838.331 760.201C846.394 753.153 857.131 748.852 868.919 748.852C893.596 748.852 913.668 767.696 914.244 791.15H914.257V792.187Z" fill="#064928"/>
<path fill-rule="evenodd" clip-rule="evenodd" d="M913.678 785.306C910.236 764.636 891.501 748.837 868.906 748.837C862.287 748.837 856 750.193 850.331 752.63C882.037 752.966 900.196 761.891 913.678 785.306Z" fill="#06292E"/>
<ellipse cx="45.3373" cy="43.3341" rx="45.3373" ry="43.3341" transform="matrix(-1 0 0 1 515.649 748.853)" fill="#FCF8B8"/>
<rect width="90.6746" height="61.7874" transform="matrix(-1 0 0 1 515.649 791.15)" fill="#FCF8B8"/>
<path fill-rule="evenodd" clip-rule="evenodd" d="M424.962 792.187V852.938H453.43V803.489V802.452H453.442C454.018 778.998 474.09 760.155 498.767 760.155C499.478 760.155 500.185 760.17 500.888 760.201C492.825 753.153 482.087 748.853 470.299 748.853C445.623 748.853 425.551 767.696 424.975 791.15H424.962V792.187Z" fill="#019153"/>
<path fill-rule="evenodd" clip-rule="evenodd" d="M425.54 785.306C428.982 764.636 447.717 748.837 470.312 748.837C476.931 748.837 483.219 750.193 488.888 752.63C457.181 752.966 439.022 761.891 425.54 785.306Z" fill="#019153"/>
<ellipse cx="45.3373" cy="43.3341" rx="45.3373" ry="43.3341" transform="matrix(-1 0 0 1 765.228 748.853)" fill="#FCF8B8"/>
<rect width="90.6746" height="61.7874" transform="matrix(-1 0 0 1 765.228 791.15)" fill="#FCF8B8"/>
<path fill-rule="evenodd" clip-rule="evenodd" d="M674.541 792.186V852.937H703.008V803.489V802.452H703.021C703.597 778.998 723.669 760.155 748.346 760.155C749.057 760.155 749.764 760.17 750.467 760.201C742.404 753.152 731.666 748.852 719.878 748.852C695.201 748.852 675.129 767.696 674.553 791.15H674.541V792.186Z" fill="#019153"/>
<path fill-rule="evenodd" clip-rule="evenodd" d="M675.12 785.305C678.562 764.635 697.296 748.837 719.891 748.837C726.51 748.837 732.798 750.193 738.467 752.63C706.76 752.965 688.602 761.89 675.12 785.305Z" fill="#019153"/>
<ellipse cx="980.229" cy="792.249" rx="45.3373" ry="43.3341" fill="#FCF8B8"/>
<rect x="934.892" y="791.212" width="90.6746" height="61.7874" fill="#FCF8B8"/>
<path fill-rule="evenodd" clip-rule="evenodd" d="M1025.58 792.249V853H997.111V803.551V802.515H997.099C996.523 779.061 976.451 760.217 951.774 760.217C951.063 760.217 950.356 760.233 949.653 760.264C957.716 753.215 968.453 748.915 980.242 748.915C1004.92 748.915 1024.99 767.758 1025.57 791.212H1025.58V792.249Z" fill="#064928"/>
<path fill-rule="evenodd" clip-rule="evenodd" d="M1025 785.369C1021.56 764.698 1002.82 748.9 980.229 748.9C973.61 748.9 967.323 750.255 961.654 752.692C993.36 753.028 1011.52 761.953 1025 785.369Z" fill="#06292E"/>
<ellipse cx="45.3373" cy="43.3341" rx="45.3373" ry="43.3341" transform="matrix(-1 0 0 1 404.326 748.915)" fill="#FCF8B8"/>
<rect width="90.6746" height="61.7874" transform="matrix(-1 0 0 1 404.326 791.212)" fill="#FCF8B8"/>
<path fill-rule="evenodd" clip-rule="evenodd" d="M313.639 792.249V853H342.107V803.551V802.515H342.12C342.696 779.061 362.768 760.217 387.444 760.217C388.155 760.217 388.862 760.233 389.565 760.264C381.502 753.215 370.765 748.915 358.976 748.915C334.3 748.915 314.228 767.758 313.652 791.212H313.639V792.249Z" fill="#019153"/>
<path fill-rule="evenodd" clip-rule="evenodd" d="M314.217 785.369C317.659 764.698 336.394 748.9 358.989 748.9C365.608 748.9 371.895 750.255 377.564 752.692C345.857 753.028 327.699 761.953 314.217 785.369Z" fill="#019153"/>
<ellipse cx="45.3373" cy="43.3341" rx="45.3373" ry="43.3341" transform="matrix(-1 0 0 1 653.905 748.915)" fill="#FCF8B8"/>
<rect width="90.6746" height="61.7874" transform="matrix(-1 0 0 1 653.905 791.212)" fill="#FCF8B8"/>
<path fill-rule="evenodd" clip-rule="evenodd" d="M563.218 792.249V853H591.685V803.551V802.515H591.698C592.274 779.061 612.346 760.217 637.023 760.217C637.734 760.217 638.441 760.233 639.144 760.264C631.081 753.215 620.343 748.915 608.555 748.915C583.879 748.915 563.807 767.758 563.23 791.212H563.218V792.249Z" fill="#019153"/>
<path fill-rule="evenodd" clip-rule="evenodd" d="M563.797 785.369C567.239 764.698 585.973 748.9 608.568 748.9C615.187 748.9 621.475 750.255 627.144 752.692C595.437 753.028 577.279 761.953 563.797 785.369Z" fill="#019153"/>
<path d="M67 429.5C67 423.701 71.701 419 77.5 419C83.299 419 88 423.701 88 429.5V452H67V429.5Z" fill="#FCF8B8"/>
<path d="M143 426.5C143 420.701 147.701 416 153.5 416C159.299 416 164 420.701 164 426.5V449H143V426.5Z" fill="#FCF8B8"/>
<path d="M200 426.5C200 420.701 204.701 416 210.5 416C216.299 416 221 420.701 221 426.5V449H200V426.5Z" fill="#FCF8B8"/>
<path d="M237 428.5C237 422.701 241.701 418 247.5 418C253.299 418 258 422.701 258 428.5V451H237V428.5Z" fill="#FCF8B8"/>
<path d="M274 429.5C274 423.701 278.701 419 284.5 419C290.299 419 295 423.701 295 429.5V452H274V429.5Z" fill="#FCF8B8"/>
<path d="M1115.49 972H12.3918C-34.5066 833.01 153.565 812.682 244.164 811.171C348.813 673.202 547.266 750.351 601.528 811.171C660.829 752.002 753.819 752.793 792.901 760.585C879.811 770.537 919.216 833.101 913.725 854.266C948.996 817.146 1045.99 843.578 1045.99 843.578C1136.49 876.381 1132.15 942.53 1115.49 972Z" fill="white" stroke="#064928" stroke-width="10"/>
</svg>
