<svg width="516" height="390" viewBox="0 0 516 390" fill="none" xmlns="http://www.w3.org/2000/svg">
<mask id="mask0_690_347" style="mask-type:alpha" maskUnits="userSpaceOnUse" x="285" y="23" width="45" height="48">
<ellipse rx="22.8553" ry="22.1088" transform="matrix(0.0864012 -0.996497 -0.98099 -0.192905 307.711 46.9318)" fill="#C4C4C4"/>
</mask>
<g mask="url(#mask0_690_347)">
<ellipse rx="22.8553" ry="22.1088" transform="matrix(0.0864015 -0.996496 -0.98099 -0.192904 326.559 71.0527)" fill="#51E1AD"/>
</g>
<mask id="mask1_690_347" style="mask-type:alpha" maskUnits="userSpaceOnUse" x="300" y="41" width="44" height="46">
<ellipse rx="20.8023" ry="23.1697" transform="matrix(0.760153 -0.649761 -0.646056 -0.763278 322.213 63.876)" fill="#C4C4C4"/>
</mask>
<g mask="url(#mask1_690_347)">
<ellipse rx="20.8023" ry="23.1697" transform="matrix(0.760066 -0.649863 -0.645974 -0.763349 322.489 92.5733)" fill="#51E1AD"/>
</g>
<mask id="mask2_690_347" style="mask-type:alpha" maskUnits="userSpaceOnUse" x="262" y="27" width="45" height="45">
<ellipse rx="23.1707" ry="20.8012" transform="matrix(-0.629787 -0.776769 -0.776755 0.629801 284.337 49.4542)" fill="#C4C4C4"/>
</mask>
<g mask="url(#mask2_690_347)">
<ellipse rx="23.1707" ry="20.8012" transform="matrix(-0.629787 -0.776769 -0.776755 0.629801 312.535 52.8875)" fill="#51E1AD"/>
</g>
<path d="M1.55748 76.4752L39.0964 310.484C39.3291 311.935 40.5788 313.004 42.0483 313.009L331.482 313.988C333.328 313.994 334.742 312.348 334.456 310.525L297.702 75.5364C297.473 74.0763 296.216 73 294.738 73H4.51961C2.67318 73 1.26502 74.6521 1.55748 76.4752Z" fill="#E5FFEA"/>
<path d="M22.0334 87.4574L54.8956 300.457C55.1213 301.92 56.3803 303 57.8605 303H318.502C320.341 303 321.747 301.36 321.467 299.543L288.604 86.5426C288.379 85.0796 287.12 84 285.639 84H24.9983C23.1592 84 21.753 85.6398 22.0334 87.4574Z" fill="#15766A"/>
<path d="M39.5 311.449L3.5 76" stroke="#51E1AD" stroke-width="6" stroke-linecap="round"/>
<path d="M39.5 312.449H333.5" stroke="#51E1AD" stroke-width="3" stroke-linecap="round"/>
<path d="M122.231 236.906C122.756 236.536 123.365 236.339 123.974 236.341L181.012 236.578C183.851 236.589 184.716 240.424 182.269 242.151L133.11 276.834C132.586 277.204 131.976 277.401 131.368 277.399L74.3299 277.163C71.4906 277.151 70.6253 273.316 73.0724 271.589L122.231 236.906Z" fill="#E5FFEA"/>
<path d="M122.853 229.859C123.031 229.74 123.235 229.679 123.438 229.686L180.45 231.436C181.396 231.465 181.65 232.75 180.819 233.304L130.757 266.67C130.579 266.788 130.374 266.849 130.171 266.843L73.1601 265.093C72.2142 265.064 71.9597 263.778 72.7904 263.224L122.853 229.859Z" fill="#E5E5E5" stroke="#E5FFEA" stroke-width="4"/>
<path d="M122.098 230.914C122.276 230.785 122.484 230.715 122.692 230.716L178.245 230.946C179.191 230.95 179.48 232.229 178.664 232.804L130.771 266.594C130.596 266.717 130.392 266.783 130.189 266.782L76.1888 266.511C75.2507 266.506 74.9564 265.246 75.7571 264.663L122.098 230.914Z" fill="#15766A" stroke="#E5FFEA" stroke-width="2"/>
<path d="M122.138 221.445C122.313 221.322 122.516 221.256 122.719 221.257L179.756 221.493C180.703 221.497 180.991 222.775 180.176 223.351L131.017 258.034C130.842 258.157 130.639 258.223 130.436 258.222L73.3982 257.986C72.4518 257.982 72.1633 256.704 72.979 256.128L122.138 221.445Z" fill="#15766A" stroke="#E5FFEA" stroke-width="4"/>
<path d="M124.542 230.747C124.804 230.562 125.109 230.463 125.413 230.464L146.578 230.54C147.997 230.545 148.429 232.462 147.205 233.327L128.959 246.214C128.697 246.399 128.392 246.498 128.088 246.497L106.923 246.421C105.504 246.416 105.072 244.499 106.296 243.634L124.542 230.747Z" fill="#15766A" stroke="#E5FFEA" stroke-width="3"/>
<path d="M135.147 143.125C135.147 143.125 141.761 149.902 145.196 159.974M127.911 235.367C127.911 235.367 121.713 229.281 140.708 191.957M145.072 183.104C146.43 179.579 147.071 176.128 147.193 172.824" stroke="#E5FFEA" stroke-width="4" stroke-linecap="round"/>
<path d="M111.16 191.991C111.16 191.991 111.312 196.317 115.79 202.18C120.269 208.042 130.073 211.665 130.073 211.665" stroke="#E5FFEA" stroke-width="4" stroke-linecap="round"/>
<path d="M168.844 172.841C168.844 172.841 167.416 175.981 164.102 178.788C156.565 184.246 147.426 187.388 147.426 187.388" stroke="#E5FFEA" stroke-width="4" stroke-linecap="round"/>
<path d="M120.56 143.277C120.56 143.277 120.017 144.669 125.826 149.661C131.635 154.652 141.944 155.086 141.944 155.086" stroke="#E5FFEA" stroke-width="4" stroke-linecap="round"/>
<path d="M84.494 180.658L84.1184 182.623L86.0151 182.985L86.444 181.103L84.494 180.658ZM126.464 178.264L124.602 178.994L125.185 180.481L126.764 180.242L126.464 178.264ZM147.051 191.989V193.989H148.347L148.876 192.805L147.051 191.989ZM69.3336 191.989H67.3336V193.989H69.3336V191.989ZM141.306 180.339L140.203 182.008L141.306 180.339ZM98.5952 193.989C99.6998 193.989 100.595 193.093 100.595 191.989C100.595 190.884 99.6998 189.989 98.5952 189.989V193.989ZM84.494 180.658C86.444 181.103 86.4438 181.104 86.4435 181.105C86.4434 181.105 86.4432 181.106 86.443 181.107C86.4428 181.108 86.4425 181.109 86.4423 181.11C86.4419 181.112 86.4416 181.113 86.4416 181.113C86.4414 181.114 86.442 181.112 86.4432 181.106C86.4458 181.096 86.4512 181.075 86.46 181.043C86.4774 180.979 86.5078 180.873 86.5537 180.731C86.6457 180.448 86.7994 180.021 87.0353 179.498C87.5081 178.45 88.3041 177.027 89.5835 175.579C92.1001 172.731 96.6207 169.625 104.694 169.251L104.509 165.255C95.3473 165.68 89.8142 169.276 86.5858 172.931C84.9927 174.734 83.9934 176.513 83.3889 177.854C83.0863 178.525 82.8809 179.09 82.7485 179.498C82.6822 179.703 82.6341 179.869 82.601 179.99C82.5845 180.051 82.5717 180.1 82.5623 180.138C82.5576 180.156 82.5538 180.172 82.5508 180.185C82.5492 180.191 82.5479 180.197 82.5468 180.202C82.5462 180.204 82.5457 180.206 82.5453 180.208C82.545 180.209 82.5447 180.211 82.5446 180.211C82.5443 180.213 82.544 180.214 84.494 180.658ZM104.694 169.251C112.794 168.876 117.761 171.451 120.691 173.975C122.176 175.254 123.171 176.55 123.789 177.513C124.098 177.993 124.311 178.388 124.442 178.651C124.508 178.782 124.552 178.881 124.579 178.94C124.592 178.969 124.6 178.989 124.604 178.999C124.606 179.003 124.607 179.005 124.606 179.005C124.606 179.004 124.606 179.003 124.605 179.001C124.605 179.001 124.604 179 124.604 178.998C124.604 178.998 124.603 178.997 124.603 178.996C124.603 178.995 124.602 178.994 126.464 178.264C128.326 177.535 128.326 177.533 128.326 177.532C128.325 177.532 128.325 177.53 128.324 177.529C128.324 177.528 128.323 177.525 128.322 177.523C128.32 177.519 128.318 177.513 128.316 177.507C128.311 177.495 128.305 177.48 128.297 177.463C128.283 177.427 128.263 177.381 128.238 177.324C128.188 177.211 128.116 177.056 128.022 176.866C127.833 176.487 127.549 175.965 127.155 175.351C126.367 174.124 125.128 172.518 123.301 170.944C119.609 167.763 113.644 164.832 104.509 165.255L104.694 169.251ZM69.3336 191.989C71.3336 191.989 71.3336 191.989 71.3336 191.99C71.3336 191.99 71.3336 191.991 71.3336 191.992C71.3336 191.993 71.3336 191.993 71.3336 191.994C71.3336 191.996 71.3336 191.997 71.3336 191.998C71.3336 191.999 71.3336 192 71.3336 191.999C71.3336 191.997 71.3337 191.99 71.3341 191.977C71.3347 191.953 71.3363 191.909 71.3399 191.847C71.3471 191.722 71.3624 191.528 71.3945 191.279C71.459 190.778 71.5895 190.074 71.8508 189.284C72.3743 187.702 73.3898 185.867 75.3767 184.565L73.1846 181.219C70.2246 183.159 68.7665 185.872 68.0532 188.028C67.6961 189.107 67.5174 190.069 67.4273 190.767C67.3821 191.118 67.3587 191.406 67.3466 191.615C67.3406 191.719 67.3373 191.804 67.3356 191.867C67.3347 191.898 67.3342 191.924 67.334 191.945C67.3338 191.955 67.3337 191.964 67.3337 191.971C67.3337 191.975 67.3336 191.978 67.3336 191.981C67.3336 191.982 67.3336 191.984 67.3336 191.985C67.3336 191.986 67.3336 191.987 67.3336 191.987C67.3336 191.988 67.3336 191.989 69.3336 191.989ZM75.3767 184.565C77.4953 183.177 79.699 182.688 81.4006 182.554C82.2481 182.486 82.9556 182.508 83.441 182.546C83.6831 182.564 83.8678 182.586 83.9847 182.602C84.043 182.611 84.0843 182.617 84.1071 182.621C84.1184 182.623 84.1252 182.624 84.1271 182.624C84.1281 182.624 84.1279 182.624 84.1264 182.624C84.1257 182.624 84.1247 182.624 84.1233 182.624C84.1227 182.623 84.1219 182.623 84.1211 182.623C84.1207 182.623 84.12 182.623 84.1198 182.623C84.1191 182.623 84.1184 182.623 84.494 180.658C84.8697 178.694 84.8689 178.694 84.8681 178.694C84.8678 178.693 84.867 178.693 84.8665 178.693C84.8653 178.693 84.8641 178.693 84.8628 178.692C84.8602 178.692 84.8572 178.691 84.8539 178.691C84.8474 178.69 84.8395 178.688 84.8304 178.687C84.8121 178.683 84.7887 178.679 84.7603 178.675C84.7035 178.665 84.6268 178.653 84.5315 178.64C84.341 178.614 84.0757 178.583 83.7467 178.557C83.0901 178.507 82.1719 178.48 81.0845 178.566C78.9162 178.738 76.0132 179.366 73.1846 181.219L75.3767 184.565ZM126.464 178.264C126.764 180.242 126.764 180.242 126.764 180.242C126.763 180.242 126.763 180.242 126.763 180.242C126.763 180.242 126.763 180.242 126.763 180.242C126.763 180.242 126.763 180.242 126.764 180.242C126.767 180.242 126.771 180.241 126.778 180.24C126.791 180.238 126.813 180.235 126.844 180.231C126.904 180.222 126.999 180.21 127.123 180.195C127.371 180.165 127.738 180.125 128.198 180.087C129.121 180.011 130.402 179.945 131.836 179.982C134.792 180.059 138.026 180.57 140.203 182.008L142.408 178.67C139.258 176.59 135.072 176.065 131.939 175.983C130.328 175.942 128.898 176.016 127.87 176.101C127.355 176.143 126.937 176.188 126.644 176.224C126.498 176.241 126.383 176.256 126.301 176.268C126.261 176.273 126.229 176.278 126.206 176.281C126.195 176.283 126.185 176.284 126.178 176.285C126.175 176.286 126.172 176.286 126.17 176.286C126.169 176.286 126.168 176.287 126.167 176.287C126.166 176.287 126.166 176.287 126.165 176.287C126.165 176.287 126.164 176.287 126.464 178.264ZM140.203 182.008C144.036 184.539 145.105 186.999 145.378 188.596C145.521 189.431 145.463 190.122 145.376 190.587C145.333 190.82 145.283 190.994 145.249 191.097C145.233 191.148 145.22 191.181 145.215 191.194C145.212 191.201 145.212 191.202 145.213 191.199C145.214 191.197 145.215 191.194 145.217 191.189C145.218 191.187 145.219 191.184 145.221 191.182C145.221 191.18 145.222 191.179 145.223 191.177C145.223 191.176 145.224 191.175 145.224 191.174C145.224 191.173 145.225 191.172 147.051 191.989C148.876 192.805 148.877 192.804 148.877 192.803C148.878 192.802 148.878 192.801 148.879 192.8C148.88 192.798 148.881 192.796 148.882 192.793C148.883 192.789 148.886 192.784 148.888 192.779C148.892 192.769 148.897 192.757 148.903 192.743C148.914 192.716 148.928 192.683 148.943 192.644C148.973 192.566 149.011 192.463 149.052 192.338C149.134 192.087 149.23 191.743 149.309 191.32C149.466 190.475 149.557 189.3 149.321 187.921C148.836 185.089 147.033 181.724 142.408 178.67L140.203 182.008ZM147.051 189.989H111.16V193.989H147.051V189.989ZM98.5952 189.989H69.3336V193.989H98.5952V189.989Z" fill="#E5FFEA"/>
<path d="M145.135 161.508L144.76 163.473L146.657 163.835L147.086 161.953L145.135 161.508ZM187.106 159.115L185.244 159.844L185.827 161.331L187.406 161.092L187.106 159.115ZM207.692 172.839V174.839H208.988L209.518 173.655L207.692 172.839ZM129.975 172.839H127.975V174.839H129.975V172.839ZM201.947 161.189L200.845 162.858L201.947 161.189ZM181.408 170.839C180.304 170.839 179.408 171.734 179.408 172.839C179.408 173.943 180.304 174.839 181.408 174.839V170.839ZM145.135 161.508C147.086 161.953 147.085 161.954 147.085 161.955C147.085 161.955 147.085 161.956 147.085 161.957C147.084 161.958 147.084 161.959 147.084 161.96C147.083 161.962 147.083 161.963 147.083 161.963C147.083 161.964 147.083 161.962 147.085 161.956C147.087 161.946 147.093 161.925 147.101 161.893C147.119 161.829 147.149 161.723 147.195 161.581C147.287 161.298 147.441 160.871 147.677 160.348C148.15 159.3 148.946 157.877 150.225 156.429C152.742 153.581 157.262 150.475 165.335 150.101L165.15 146.105C155.989 146.53 150.456 150.126 147.227 153.781C145.634 155.584 144.635 157.363 144.03 158.704C143.728 159.375 143.522 159.94 143.39 160.348C143.324 160.553 143.276 160.719 143.242 160.84C143.226 160.901 143.213 160.95 143.204 160.988C143.199 161.006 143.195 161.022 143.192 161.035C143.191 161.041 143.189 161.047 143.188 161.052C143.188 161.054 143.187 161.056 143.187 161.058C143.186 161.059 143.186 161.061 143.186 161.061C143.186 161.063 143.185 161.064 145.135 161.508ZM165.335 150.101C173.435 149.726 178.402 152.301 181.332 154.825C182.817 156.104 183.813 157.4 184.431 158.363C184.739 158.843 184.952 159.238 185.083 159.501C185.149 159.632 185.194 159.731 185.22 159.79C185.233 159.82 185.242 159.839 185.245 159.849C185.247 159.853 185.248 159.855 185.248 159.855C185.248 159.854 185.247 159.853 185.247 159.852C185.246 159.851 185.246 159.85 185.245 159.848C185.245 159.848 185.245 159.847 185.245 159.846C185.244 159.845 185.244 159.844 187.106 159.115C188.968 158.385 188.967 158.384 188.967 158.382C188.967 158.382 188.966 158.38 188.966 158.38C188.965 158.378 188.964 158.375 188.963 158.373C188.962 158.369 188.959 158.363 188.957 158.357C188.952 158.345 188.946 158.33 188.939 158.313C188.924 158.277 188.904 158.231 188.879 158.174C188.829 158.061 188.758 157.906 188.663 157.716C188.474 157.337 188.191 156.815 187.796 156.201C187.008 154.974 185.769 153.368 183.943 151.794C180.25 148.613 174.286 145.682 165.15 146.105L165.335 150.101ZM129.975 172.839C131.975 172.839 131.975 172.839 131.975 172.84C131.975 172.84 131.975 172.841 131.975 172.842C131.975 172.843 131.975 172.843 131.975 172.844C131.975 172.846 131.975 172.847 131.975 172.848C131.975 172.849 131.975 172.85 131.975 172.849C131.975 172.847 131.975 172.84 131.976 172.827C131.976 172.803 131.978 172.759 131.981 172.697C131.989 172.572 132.004 172.378 132.036 172.129C132.1 171.628 132.231 170.924 132.492 170.134C133.016 168.552 134.031 166.717 136.018 165.415L133.826 162.069C130.866 164.009 129.408 166.722 128.695 168.878C128.338 169.957 128.159 170.919 128.069 171.617C128.024 171.968 128 172.256 127.988 172.465C127.982 172.569 127.979 172.654 127.977 172.717C127.976 172.748 127.976 172.774 127.975 172.795C127.975 172.805 127.975 172.814 127.975 172.821C127.975 172.825 127.975 172.828 127.975 172.831C127.975 172.832 127.975 172.834 127.975 172.835C127.975 172.836 127.975 172.837 127.975 172.837C127.975 172.838 127.975 172.839 129.975 172.839ZM136.018 165.415C138.137 164.027 140.34 163.539 142.042 163.404C142.89 163.336 143.597 163.359 144.083 163.396C144.325 163.414 144.509 163.436 144.626 163.453C144.685 163.461 144.726 163.467 144.749 163.471C144.76 163.473 144.767 163.474 144.769 163.474C144.77 163.474 144.769 163.474 144.768 163.474C144.767 163.474 144.766 163.474 144.765 163.474C144.764 163.473 144.763 163.473 144.763 163.473C144.762 163.473 144.761 163.473 144.761 163.473C144.761 163.473 144.76 163.473 145.135 161.508C145.511 159.544 145.51 159.544 145.51 159.544C145.509 159.544 145.509 159.543 145.508 159.543C145.507 159.543 145.506 159.543 145.504 159.543C145.502 159.542 145.499 159.542 145.495 159.541C145.489 159.54 145.481 159.538 145.472 159.537C145.454 159.533 145.43 159.529 145.402 159.525C145.345 159.515 145.268 159.503 145.173 159.49C144.983 159.464 144.717 159.433 144.388 159.407C143.732 159.357 142.813 159.33 141.726 159.416C139.558 159.588 136.655 160.216 133.826 162.069L136.018 165.415ZM187.106 159.115C187.406 161.092 187.405 161.092 187.405 161.092C187.405 161.092 187.405 161.092 187.404 161.092C187.404 161.092 187.404 161.092 187.404 161.092C187.404 161.092 187.405 161.092 187.406 161.092C187.408 161.092 187.412 161.091 187.419 161.09C187.433 161.088 187.455 161.085 187.485 161.081C187.546 161.072 187.64 161.06 187.764 161.045C188.013 161.015 188.38 160.975 188.84 160.937C189.762 160.861 191.044 160.795 192.477 160.832C195.433 160.909 198.668 161.42 200.845 162.858L203.049 159.52C199.9 157.44 195.714 156.915 192.581 156.833C190.97 156.792 189.54 156.866 188.512 156.951C187.996 156.993 187.579 157.038 187.286 157.074C187.139 157.091 187.024 157.107 186.943 157.118C186.902 157.123 186.87 157.128 186.847 157.131C186.836 157.133 186.827 157.134 186.82 157.135C186.816 157.136 186.813 157.136 186.811 157.136C186.81 157.137 186.809 157.137 186.808 157.137C186.808 157.137 186.807 157.137 186.807 157.137C186.806 157.137 186.806 157.137 187.106 159.115ZM200.845 162.858C204.678 165.389 205.747 167.849 206.02 169.446C206.163 170.281 206.104 170.972 206.018 171.438C205.974 171.67 205.924 171.844 205.891 171.947C205.874 171.998 205.862 172.031 205.857 172.044C205.854 172.051 205.853 172.052 205.855 172.049C205.856 172.047 205.857 172.044 205.859 172.039C205.86 172.037 205.861 172.035 205.862 172.032C205.863 172.03 205.863 172.029 205.864 172.027C205.865 172.026 205.865 172.025 205.865 172.025C205.866 172.023 205.866 172.022 207.692 172.839C209.518 173.655 209.518 173.654 209.519 173.653C209.519 173.652 209.52 173.651 209.52 173.65C209.521 173.648 209.522 173.646 209.523 173.643C209.525 173.639 209.527 173.634 209.529 173.629C209.534 173.619 209.539 173.607 209.544 173.593C209.556 173.567 209.569 173.533 209.584 173.494C209.615 173.416 209.653 173.313 209.693 173.188C209.775 172.937 209.871 172.593 209.95 172.17C210.108 171.325 210.199 170.15 209.963 168.771C209.478 165.94 207.674 162.575 203.049 159.52L200.845 162.858ZM168.834 170.839H129.975V174.839H168.834V170.839ZM207.692 170.839H181.408V174.839H207.692V170.839Z" fill="#E5FFEA"/>
<path d="M109.389 130.868L109.013 132.833L110.91 133.195L111.339 131.313L109.389 130.868ZM151.359 128.475L149.497 129.204L150.08 130.691L151.659 130.452L151.359 128.475ZM171.946 142.199V144.199H173.242L173.771 143.015L171.946 142.199ZM94.2285 140.199C93.1239 140.199 92.2285 141.094 92.2285 142.199C92.2285 143.303 93.1239 144.199 94.2285 144.199V140.199ZM98.0795 131.43C97.1556 132.035 96.8973 133.275 97.5027 134.199C98.108 135.122 99.3477 135.381 100.272 134.775L98.0795 131.43ZM166.201 130.549L165.098 132.218L166.201 130.549ZM109.389 130.868C111.339 131.313 111.339 131.314 111.338 131.315C111.338 131.315 111.338 131.316 111.338 131.317C111.338 131.318 111.337 131.319 111.337 131.32C111.337 131.322 111.337 131.323 111.336 131.323C111.336 131.324 111.337 131.322 111.338 131.317C111.341 131.306 111.346 131.285 111.355 131.253C111.372 131.189 111.403 131.083 111.449 130.942C111.541 130.658 111.694 130.231 111.93 129.708C112.403 128.66 113.199 127.237 114.478 125.789C116.995 122.941 121.516 119.835 129.589 119.461L129.404 115.465C120.242 115.89 114.709 119.486 111.481 123.141C109.888 124.944 108.888 126.723 108.284 128.064C107.981 128.735 107.776 129.3 107.643 129.709C107.577 129.913 107.529 130.079 107.496 130.2C107.479 130.261 107.467 130.31 107.457 130.348C107.453 130.366 107.449 130.382 107.446 130.395C107.444 130.401 107.443 130.407 107.442 130.412C107.441 130.414 107.441 130.416 107.44 130.419C107.44 130.42 107.44 130.421 107.439 130.421C107.439 130.423 107.439 130.424 109.389 130.868ZM129.589 119.461C137.688 119.086 142.656 121.661 145.586 124.185C147.071 125.464 148.066 126.76 148.684 127.723C148.993 128.203 149.206 128.598 149.337 128.861C149.402 128.992 149.447 129.091 149.474 129.15C149.487 129.18 149.495 129.199 149.499 129.209C149.501 129.213 149.502 129.215 149.501 129.215C149.501 129.214 149.501 129.213 149.5 129.212C149.5 129.211 149.499 129.21 149.499 129.208C149.499 129.208 149.498 129.207 149.498 129.207C149.498 129.205 149.497 129.204 151.359 128.475C153.221 127.745 153.221 127.744 153.22 127.742C153.22 127.742 153.22 127.741 153.219 127.74C153.219 127.738 153.218 127.736 153.217 127.733C153.215 127.729 153.213 127.723 153.21 127.717C153.206 127.705 153.199 127.69 153.192 127.673C153.177 127.637 153.158 127.591 153.133 127.534C153.083 127.421 153.011 127.266 152.917 127.076C152.727 126.697 152.444 126.175 152.05 125.561C151.261 124.334 150.023 122.728 148.196 121.154C144.503 117.973 138.539 115.043 129.404 115.465L129.589 119.461ZM171.946 140.199H94.2285V144.199H171.946V140.199ZM100.272 134.775C102.39 133.387 104.594 132.899 106.295 132.764C107.143 132.696 107.851 132.719 108.336 132.756C108.578 132.774 108.763 132.796 108.88 132.813C108.938 132.821 108.979 132.827 109.002 132.831C109.013 132.833 109.02 132.834 109.022 132.834C109.023 132.835 109.023 132.835 109.021 132.834C109.021 132.834 109.02 132.834 109.018 132.834C109.018 132.834 109.017 132.833 109.016 132.833C109.016 132.833 109.015 132.833 109.015 132.833C109.014 132.833 109.013 132.833 109.389 130.868C109.765 128.904 109.764 128.904 109.763 128.904C109.763 128.904 109.762 128.903 109.761 128.903C109.76 128.903 109.759 128.903 109.758 128.903C109.755 128.902 109.752 128.902 109.749 128.901C109.742 128.9 109.734 128.898 109.725 128.897C109.707 128.893 109.684 128.889 109.655 128.885C109.598 128.875 109.522 128.863 109.426 128.85C109.236 128.824 108.971 128.793 108.642 128.767C107.985 128.717 107.067 128.69 105.979 128.776C103.811 128.948 100.908 129.576 98.0795 131.43L100.272 134.775ZM151.359 128.475C151.659 130.452 151.659 130.452 151.658 130.452C151.658 130.452 151.658 130.452 151.658 130.452C151.658 130.452 151.657 130.452 151.657 130.452C151.657 130.452 151.658 130.452 151.659 130.452C151.661 130.452 151.666 130.451 151.673 130.45C151.686 130.448 151.708 130.445 151.738 130.441C151.799 130.432 151.894 130.42 152.018 130.405C152.266 130.375 152.633 130.335 153.093 130.297C154.016 130.221 155.297 130.155 156.731 130.192C159.686 130.269 162.921 130.78 165.098 132.218L167.303 128.88C164.153 126.8 159.967 126.275 156.834 126.193C155.223 126.152 153.793 126.226 152.765 126.311C152.25 126.353 151.832 126.399 151.539 126.434C151.393 126.451 151.277 126.467 151.196 126.478C151.156 126.483 151.124 126.488 151.101 126.491C151.089 126.493 151.08 126.494 151.073 126.495C151.07 126.496 151.067 126.496 151.065 126.496C151.063 126.497 151.062 126.497 151.062 126.497C151.061 126.497 151.061 126.497 151.06 126.497C151.06 126.497 151.059 126.497 151.359 128.475ZM165.098 132.218C168.931 134.749 170 137.209 170.273 138.806C170.416 139.641 170.358 140.332 170.271 140.798C170.228 141.03 170.178 141.204 170.144 141.307C170.127 141.358 170.115 141.391 170.11 141.404C170.107 141.411 170.107 141.412 170.108 141.409C170.109 141.407 170.11 141.404 170.112 141.399C170.113 141.397 170.114 141.395 170.116 141.392C170.116 141.39 170.117 141.389 170.118 141.387C170.118 141.386 170.119 141.385 170.119 141.385C170.119 141.383 170.12 141.382 171.946 142.199C173.771 143.015 173.772 143.014 173.772 143.013C173.773 143.012 173.773 143.011 173.774 143.01C173.775 143.008 173.775 143.006 173.776 143.004C173.778 142.999 173.78 142.994 173.783 142.989C173.787 142.979 173.792 142.967 173.798 142.953C173.809 142.927 173.823 142.893 173.838 142.854C173.868 142.776 173.906 142.673 173.947 142.548C174.029 142.297 174.125 141.953 174.203 141.53C174.361 140.685 174.452 139.51 174.216 138.131C173.731 135.3 171.928 131.935 167.303 128.88L165.098 132.218Z" fill="#E5FFEA"/>
<mask id="mask3_690_347" style="mask-type:alpha" maskUnits="userSpaceOnUse" x="79" y="118" width="18" height="18">
<ellipse cx="87.7966" cy="127.318" rx="8.54842" ry="8.20093" transform="rotate(-102.768 87.7966 127.318)" fill="#C4C4C4"/>
</mask>
<g mask="url(#mask3_690_347)">
<ellipse cx="81.8701" cy="136.387" rx="8.54842" ry="8.20093" transform="rotate(-102.768 81.8701 136.387)" fill="#E5FFEA"/>
</g>
<mask id="mask4_690_347" style="mask-type:alpha" maskUnits="userSpaceOnUse" x="75" y="125" width="17" height="17">
<circle cx="83.2777" cy="133.643" r="8.20093" transform="rotate(-144.34 83.2777 133.643)" fill="#C4C4C4"/>
</mask>
<g mask="url(#mask4_690_347)">
<circle cx="84.6124" cy="144.181" r="8.20093" transform="rotate(-144.34 84.6124 144.181)" fill="#E5FFEA"/>
</g>
<mask id="mask5_690_347" style="mask-type:alpha" maskUnits="userSpaceOnUse" x="88" y="119" width="18" height="18">
<circle cx="96.8951" cy="127.92" r="8.20093" transform="rotate(-55.6819 96.8951 127.92)" fill="#C4C4C4"/>
</mask>
<g mask="url(#mask5_690_347)">
<circle cx="86.3912" cy="129.501" r="8.20093" transform="rotate(-55.6819 86.3912 129.501)" fill="#E5FFEA"/>
</g>
<path d="M184.15 194.8H180.85V202.325C180.85 202.842 180.992 203.242 181.275 203.525C181.558 203.808 181.95 203.95 182.45 203.95C182.733 203.95 183.017 203.917 183.3 203.85C183.6 203.767 183.883 203.667 184.15 203.55L184.275 204.9C183.992 205 183.667 205.092 183.3 205.175C182.933 205.258 182.608 205.3 182.325 205.3C181.792 205.3 181.333 205.217 180.95 205.05C180.567 204.9 180.258 204.692 180.025 204.425C179.792 204.158 179.617 203.85 179.5 203.5C179.4 203.133 179.35 202.742 179.35 202.325V194.8H176.85V193.45H179.35V190.125H180.85V193.45H184.15V194.8ZM186.825 196.7C186.825 196.483 186.817 196.225 186.8 195.925C186.784 195.608 186.767 195.292 186.75 194.975C186.75 194.658 186.742 194.367 186.725 194.1C186.709 193.817 186.7 193.6 186.7 193.45H188.2C188.217 193.883 188.225 194.3 188.225 194.7C188.242 195.1 188.267 195.358 188.3 195.475C188.684 194.792 189.175 194.233 189.775 193.8C190.375 193.367 191.109 193.15 191.975 193.15C192.125 193.15 192.267 193.167 192.4 193.2C192.55 193.217 192.7 193.242 192.85 193.275L192.675 194.75C192.475 194.683 192.284 194.65 192.1 194.65C191.45 194.65 190.884 194.758 190.4 194.975C189.934 195.175 189.542 195.458 189.225 195.825C188.925 196.192 188.7 196.625 188.55 197.125C188.4 197.608 188.325 198.133 188.325 198.7V205H186.825V196.7ZM204.911 202.825C204.328 203.708 203.603 204.342 202.736 204.725C201.886 205.108 200.944 205.3 199.911 205.3C199.028 205.3 198.228 205.15 197.511 204.85C196.794 204.55 196.178 204.133 195.661 203.6C195.144 203.05 194.744 202.408 194.461 201.675C194.194 200.925 194.061 200.1 194.061 199.2C194.061 198.333 194.203 197.533 194.486 196.8C194.769 196.067 195.169 195.433 195.686 194.9C196.203 194.35 196.811 193.925 197.511 193.625C198.211 193.308 198.986 193.15 199.836 193.15C200.719 193.15 201.494 193.308 202.161 193.625C202.844 193.925 203.411 194.333 203.861 194.85C204.328 195.35 204.678 195.925 204.911 196.575C205.144 197.225 205.261 197.883 205.261 198.55V199.6H195.561C195.561 199.917 195.619 200.325 195.736 200.825C195.869 201.308 196.103 201.783 196.436 202.25C196.769 202.717 197.211 203.117 197.761 203.45C198.328 203.783 199.053 203.95 199.936 203.95C200.703 203.95 201.444 203.767 202.161 203.4C202.878 203.033 203.428 202.533 203.811 201.9L204.911 202.825ZM203.761 198.25C203.761 197.733 203.653 197.25 203.436 196.8C203.236 196.35 202.953 195.958 202.586 195.625C202.236 195.275 201.811 195 201.311 194.8C200.828 194.6 200.311 194.5 199.761 194.5C198.944 194.5 198.261 194.667 197.711 195C197.178 195.333 196.753 195.717 196.436 196.15C196.119 196.583 195.894 197.008 195.761 197.425C195.628 197.825 195.561 198.1 195.561 198.25H203.761ZM218.803 202.825C218.219 203.708 217.494 204.342 216.628 204.725C215.778 205.108 214.836 205.3 213.803 205.3C212.919 205.3 212.119 205.15 211.403 204.85C210.686 204.55 210.069 204.133 209.553 203.6C209.036 203.05 208.636 202.408 208.353 201.675C208.086 200.925 207.953 200.1 207.953 199.2C207.953 198.333 208.094 197.533 208.378 196.8C208.661 196.067 209.061 195.433 209.578 194.9C210.094 194.35 210.703 193.925 211.403 193.625C212.103 193.308 212.878 193.15 213.728 193.15C214.611 193.15 215.386 193.308 216.053 193.625C216.736 193.925 217.303 194.333 217.753 194.85C218.219 195.35 218.569 195.925 218.803 196.575C219.036 197.225 219.153 197.883 219.153 198.55V199.6H209.453C209.453 199.917 209.511 200.325 209.628 200.825C209.761 201.308 209.994 201.783 210.328 202.25C210.661 202.717 211.103 203.117 211.653 203.45C212.219 203.783 212.944 203.95 213.828 203.95C214.594 203.95 215.336 203.767 216.053 203.4C216.769 203.033 217.319 202.533 217.703 201.9L218.803 202.825ZM217.653 198.25C217.653 197.733 217.544 197.25 217.328 196.8C217.128 196.35 216.844 195.958 216.478 195.625C216.128 195.275 215.703 195 215.203 194.8C214.719 194.6 214.203 194.5 213.653 194.5C212.836 194.5 212.153 194.667 211.603 195C211.069 195.333 210.644 195.717 210.328 196.15C210.011 196.583 209.786 197.008 209.653 197.425C209.519 197.825 209.453 198.1 209.453 198.25H217.653ZM225.194 194.675H225.244C225.477 194.175 225.886 193.725 226.469 193.325C227.069 192.908 227.836 192.7 228.769 192.7C229.569 192.7 230.244 192.833 230.794 193.1C231.361 193.367 231.819 193.717 232.169 194.15C232.519 194.583 232.769 195.083 232.919 195.65C233.069 196.217 233.144 196.808 233.144 197.425V205H230.144V198.925C230.144 198.592 230.127 198.225 230.094 197.825C230.061 197.408 229.969 197.025 229.819 196.675C229.686 196.308 229.469 196.008 229.169 195.775C228.869 195.525 228.461 195.4 227.944 195.4C227.444 195.4 227.019 195.483 226.669 195.65C226.336 195.817 226.052 196.042 225.819 196.325C225.602 196.608 225.444 196.933 225.344 197.3C225.244 197.667 225.194 198.05 225.194 198.45V205H222.194V186.1H225.194V194.675ZM244.05 203.35H243.975C243.541 204.033 242.991 204.533 242.325 204.85C241.658 205.15 240.925 205.3 240.125 205.3C239.575 205.3 239.033 205.225 238.5 205.075C237.983 204.925 237.516 204.7 237.1 204.4C236.7 204.1 236.375 203.725 236.125 203.275C235.875 202.825 235.75 202.3 235.75 201.7C235.75 201.05 235.866 200.5 236.1 200.05C236.333 199.583 236.641 199.2 237.025 198.9C237.425 198.583 237.883 198.333 238.4 198.15C238.916 197.967 239.45 197.833 240 197.75C240.566 197.65 241.133 197.592 241.7 197.575C242.266 197.542 242.8 197.525 243.3 197.525H244.05V197.2C244.05 196.45 243.791 195.892 243.275 195.525C242.758 195.142 242.1 194.95 241.3 194.95C240.666 194.95 240.075 195.067 239.525 195.3C238.975 195.517 238.5 195.817 238.1 196.2L236.525 194.625C237.191 193.942 237.966 193.45 238.85 193.15C239.75 192.85 240.675 192.7 241.625 192.7C242.475 192.7 243.191 192.8 243.775 193C244.358 193.183 244.841 193.425 245.225 193.725C245.608 194.025 245.9 194.375 246.1 194.775C246.316 195.158 246.466 195.55 246.55 195.95C246.65 196.35 246.708 196.742 246.725 197.125C246.741 197.492 246.75 197.817 246.75 198.1V205H244.05V203.35ZM243.875 199.625H243.25C242.833 199.625 242.366 199.642 241.85 199.675C241.333 199.708 240.841 199.792 240.375 199.925C239.925 200.042 239.541 200.225 239.225 200.475C238.908 200.708 238.75 201.042 238.75 201.475C238.75 201.758 238.808 202 238.925 202.2C239.058 202.383 239.225 202.542 239.425 202.675C239.625 202.808 239.85 202.908 240.1 202.975C240.35 203.025 240.6 203.05 240.85 203.05C241.883 203.05 242.641 202.808 243.125 202.325C243.625 201.825 243.875 201.15 243.875 200.3V199.625ZM258.177 196.6C257.827 196.233 257.461 195.942 257.077 195.725C256.694 195.508 256.302 195.4 255.902 195.4C255.352 195.4 254.861 195.5 254.427 195.7C253.994 195.9 253.619 196.167 253.302 196.5C253.002 196.833 252.769 197.217 252.602 197.65C252.452 198.083 252.377 198.533 252.377 199C252.377 199.467 252.452 199.917 252.602 200.35C252.769 200.783 253.002 201.167 253.302 201.5C253.619 201.833 253.994 202.1 254.427 202.3C254.861 202.5 255.352 202.6 255.902 202.6C256.369 202.6 256.802 202.508 257.202 202.325C257.602 202.125 257.944 201.842 258.227 201.475L260.227 203.625C259.927 203.925 259.577 204.183 259.177 204.4C258.794 204.617 258.402 204.792 258.002 204.925C257.602 205.058 257.219 205.15 256.852 205.2C256.486 205.267 256.169 205.3 255.902 205.3C255.002 205.3 254.152 205.15 253.352 204.85C252.552 204.55 251.861 204.125 251.277 203.575C250.694 203.025 250.227 202.367 249.877 201.6C249.544 200.817 249.377 199.95 249.377 199C249.377 198.05 249.544 197.192 249.877 196.425C250.227 195.642 250.694 194.975 251.277 194.425C251.861 193.875 252.552 193.45 253.352 193.15C254.152 192.85 255.002 192.7 255.902 192.7C256.669 192.7 257.436 192.85 258.202 193.15C258.986 193.433 259.669 193.892 260.252 194.525L258.177 196.6ZM262.038 186.1H265.038V197.975L269.663 193H273.513L268.363 198.45L273.838 205H269.863L265.088 198.875H265.038V205H262.038V186.1ZM281.866 196.325C281.282 195.508 280.499 195.1 279.516 195.1C279.116 195.1 278.724 195.2 278.341 195.4C277.957 195.6 277.766 195.925 277.766 196.375C277.766 196.742 277.924 197.008 278.241 197.175C278.557 197.342 278.957 197.483 279.441 197.6C279.924 197.717 280.441 197.842 280.991 197.975C281.557 198.092 282.082 198.283 282.566 198.55C283.049 198.8 283.449 199.15 283.766 199.6C284.082 200.05 284.241 200.667 284.241 201.45C284.241 202.167 284.082 202.775 283.766 203.275C283.466 203.758 283.066 204.15 282.566 204.45C282.082 204.75 281.532 204.967 280.916 205.1C280.299 205.233 279.682 205.3 279.066 205.3C278.132 205.3 277.274 205.167 276.491 204.9C275.707 204.633 275.007 204.15 274.391 203.45L276.391 201.575C276.774 202.008 277.182 202.367 277.616 202.65C278.066 202.917 278.607 203.05 279.241 203.05C279.457 203.05 279.682 203.025 279.916 202.975C280.149 202.925 280.366 202.842 280.566 202.725C280.766 202.608 280.924 202.467 281.041 202.3C281.174 202.117 281.241 201.908 281.241 201.675C281.241 201.258 281.082 200.95 280.766 200.75C280.449 200.55 280.049 200.392 279.566 200.275C279.082 200.142 278.557 200.025 277.991 199.925C277.441 199.808 276.924 199.633 276.441 199.4C275.957 199.15 275.557 198.808 275.241 198.375C274.924 197.942 274.766 197.342 274.766 196.575C274.766 195.908 274.899 195.333 275.166 194.85C275.449 194.35 275.816 193.942 276.266 193.625C276.716 193.308 277.232 193.075 277.816 192.925C278.399 192.775 278.991 192.7 279.591 192.7C280.391 192.7 281.182 192.842 281.966 193.125C282.749 193.392 283.382 193.858 283.866 194.525L281.866 196.325Z" fill="#E5FFEA"/>
<path d="M215.209 366.876L60.289 320.876C56.9714 319.891 57.6822 315 61.1429 315H333.937C334.227 315 334.514 315.042 334.791 315.124L489.711 361.124C493.029 362.109 492.318 367 488.857 367H216.063C215.773 367 215.486 366.958 215.209 366.876Z" fill="#E5FFEA"/>
<path d="M213.34 367.958L40.0254 315.958C38.922 315.627 39.1608 314 40.3127 314H335.372C335.47 314 335.566 314.014 335.66 314.042L508.975 366.042C510.078 366.373 509.839 368 508.687 368H213.628C213.53 368 213.433 367.986 213.34 367.958Z" fill="#E5FFEA"/>
<path d="M191.866 348.962L89.4309 319.962C88.3138 319.646 88.5423 318 89.7033 318H327.851C327.95 318 328.048 318.015 328.143 318.044L423.094 347.044C424.193 347.379 423.951 349 422.802 349H192.139C192.047 349 191.955 348.987 191.866 348.962Z" fill="#0CB08A"/>
<path d="M36.5 317.032C36.5 315.023 38.4372 313.581 40.362 314.159L214.362 366.359C215.631 366.739 216.5 367.907 216.5 369.232V385.946C216.5 387.962 214.551 389.405 212.623 388.815L38.6233 335.649C37.3617 335.263 36.5 334.099 36.5 332.78V317.032Z" fill="#51E1AD"/>
<path d="M51.5 317.5L216.5 367V390L51.5 339.5V317.5Z" fill="#51E1AD"/>
<path d="M216.5 370C216.5 368.343 217.843 367 219.5 367H507.5C509.157 367 510.5 368.343 510.5 370V387C510.5 388.657 509.157 390 507.5 390H219.5C217.843 390 216.5 388.657 216.5 387V370Z" fill="#15766A"/>
<path d="M216.5 367H287.5V390H216.5V367Z" fill="#15766A"/>
</svg>
