<svg width="924" height="631" viewBox="0 0 924 631" fill="none" xmlns="http://www.w3.org/2000/svg">
<path d="M81.2545 447.706C81.2391 445.219 83.1921 443.921 84.8872 445.292L254.773 582.617C255.653 583.329 256.217 584.601 256.225 585.892L256.417 617.935C256.432 620.444 254.446 621.735 252.748 620.319L82.8417 478.651C81.9811 477.933 81.4332 476.678 81.4254 475.406L81.2545 447.706Z" fill="#019153"/>
<path d="M81.7556 449.525C80.3609 448.398 81.1457 446.083 82.969 445.947L720.187 398.308C720.623 398.275 721.052 398.387 721.409 398.625L918.535 530.437C920.094 531.479 919.374 533.965 917.469 534.116L252.555 586.945C252.056 586.985 251.567 586.836 251.185 586.527L81.7556 449.525Z" fill="#84C87F"/>
<path d="M0.867929 41.7373C0.4085 39.359 2.14936 37.1322 4.56668 37.0061L658.555 2.89574C660.569 2.79073 662.354 4.19994 662.72 6.18375L737.01 408.541C737.448 410.91 735.709 413.114 733.305 413.24L82.7159 447.173C80.7152 447.277 78.9379 445.886 78.5577 443.917L0.867929 41.7373Z" fill="#019153"/>
<path d="M17.3708 46.1053C16.7448 42.8941 16.4318 41.2885 16.8787 40.0133C17.2384 38.9866 17.9246 38.1072 18.8329 37.5092C19.9609 36.7664 21.5933 36.6812 24.8581 36.511L654.451 3.67303C657.026 3.53872 658.314 3.47156 659.367 3.90995C660.218 4.26443 660.957 4.84635 661.5 5.59163C662.173 6.51333 662.409 7.78173 662.882 10.3185L733.507 389.439C734.102 392.631 734.399 394.227 733.947 395.493C733.583 396.513 732.897 397.384 731.992 397.977C730.868 398.713 729.247 398.798 726.007 398.967L99.6586 431.635C97.1031 431.769 95.8254 431.835 94.7777 431.402C93.9304 431.052 93.1942 430.477 92.6494 429.739C91.9757 428.827 91.7307 427.57 91.2408 425.056L17.3708 46.1053Z" fill="#84C87F"/>
<path d="M44.9939 65.0082C44.3997 62.0269 46.5781 59.2233 49.6116 59.0651L636.224 28.469C638.73 28.3383 640.955 30.0848 641.424 32.5517L706.897 376.46C707.462 379.429 705.287 382.203 702.271 382.361L118.695 412.798C116.205 412.928 113.99 411.205 113.503 408.758L44.9939 65.0082Z" fill="#06292E"/>
<path d="M251.542 589.653C251.542 588.042 252.808 586.67 254.412 586.543L919.5 533.896C921.2 533.762 922.617 535.072 922.617 536.78L922.617 564.962C922.617 566.572 921.352 567.944 919.749 568.072L254.661 621.324C252.96 621.46 251.541 620.149 251.541 618.44L251.542 589.653Z" fill="#064928"/>
<path d="M158.557 468.064C156.351 466.369 157.437 462.847 160.214 462.691L711.352 431.735C711.963 431.701 712.569 431.854 713.091 432.174L803.724 487.853C806.209 489.38 805.277 493.195 802.369 493.401L244.327 532.996C243.594 533.047 242.868 532.829 242.286 532.382L158.557 468.064Z" fill="#06292E"/>
<path d="M229.236 167.492C229.995 167.452 230.718 167.475 231.403 167.559C232.088 167.644 232.668 167.994 233.141 168.61C233.654 169.224 233.951 170.31 234.033 171.868C234.113 173.386 233.931 174.497 233.488 175.201C233.082 175.863 232.523 176.273 231.81 176.43C231.137 176.585 230.421 176.683 229.662 176.722L221.394 177.154L222.839 204.596C222.885 205.474 222.85 206.337 222.735 207.184C222.617 207.992 222.192 208.675 221.461 209.234C220.769 209.79 219.504 210.117 217.667 210.213C215.909 210.304 214.637 210.11 213.851 209.63C213.063 209.111 212.567 208.456 212.366 207.665C212.202 206.833 212.096 205.977 212.05 205.098L210.608 177.716L202.28 178.15C201.561 178.188 200.838 178.166 200.113 178.083C199.426 177.959 198.825 177.59 198.312 176.976C197.839 176.359 197.562 175.272 197.48 173.714C197.4 172.197 197.563 171.107 197.968 170.445C198.414 169.78 198.993 169.37 199.706 169.212C200.419 169.055 201.135 168.958 201.854 168.92L229.236 167.492ZM246.823 208.632C245.025 208.725 243.734 208.533 242.947 208.053C242.159 207.533 241.663 206.858 241.459 206.028C241.253 205.157 241.126 204.283 241.08 203.404L239.452 172.487C239.406 171.608 239.44 170.745 239.556 169.898C239.672 169.05 240.095 168.347 240.827 167.789C241.556 167.19 242.84 166.842 244.677 166.747L256.721 166.118C258.239 166.039 259.894 166.273 261.685 166.821C263.474 167.328 265.181 168.181 266.806 169.378C268.432 170.575 269.794 172.106 270.894 173.971C271.993 175.836 272.612 178.087 272.751 180.723C272.848 182.561 272.659 184.293 272.184 185.92C271.749 187.545 271.026 189.044 270.017 190.419C269.046 191.751 267.828 192.956 266.362 194.034C264.935 195.07 263.277 195.917 261.389 196.577L251.742 197.08L252.048 202.892C252.095 203.771 252.06 204.634 251.944 205.481C251.829 206.328 251.406 207.051 250.677 207.65C249.945 208.209 248.661 208.536 246.823 208.632ZM271.853 205.884C270.127 207.336 268.737 207.949 267.684 207.724C266.633 207.538 265.466 206.678 264.184 205.143L252.37 190.739L264.751 188.531L272.708 198.149C273.568 199.266 274.118 200.219 274.36 201.007C274.642 201.793 274.582 202.558 274.18 203.3C273.779 204.041 273.003 204.903 271.853 205.884ZM251.168 186.175L257.759 185.831C258.119 185.812 258.535 185.731 259.008 185.586C259.519 185.399 259.986 185.134 260.408 184.792C260.829 184.409 261.164 183.931 261.414 183.357C261.704 182.782 261.827 182.074 261.783 181.235C261.739 180.396 261.5 179.668 261.067 179.05C260.632 178.391 260.065 177.9 259.367 177.576C258.707 177.21 257.978 177.048 257.179 177.09L250.707 177.427L251.168 186.175ZM285.564 206.671C283.767 206.765 282.475 206.572 281.689 206.092C280.9 205.573 280.404 204.898 280.2 204.067C279.994 203.197 279.868 202.322 279.822 201.443L278.19 170.466C278.081 168.389 278.406 166.95 279.165 166.149C279.962 165.307 281.418 164.83 283.536 164.72L305.466 163.576C306.385 163.528 307.248 163.563 308.055 163.681C308.902 163.797 309.605 164.221 310.165 164.953C310.764 165.683 311.112 166.967 311.209 168.804C311.303 170.602 311.091 171.894 310.572 172.682C310.092 173.469 309.438 173.963 308.607 174.167C307.777 174.37 306.902 174.496 305.983 174.544L289.446 175.407L289.727 180.739L300.811 180.161C301.73 180.113 302.553 180.15 303.281 180.273C304.006 180.355 304.605 180.704 305.078 181.32C305.551 181.937 305.83 183.044 305.914 184.641C305.994 186.159 305.832 187.269 305.429 187.971C305.023 188.633 304.444 189.044 303.691 189.203C302.938 189.363 302.103 189.466 301.184 189.514L290.219 190.086L290.5 195.419L307.097 194.553C308.016 194.505 308.879 194.54 309.686 194.658C310.533 194.774 311.237 195.198 311.796 195.93C312.395 196.66 312.743 197.944 312.84 199.781C312.935 201.579 312.722 202.871 312.203 203.66C311.724 204.446 311.069 204.94 310.238 205.144C309.408 205.347 308.533 205.473 307.614 205.521L285.564 206.671ZM324.064 204.663C322.267 204.757 320.975 204.564 320.189 204.084C319.4 203.565 318.904 202.889 318.7 202.059C318.494 201.189 318.368 200.314 318.322 199.435L316.69 168.458C316.581 166.381 316.906 164.942 317.665 164.141C318.462 163.299 319.918 162.822 322.036 162.712L343.966 161.568C344.885 161.52 345.748 161.555 346.555 161.673C347.402 161.789 348.105 162.213 348.665 162.945C349.264 163.675 349.612 164.959 349.709 166.796C349.803 168.593 349.591 169.886 349.072 170.674C348.592 171.46 347.938 171.955 347.107 172.159C346.277 172.362 345.402 172.488 344.483 172.536L327.946 173.398L328.227 178.731L339.311 178.153C340.23 178.105 341.053 178.142 341.781 178.264C342.506 178.347 343.105 178.696 343.578 179.312C344.051 179.928 344.33 181.035 344.414 182.633C344.494 184.151 344.332 185.261 343.929 185.963C343.523 186.625 342.944 187.036 342.191 187.195C341.438 187.355 340.603 187.458 339.684 187.506L328.719 188.078L329 193.411L345.597 192.545C346.516 192.497 347.379 192.532 348.186 192.65C349.033 192.766 349.737 193.19 350.296 193.922C350.895 194.652 351.243 195.936 351.34 197.773C351.435 199.571 351.222 200.863 350.703 201.652C350.224 202.438 349.569 202.932 348.738 203.136C347.908 203.339 347.033 203.465 346.115 203.513L324.064 204.663ZM386.589 201.342C384.791 201.436 383.499 201.243 382.713 200.763C381.924 200.243 381.428 199.568 381.224 198.738C381.018 197.867 380.892 196.993 380.846 196.114L379.218 165.197C379.171 164.318 379.206 163.455 379.322 162.608C379.437 161.761 379.861 161.058 380.593 160.499C381.322 159.9 382.606 159.553 384.443 159.457C386.281 159.361 387.574 159.574 388.322 160.096C389.108 160.575 389.604 161.23 389.807 162.061C390.011 162.891 390.138 163.766 390.186 164.685L391.814 195.602C391.86 196.481 391.826 197.344 391.71 198.191C391.594 199.038 391.172 199.761 390.442 200.36C389.711 200.919 388.426 201.246 386.589 201.342ZM361.962 202.626C360.165 202.72 358.873 202.527 358.086 202.047C357.298 201.528 356.802 200.853 356.598 200.022C356.392 199.152 356.266 198.277 356.219 197.398L354.591 166.481C354.545 165.602 354.58 164.739 354.695 163.892C354.811 163.045 355.234 162.342 355.966 161.783C356.696 161.184 357.979 160.837 359.817 160.741C361.654 160.645 362.947 160.858 363.696 161.38C364.482 161.86 364.977 162.515 365.181 163.345C365.385 164.176 365.511 165.051 365.559 165.969L367.188 196.886C367.234 197.765 367.199 198.628 367.084 199.475C366.968 200.323 366.545 201.046 365.816 201.644C365.084 202.203 363.8 202.531 361.962 202.626ZM365.661 186.151L365.169 176.804L380.748 175.992L381.24 185.339L365.661 186.151ZM437.145 191.135C437.808 192.302 438.181 193.304 438.265 194.141C438.349 194.977 438.128 195.73 437.603 196.398C437.077 197.066 436.212 197.752 435.007 198.456C433.138 199.475 431.675 199.831 430.618 199.526C429.562 199.261 428.524 198.173 427.502 196.264L416.218 175.944L407.252 197.38C406.393 199.308 405.452 200.458 404.43 200.832C403.41 201.246 401.938 201.042 400.012 200.221C398.742 199.687 397.791 199.115 397.158 198.508C396.565 197.898 396.266 197.172 396.262 196.331C396.258 195.49 396.524 194.455 397.06 193.225L410.459 161.284C410.888 160.301 411.547 159.505 412.436 158.898C413.363 158.249 414.326 157.898 415.325 157.846C416.044 157.809 416.71 157.914 417.324 158.162C417.976 158.369 418.574 158.698 419.118 159.15C419.663 159.603 420.113 160.16 420.468 160.822L437.145 191.135ZM407.549 191.597L411.61 182.012L421.497 181.497L426.543 190.606L407.549 191.597ZM463.758 197.978C462.2 198.059 460.449 197.89 458.504 197.471C456.562 197.091 454.583 196.414 452.569 195.437C450.595 194.459 448.744 193.153 447.016 191.521C445.327 189.887 443.921 187.897 442.796 185.553C441.711 183.206 441.085 180.455 440.919 177.299C440.759 174.264 441.098 171.562 441.934 169.196C442.811 166.827 444.004 164.762 445.514 163.001C447.023 161.24 448.709 159.79 450.572 158.651C452.475 157.511 454.392 156.65 456.324 156.068C458.254 155.447 460.038 155.093 461.676 155.008C463.713 154.902 465.524 155.068 467.109 155.506C468.693 155.904 469.978 156.357 470.966 156.867C471.992 157.334 472.629 157.641 472.877 157.788C473.704 158.266 474.473 158.807 475.186 159.41C475.936 159.972 476.339 160.772 476.394 161.811C476.421 162.33 476.33 162.875 476.119 163.447C475.949 164.017 475.66 164.613 475.252 165.235C474.512 166.395 473.796 167.253 473.105 167.81C472.453 168.365 471.788 168.66 471.109 168.695C470.589 168.722 470.084 168.629 469.592 168.414C469.1 168.199 468.503 167.89 467.8 167.486C467.51 167.301 467.139 167.1 466.687 166.883C466.233 166.626 465.621 166.418 464.852 166.258C464.08 166.058 463.075 165.99 461.837 166.055C460.798 166.109 459.67 166.368 458.453 166.832C457.274 167.254 456.167 167.912 455.132 168.808C454.096 169.663 453.274 170.787 452.666 172.181C452.057 173.534 451.801 175.15 451.9 177.027C452.001 178.944 452.426 180.544 453.174 181.827C453.963 183.108 454.918 184.14 456.041 184.922C457.162 185.665 458.332 186.205 459.551 186.541C460.808 186.836 461.936 186.958 462.935 186.906C463.973 186.852 464.848 186.726 465.559 186.529C466.267 186.291 466.893 185.998 467.435 185.65C468.017 185.299 468.54 184.951 469.002 184.607C469.425 184.264 469.89 183.959 470.396 183.693C470.903 183.426 471.416 183.279 471.935 183.252C472.614 183.217 473.308 183.461 474.017 183.985C474.725 184.508 475.489 185.33 476.309 186.448C476.784 187.105 477.138 187.727 477.369 188.316C477.638 188.863 477.785 189.376 477.81 189.855C477.863 190.854 477.546 191.671 476.858 192.308C476.211 192.942 475.5 193.52 474.726 194.041C474.455 194.216 473.875 194.606 472.986 195.213C472.096 195.821 470.885 196.404 469.353 196.965C467.82 197.526 465.955 197.863 463.758 197.978ZM489.244 196.048C487.446 196.142 486.154 195.949 485.368 195.469C484.579 194.949 484.083 194.274 483.879 193.444C483.673 192.573 483.547 191.699 483.501 190.82L481.869 159.843C481.823 158.964 481.858 158.101 481.973 157.254C482.089 156.407 482.513 155.704 483.244 155.145C483.974 154.546 485.257 154.199 487.095 154.103C488.932 154.007 490.225 154.22 490.974 154.742C491.76 155.221 492.255 155.876 492.459 156.707C492.663 157.537 492.789 158.412 492.838 159.331L493.273 167.599L503.071 155.132C503.937 154.085 504.759 153.342 505.537 152.901C506.315 152.459 507.13 152.337 507.981 152.533C508.833 152.729 509.783 153.28 510.832 154.186C512.548 155.579 513.455 156.833 513.554 157.95C513.653 159.066 513.061 160.379 511.778 161.888L500.665 174.484L513.091 185.672C514.647 187.072 515.396 188.375 515.34 189.58C515.321 190.742 514.528 192.045 512.962 193.489C511.814 194.51 510.827 195.162 510.001 195.446C509.174 195.729 508.39 195.67 507.648 195.268C506.908 194.906 506.071 194.229 505.138 193.236L494.024 181.86L494.469 190.308C494.515 191.187 494.481 192.05 494.365 192.897C494.249 193.744 493.827 194.467 493.097 195.066C492.366 195.625 491.081 195.952 489.244 196.048ZM535.813 194.22C533.376 194.347 531.283 194.156 529.534 193.646C527.825 193.134 526.41 192.507 525.289 191.764C524.166 190.982 523.307 190.266 522.712 189.616C522.117 188.966 521.756 188.564 521.628 188.411C520.776 187.454 520.229 186.581 519.988 185.793C519.786 185.002 519.863 184.197 520.221 183.377C520.618 182.555 521.291 181.639 522.239 180.628C523.112 179.702 523.985 179.175 524.86 179.05C525.732 178.884 526.601 179.019 527.465 179.454C528.369 179.888 529.244 180.543 530.092 181.42C531.107 182.449 531.965 183.145 532.665 183.509C533.363 183.833 534.151 183.972 535.03 183.926C536.109 183.87 536.981 183.705 537.648 183.429C538.312 183.114 538.79 182.689 539.083 182.153C539.373 181.577 539.496 180.87 539.452 180.031C539.416 179.352 539.049 178.85 538.351 178.526C537.651 178.162 536.734 177.869 535.601 177.648C534.508 177.425 533.274 177.189 531.899 176.94C530.521 176.651 529.159 176.262 527.811 175.771C526.996 175.494 526.196 175.135 525.412 174.695C524.627 174.255 523.88 173.753 523.169 173.19C522.496 172.584 521.898 171.874 521.375 171.06C520.849 170.206 520.418 169.248 520.082 168.184C519.785 167.118 519.601 165.906 519.53 164.548C519.401 162.111 519.886 159.903 520.983 157.923C522.121 155.941 523.719 154.335 525.777 153.107C527.875 151.876 530.282 151.189 532.998 151.048C534.956 150.946 536.642 151.018 538.057 151.264C539.472 151.511 540.63 151.831 541.532 152.225C542.474 152.616 543.195 152.999 543.696 153.374C544.194 153.708 544.506 153.932 544.632 154.046C546.014 155.175 546.787 156.176 546.953 157.049C547.117 157.882 546.702 159.125 545.708 160.779C544.6 162.559 543.473 163.599 542.327 163.899C541.179 164.159 539.821 163.85 538.253 162.97C537.921 162.747 537.587 162.504 537.253 162.241C536.917 161.938 536.464 161.702 535.894 161.531C535.362 161.319 534.557 161.24 533.478 161.297C533.079 161.317 532.683 161.418 532.292 161.599C531.899 161.739 531.569 161.937 531.302 162.191C531.033 162.405 530.807 162.678 530.624 163.008C530.481 163.335 530.419 163.679 530.438 164.039C530.482 164.877 530.837 165.52 531.501 165.966C532.163 166.372 533.02 166.668 534.071 166.853C535.162 167.037 536.353 167.215 537.644 167.388C538.935 167.561 540.25 167.813 541.589 168.143C542.687 168.447 543.75 168.852 544.778 169.359C545.806 169.866 546.722 170.539 547.528 171.378C548.333 172.218 548.99 173.285 549.499 174.58C550.045 175.833 550.368 177.399 550.467 179.276C550.604 181.873 550.221 184.115 549.319 186.005C548.415 187.855 547.194 189.38 545.655 190.582C544.154 191.742 542.517 192.608 540.745 193.181C539.015 193.792 537.371 194.138 535.813 194.22ZM316.174 278.294C314.696 278.371 313.389 277.879 312.251 276.816C311.114 275.754 310.506 274.484 310.428 273.006C310.388 272.247 310.43 271.524 310.554 270.837C310.718 270.147 310.944 269.494 311.232 268.879C311.518 268.223 311.867 267.624 312.279 267.082C313.248 265.709 314.464 264.444 315.925 263.287C317.386 262.129 318.91 261.028 320.497 259.984C322.085 258.94 323.572 257.901 324.96 256.867C326.347 255.834 327.451 254.735 328.271 253.57C329.131 252.404 329.525 251.142 329.453 249.784C329.432 249.384 329.306 248.89 329.075 248.301C328.881 247.671 328.453 247.132 327.788 246.686C327.122 246.2 326.089 245.994 324.691 246.067C323.852 246.11 323.14 246.268 322.553 246.539C321.964 246.77 321.502 247.114 321.166 247.572C320.827 247.991 320.575 248.524 320.409 249.174C320.281 249.781 320.237 250.485 320.28 251.284C320.324 252.122 320.287 252.945 320.169 253.753C320.049 254.52 319.624 255.183 318.892 255.742C318.158 256.261 316.873 256.568 315.035 256.664C313.238 256.758 311.946 256.565 311.159 256.085C310.371 255.565 309.875 254.89 309.671 254.06C309.465 253.189 309.339 252.315 309.292 251.436C309.196 249.599 309.438 247.743 310.021 245.871C310.643 243.996 311.594 242.284 312.875 240.735C314.153 239.146 315.726 237.842 317.595 236.824C319.464 235.805 321.617 235.232 324.054 235.105C326.97 234.953 329.644 235.534 332.077 236.849C334.507 238.125 336.485 239.924 338.009 242.248C339.531 244.532 340.37 247.151 340.526 250.107C340.629 252.065 340.403 253.859 339.848 255.49C339.293 257.121 338.53 258.603 337.558 259.935C336.625 261.226 335.603 262.36 334.493 263.34C333.381 264.279 332.301 265.076 331.254 265.731C330.205 266.347 329.329 266.813 328.624 267.13C327.92 267.447 327.488 267.61 327.328 267.619L327.877 266.629L337.344 266.135C338.263 266.087 339.146 266.121 339.993 266.237C340.84 266.353 341.545 266.797 342.106 267.569C342.665 268.301 342.993 269.585 343.09 271.423C343.183 273.18 342.97 274.473 342.453 275.301C341.974 276.087 341.299 276.583 340.429 276.789C339.598 276.992 338.724 277.118 337.805 277.166L316.174 278.294ZM363.389 276.492C360.593 276.638 358.191 276.283 356.183 275.426C354.213 274.528 352.587 273.311 351.304 271.775C350.022 270.24 348.991 268.531 348.211 266.65C347.47 264.766 346.93 262.871 346.589 260.966C346.247 259.021 346.033 257.25 345.949 255.652C345.873 254.214 345.906 252.55 346.047 250.661C346.188 248.771 346.507 246.851 347.005 244.903C347.541 242.912 348.365 241.067 349.478 239.367C350.588 237.626 352.075 236.207 353.94 235.108C355.843 233.968 358.192 233.324 360.988 233.179C363.704 233.037 366.028 233.416 367.958 234.317C369.928 235.216 371.535 236.454 372.78 238.031C374.062 239.566 375.074 241.296 375.817 243.22C376.597 245.102 377.157 246.995 377.498 248.9C377.838 250.805 378.049 252.516 378.129 254.034C378.213 255.632 378.167 257.417 377.99 259.389C377.851 261.318 377.493 263.26 376.915 265.212C376.377 267.163 375.55 268.969 374.436 270.629C373.362 272.287 371.911 273.645 370.084 274.701C368.297 275.756 366.066 276.353 363.389 276.492ZM362.569 265.48C363.608 265.426 364.434 265.142 365.048 264.63C365.659 264.077 366.124 263.392 366.442 262.574C366.759 261.757 366.973 260.884 367.085 259.957C367.194 258.99 367.246 258.066 367.239 257.186C367.231 256.265 367.21 255.485 367.176 254.846L367.16 254.546C367.038 252.229 366.737 250.302 366.255 248.765C365.811 247.186 365.189 246.017 364.388 245.258C363.625 244.457 362.664 244.086 361.506 244.147C360.307 244.209 359.35 244.659 358.633 245.498C357.916 246.336 357.42 247.564 357.144 249.181C356.869 250.797 356.793 252.784 356.917 255.14C357.037 257.417 357.319 259.345 357.763 260.924C358.244 262.461 358.887 263.629 359.69 264.429C360.491 265.188 361.45 265.538 362.569 265.48ZM388.786 274.507C387.308 274.584 386 274.091 384.863 273.029C383.725 271.967 383.118 270.697 383.04 269.219C383 268.46 383.042 267.737 383.166 267.049C383.33 266.36 383.556 265.707 383.844 265.091C384.13 264.436 384.479 263.837 384.891 263.294C385.86 261.922 387.075 260.657 388.536 259.499C389.997 258.342 391.522 257.241 393.109 256.197C394.696 255.153 396.184 254.114 397.571 253.08C398.959 252.046 400.062 250.947 400.882 249.783C401.742 248.617 402.136 247.355 402.065 245.996C402.044 245.597 401.918 245.103 401.686 244.514C401.493 243.883 401.064 243.345 400.4 242.899C399.733 242.413 398.701 242.206 397.303 242.279C396.464 242.323 395.751 242.481 395.165 242.751C394.576 242.982 394.113 243.327 393.777 243.785C393.439 244.203 393.186 244.737 393.02 245.387C392.892 245.994 392.849 246.697 392.891 247.496C392.935 248.335 392.898 249.158 392.781 249.965C392.661 250.733 392.235 251.396 391.504 251.955C390.77 252.474 389.484 252.781 387.647 252.877C385.849 252.971 384.557 252.778 383.771 252.298C382.982 251.778 382.486 251.103 382.282 250.273C382.076 249.402 381.95 248.528 381.904 247.649C381.807 245.811 382.05 243.956 382.632 242.083C383.254 240.208 384.206 238.496 385.486 236.948C386.764 235.359 388.338 234.055 390.207 233.036C392.076 232.018 394.229 231.445 396.665 231.318C399.581 231.166 402.256 231.747 404.688 233.062C407.119 234.337 409.096 236.137 410.62 238.461C412.143 240.744 412.981 243.364 413.137 246.32C413.24 248.277 413.014 250.072 412.459 251.703C411.904 253.334 411.141 254.816 410.17 256.148C409.236 257.438 408.215 258.573 407.105 259.552C405.992 260.492 404.913 261.289 403.866 261.944C402.817 262.56 401.94 263.026 401.236 263.343C400.532 263.66 400.1 263.823 399.94 263.831L400.488 262.841L409.956 262.348C410.874 262.3 411.757 262.334 412.605 262.45C413.452 262.566 414.156 263.01 414.718 263.782C415.277 264.513 415.605 265.798 415.702 267.636C415.794 269.393 415.582 270.686 415.065 271.514C414.585 272.3 413.91 272.796 413.04 273.001C412.21 273.205 411.335 273.331 410.416 273.379L388.786 274.507ZM433.005 272.861C431.127 272.959 429.458 272.826 427.997 272.462C426.538 272.137 425.294 271.721 424.266 271.214C423.278 270.705 422.514 270.264 421.973 269.892C421.471 269.478 421.22 269.27 421.22 269.27C420.593 268.782 420.025 268.271 419.517 267.737C419.046 267.161 418.79 266.493 418.75 265.734C418.717 265.095 418.863 264.447 419.189 263.789C419.512 263.091 420.034 262.343 420.753 261.544C421.316 260.834 421.889 260.303 422.471 259.952C423.092 259.56 423.721 259.347 424.36 259.313C424.959 259.282 425.567 259.41 426.183 259.699C426.837 259.945 427.622 260.405 428.539 261.078C428.539 261.078 428.643 261.153 428.851 261.302C429.099 261.449 429.467 261.59 429.955 261.725C430.483 261.858 431.186 261.901 432.065 261.855C432.904 261.812 433.595 261.635 434.14 261.327C434.724 261.016 435.144 260.613 435.398 260.119C435.69 259.583 435.817 258.956 435.78 258.237C435.744 257.558 435.552 256.967 435.206 256.464C434.859 255.962 434.398 255.585 433.824 255.335C433.248 255.044 432.601 254.918 431.882 254.956C431.402 254.981 430.986 255.062 430.633 255.201C430.319 255.337 430.067 255.491 429.876 255.661C429.722 255.789 429.627 255.874 429.589 255.916C429.208 256.297 428.767 256.66 428.264 257.007C427.76 257.313 427.108 257.488 426.309 257.529C425.71 257.561 425.086 257.493 424.436 257.327C423.786 257.16 423.091 256.896 422.351 256.534C421.037 255.922 420.107 255.369 419.56 254.877C419.054 254.383 418.784 253.816 418.75 253.177L420.071 236.045C420.119 235.442 420.241 234.714 420.437 233.863C420.63 232.972 421.089 232.187 421.815 231.508C422.538 230.789 423.698 230.388 425.296 230.305L439.021 229.649C439.939 229.601 440.802 229.637 441.61 229.755C442.457 229.871 443.161 230.315 443.723 231.086C444.322 231.816 444.671 233.12 444.77 234.997C444.86 236.715 444.666 237.967 444.187 238.753C443.745 239.497 443.129 239.969 442.339 240.171C441.546 240.332 440.73 240.435 439.891 240.479L430.664 240.96L430.412 244.157C430.529 244.111 430.648 244.085 430.768 244.079C430.888 244.073 430.988 244.067 431.068 244.063C431.185 244.017 431.304 243.991 431.424 243.984L431.724 243.969C433.601 243.871 435.419 244.157 437.176 244.826C438.932 245.455 440.503 246.395 441.891 247.644C443.319 248.892 444.456 250.334 445.303 251.972C446.191 253.608 446.684 255.365 446.782 257.243C446.93 260.039 446.423 262.588 445.263 264.892C444.102 267.196 442.458 269.064 440.33 270.497C438.203 271.929 435.761 272.718 433.005 272.861Z" fill="#FCF8B8"/>
</svg>
