<svg width="2829" height="3151" viewBox="0 0 2829 3151" fill="none" xmlns="http://www.w3.org/2000/svg">
<path d="M1314.1 2237.12C1314.1 2237.12 1377.5 2081.16 1491.69 1999.72C1632.91 1899.01 1613.65 1931.38 1733.47 1821.68C1803.08 1757.95 1823.34 1638.23 1823.34 1638.23" stroke="#15766A" stroke-width="204.383" stroke-linecap="round"/>
<path d="M1314.1 1907.18C1314.1 1907.18 1253.83 1767.1 1145.27 1693.95C1011.01 1603.49 1029.32 1632.56 915.409 1534.03C849.235 1476.78 829.975 1369.26 829.975 1369.26" stroke="#15766A" stroke-width="204.383" stroke-linecap="round"/>
<path d="M1208.27 3048.35V3150.54H1412.65V3048.35H1208.27ZM1412.65 1243.75C1412.65 1187.31 1366.9 1141.55 1310.46 1141.55C1254.02 1141.55 1208.27 1187.31 1208.27 1243.75H1412.65ZM1412.65 3048.35V1243.75H1208.27V3048.35H1412.65Z" fill="#15766A"/>
<circle cx="335.602" cy="1036.05" r="285.123" fill="#0DBC93"/>
<circle cx="1109.11" cy="488.386" r="488.38" fill="#51DF9B"/>
<circle cx="1794.55" cy="1161.4" r="214.548" fill="#51DF9B"/>
<circle cx="2030.93" cy="584.847" r="259.716" fill="#0DBC93"/>
<circle cx="2280.64" cy="1970.46" r="259.716" fill="#0DBC93"/>
<path d="M660.587 1800.25C660.587 1982.67 512.71 2130.55 330.295 2130.55C147.88 2130.55 0.00390625 1982.67 0.00390625 1800.25C0.00390625 1617.84 147.88 1469.96 330.295 1469.96C512.71 1469.96 660.587 1617.84 660.587 1800.25Z" fill="#51DF9B"/>
<path d="M2829 1272.7C2829 1456.67 2679.86 1605.81 2495.88 1605.81C2311.91 1605.81 2162.77 1456.67 2162.77 1272.7C2162.77 1088.72 2311.91 939.583 2495.88 939.583C2679.86 939.583 2829 1088.72 2829 1272.7Z" fill="#51DF9B"/>
<path d="M1041.04 2070.63C1041.04 2151.7 975.321 2217.42 894.247 2217.42C813.174 2217.42 747.451 2151.7 747.451 2070.63C747.451 1989.55 813.174 1923.83 894.247 1923.83C975.321 1923.83 1041.04 1989.55 1041.04 2070.63Z" fill="#51DF9B"/>
</svg>
