<?xml version="1.0" encoding="UTF-8"?>
<svg width="626px" height="69px" viewBox="0 0 626 69" version="1.1" xmlns="http://www.w3.org/2000/svg" xmlns:xlink="http://www.w3.org/1999/xlink">
    <!-- Generator: Sketch 51.2 (57519) - http://www.bohemiancoding.com/sketch -->
    <title>Artboard 4</title>
    <desc>Created with Sketch.</desc>
    <defs></defs>
    <g id="Artboard-4" stroke="none" stroke-width="1" fill="none" fill-rule="evenodd">
        <g id="Group-4" transform="translate(20.000000, 21.000000)" stroke="#00E174" stroke-width="3">
            <path d="M168,15.2008064 L273.5,15.2008064" id="Stroke-49" stroke-linecap="round"></path>
            <path d="M30,15.2008064 L135.5,15.2008064" id="Stroke-49" stroke-linecap="round"></path>
            <path d="M444,15.2008064 L549.5,15.2008064" id="Stroke-49" stroke-linecap="round"></path>
            <path d="M308,15.2008064 L413.5,15.2008064" id="Stroke-49" stroke-linecap="round"></path>
            <path d="M30,15.0012422 C30,23.284472 23.284472,30 15.0012422,30 C6.71552795,30 0,23.284472 0,15.0012422 C0,6.71552795 6.71552795,0 15.0012422,0 C23.284472,0 30,6.71552795 30,15.0012422 Z" id="Stroke-230"></path>
            <path d="M168,15.0012422 C168,23.284472 161.284472,30 153.001242,30 C144.715528,30 138,23.284472 138,15.0012422 C138,6.71552795 144.715528,0 153.001242,0 C161.284472,0 168,6.71552795 168,15.0012422 Z" id="Stroke-230"></path>
            <path d="M306,15.0012422 C306,23.284472 299.284472,30 291.001242,30 C282.715528,30 276,23.284472 276,15.0012422 C276,6.71552795 282.715528,0 291.001242,0 C299.284472,0 306,6.71552795 306,15.0012422 Z" id="Stroke-230"></path>
            <path d="M444,15.0012422 C444,23.284472 437.284472,30 429.001242,30 C420.715528,30 414,23.284472 414,15.0012422 C414,6.71552795 420.715528,0 429.001242,0 C437.284472,0 444,6.71552795 444,15.0012422 Z" id="Stroke-230"></path>
            <path d="M580,15.0012422 C580,23.284472 573.284472,30 565.001242,30 C556.715528,30 550,23.284472 550,15.0012422 C550,6.71552795 556.715528,0 565.001242,0 C573.284472,0 580,6.71552795 580,15.0012422 Z" id="Stroke-230"></path>
        </g>
    </g>
</svg>