<?xml version="1.0" encoding="UTF-8"?>
<svg width="295px" height="336px" viewBox="0 0 295 336" version="1.1" xmlns="http://www.w3.org/2000/svg" xmlns:xlink="http://www.w3.org/1999/xlink">
    <!-- Generator: Sketch 51.2 (57519) - http://www.bohemiancoding.com/sketch -->
    <title>Artboard 2</title>
    <desc>Created with Sketch.</desc>
    <defs></defs>
    <g id="Artboard-2" stroke="none" stroke-width="1" fill="none" fill-rule="evenodd">
        <g id="Group-33" transform="translate(18.000000, 21.000000)" stroke="#00E174" stroke-width="5">
            <path d="M214.8125,256.5 L37.8125,256.5 C31.2125,256.5 25.8125,251.1 25.8125,244.5 L25.8125,12.5 C25.8125,5.9 31.2125,0.5 37.8125,0.5 L214.8125,0.5 C221.4125,0.5 226.8125,5.9 226.8125,12.5 L226.8125,244.5 C226.8125,251.1 221.4125,256.5 214.8125,256.5 Z" id="Stroke-1"></path>
            <path d="M15.6289,119.5 L10.6839,119.5 C5.0829,119.5 0.4999,114.917 0.4999,109.316 L0.4999,64.416 C0.4999,58.814 5.0829,54.232 10.6839,54.232 L15.6289,54.232 C21.2299,54.232 25.8129,58.814 25.8129,64.416 L25.8129,109.316 C25.8129,114.917 21.2299,119.5 15.6289,119.5 Z" id="Stroke-3"></path>
            <path d="M25.8125,39.5 L226.8125,39.5" id="Stroke-5"></path>
            <path d="M25.8125,194.5 L226.8125,194.5" id="Stroke-7"></path>
            <path d="M126.3125,39.5 L126.3125,194.5" id="Stroke-9"></path>
            <path d="M82.8125,241.5 L52.8125,241.5 C46.2125,241.5 40.8125,236.1 40.8125,229.5 L40.8125,222.5 C40.8125,215.9 46.2125,210.5 52.8125,210.5 L82.8125,210.5 C89.4125,210.5 94.8125,215.9 94.8125,222.5 L94.8125,229.5 C94.8125,236.1 89.4125,241.5 82.8125,241.5 Z" id="Stroke-11"></path>
            <path d="M200.8125,241.5 L173.8125,241.5 C167.2125,241.5 161.8125,236.1 161.8125,229.5 L161.8125,222.5 C161.8125,215.9 167.2125,210.5 173.8125,210.5 L200.8125,210.5 C207.4125,210.5 212.8125,215.9 212.8125,222.5 L212.8125,229.5 C212.8125,236.1 207.4125,241.5 200.8125,241.5 Z" id="Stroke-13"></path>
            <path d="M49.8125,112.5 L94.8125,68.5" id="Stroke-15" stroke-linecap="round"></path>
            <path d="M45.8125,82.5 L67.8125,60.5" id="Stroke-17" stroke-linecap="round"></path>
            <path d="M51.8125,171 L109.8125,171" id="Stroke-19" stroke-linecap="round"></path>
            <path d="M148.8125,171 L202.8125,171" id="Stroke-21" stroke-linecap="round"></path>
            <path d="M56.8125,194.5 C56.8125,181.511 63.7455,171 72.3125,171" id="Stroke-23"></path>
            <path d="M198.3125,194.5 C198.3125,181.511 191.3795,171 182.8125,171" id="Stroke-25"></path>
            <path d="M241.9414,119.5 L236.9964,119.5 C231.3954,119.5 226.8124,114.917 226.8124,109.316 L226.8124,64.416 C226.8124,58.814 231.3954,54.232 236.9964,54.232 L241.9414,54.232 C247.5424,54.232 252.1254,58.814 252.1254,64.416 L252.1254,109.316 C252.1254,114.917 247.5424,119.5 241.9414,119.5 Z" id="Stroke-27"></path>
            <path d="M83.2188,256.5 L83.2188,287.918 C83.2188,293.188 77.6548,297.5 70.8548,297.5 L58.2708,297.5 C51.4698,297.5 45.9058,293.188 45.9058,287.918 L45.9058,256.5" id="Stroke-29"></path>
            <path d="M209.2187,256.5 L209.2187,287.918 C209.2187,293.188 203.6547,297.5 196.8547,297.5 L184.2707,297.5 C177.4697,297.5 171.9057,293.188 171.9057,287.918 L171.9057,256.5" id="Stroke-31"></path>
        </g>
    </g>
</svg>