<?xml version="1.0" encoding="UTF-8"?>
<svg width="429px" height="557px" viewBox="0 0 429 557" version="1.1" xmlns="http://www.w3.org/2000/svg" xmlns:xlink="http://www.w3.org/1999/xlink">
    <!-- Generator: Sketch 51.2 (57519) - http://www.bohemiancoding.com/sketch -->
    <title>Artboard</title>
    <desc>Created with Sketch.</desc>
    <defs></defs>
    <g id="Artboard" stroke="none" stroke-width="1" fill="none" fill-rule="evenodd">
        <g id="Circuit" transform="translate(212.000000, 280.000000) rotate(-90.089039) translate(-212.000000, -280.000000) translate(-39.000000, 94.000000)" stroke="#6D727C" stroke-width="3">
            <path d="M26.9727864,2.99728927 L26.9727864,145.523289" id="Stroke-1" stroke-linecap="round"></path>
            <path d="M46.9727864,148.523289 L46.9727864,245.523289" id="Stroke-3" stroke-linecap="round"></path>
            <path d="M46.9727864,18.5232893 L46.9727864,96.5232893" id="Stroke-4" stroke-linecap="round"></path>
            <path d="M67.9727864,2.52328927 L67.9727864,72.5232893" id="Stroke-5" stroke-linecap="round"></path>
            <path d="M66.9727864,122.523289 L66.9727864,177.523289" id="Stroke-6" stroke-linecap="round"></path>
            <path d="M103.472786,142.023289 L179.972786,142.023289" id="Stroke-19" stroke-linecap="round"></path>
            <path d="M179.972786,142.023289 L192.972786,156.023289" id="Stroke-21" stroke-linecap="round"></path>
            <path d="M103.472786,164.023289 L172.972786,164.023289" id="Stroke-22" stroke-linecap="round"></path>
            <path d="M172.972786,164.023289 L185.972786,178.023289" id="Stroke-24" stroke-linecap="round"></path>
            <path d="M103.472786,185.023289 L165.972786,185.023289" id="Stroke-25" stroke-linecap="round"></path>
            <path d="M165.972786,185.023289 L178.972786,199.023289" id="Stroke-27" stroke-linecap="round"></path>
            <path d="M103.472786,205.023289 L155.972786,205.023289" id="Stroke-28" stroke-linecap="round"></path>
            <path d="M167.972786,219.023289 L155.972786,205.023289" id="Stroke-29" stroke-linecap="round"></path>
            <path d="M167.972786,219.023289 L179.972786,219.023289" id="Stroke-30" stroke-linecap="round"></path>
            <path d="M179.972786,297.980779 L179.972786,219.023289" id="Stroke-31" stroke-linecap="round"></path>
            <path d="M53.0477864,12.0612893 C53.0477864,15.3952893 50.3447864,18.0982893 47.0107864,18.0982893 C43.6757864,18.0982893 40.9727864,15.3952893 40.9727864,12.0612893 C40.9727864,8.72628927 43.6757864,6.02328927 47.0107864,6.02328927 C50.3447864,6.02328927 53.0477864,8.72628927 53.0477864,12.0612893 Z" id="Stroke-210"></path>
            <path d="M53.0477864,103.060289 C53.0477864,106.395289 50.3447864,109.097289 47.0107864,109.097289 C43.6757864,109.097289 40.9727864,106.395289 40.9727864,103.060289 C40.9727864,99.7262893 43.6757864,97.0232893 47.0107864,97.0232893 C50.3447864,97.0232893 53.0477864,99.7262893 53.0477864,103.060289 Z" id="Stroke-214"></path>
            <path d="M33.0477864,152.060289 C33.0477864,155.394289 30.3447864,158.097289 27.0107864,158.097289 C23.6757864,158.097289 20.9727864,155.394289 20.9727864,152.060289 C20.9727864,148.726289 23.6757864,146.023289 27.0107864,146.023289 C30.3447864,146.023289 33.0477864,148.726289 33.0477864,152.060289 Z" id="Stroke-218"></path>
            <path d="M73.0477864,79.0602893 C73.0477864,82.3942893 70.3447864,85.0972893 67.0107864,85.0972893 C63.6757864,85.0972893 60.9727864,82.3942893 60.9727864,79.0602893 C60.9727864,75.7252893 63.6757864,73.0232893 67.0107864,73.0232893 C70.3447864,73.0232893 73.0477864,75.7252893 73.0477864,79.0602893 Z" id="Stroke-222"></path>
            <path d="M53.0477864,142.060289 C53.0477864,145.394289 50.3447864,148.097289 47.0107864,148.097289 C43.6757864,148.097289 40.9727864,145.394289 40.9727864,142.060289 C40.9727864,138.726289 43.6757864,136.023289 47.0107864,136.023289 C50.3447864,136.023289 53.0477864,138.726289 53.0477864,142.060289 Z" id="Stroke-226"></path>
            <path d="M53.0477864,252.061289 C53.0477864,255.395289 50.3447864,258.098289 47.0107864,258.098289 C43.6757864,258.098289 40.9727864,255.395289 40.9727864,252.061289 C40.9727864,248.726289 43.6757864,246.023289 47.0107864,246.023289 C50.3447864,246.023289 53.0477864,248.726289 53.0477864,252.061289 Z" id="Stroke-230"></path>
            <path d="M73.0477864,116.060289 C73.0477864,119.394289 70.3447864,122.097289 67.0107864,122.097289 C63.6757864,122.097289 60.9727864,119.394289 60.9727864,116.060289 C60.9727864,112.726289 63.6757864,110.023289 67.0107864,110.023289 C70.3447864,110.023289 73.0477864,112.726289 73.0477864,116.060289 Z" id="Stroke-234"></path>
            <path d="M73.0477864,184.061289 C73.0477864,187.395289 70.3447864,190.098289 67.0107864,190.098289 C63.6757864,190.098289 60.9727864,187.395289 60.9727864,184.061289 C60.9727864,180.726289 63.6757864,178.023289 67.0107864,178.023289 C70.3447864,178.023289 73.0477864,180.726289 73.0477864,184.061289 Z" id="Stroke-238"></path>
            <path d="M206.047786,365.060289 C206.047786,368.394289 203.344786,371.097289 200.010786,371.097289 C196.675786,371.097289 193.972786,368.394289 193.972786,365.060289 C193.972786,361.725289 196.675786,359.023289 200.010786,359.023289 C203.344786,359.023289 206.047786,361.725289 206.047786,365.060289 Z" id="Stroke-242"></path>
            <path d="M103.047786,142.060289 C103.047786,145.394289 100.344786,148.097289 97.0107864,148.097289 C93.6757864,148.097289 90.9727864,145.394289 90.9727864,142.060289 C90.9727864,138.726289 93.6757864,136.023289 97.0107864,136.023289 C100.344786,136.023289 103.047786,138.726289 103.047786,142.060289 Z" id="Stroke-246"></path>
            <path d="M103.047786,164.060289 C103.047786,167.395289 100.344786,170.098289 97.0107864,170.098289 C93.6757864,170.098289 90.9727864,167.395289 90.9727864,164.060289 C90.9727864,160.726289 93.6757864,158.023289 97.0107864,158.023289 C100.344786,158.023289 103.047786,160.726289 103.047786,164.060289 Z" id="Stroke-250"></path>
            <path d="M103.047786,184.061289 C103.047786,187.395289 100.344786,190.098289 97.0107864,190.098289 C93.6757864,190.098289 90.9727864,187.395289 90.9727864,184.061289 C90.9727864,180.726289 93.6757864,178.023289 97.0107864,178.023289 C100.344786,178.023289 103.047786,180.726289 103.047786,184.061289 Z" id="Stroke-254"></path>
            <path d="M103.047786,205.060289 C103.047786,208.394289 100.344786,211.097289 97.0107864,211.097289 C93.6757864,211.097289 90.9727864,208.394289 90.9727864,205.060289 C90.9727864,201.726289 93.6757864,199.023289 97.0107864,199.023289 C100.344786,199.023289 103.047786,201.726289 103.047786,205.060289 Z" id="Stroke-258"></path>
            <path d="M185.047786,304.061289 C185.047786,307.395289 182.344786,310.098289 179.010786,310.098289 C175.675786,310.098289 172.972786,307.395289 172.972786,304.061289 C172.972786,300.726289 175.675786,298.023289 179.010786,298.023289 C182.344786,298.023289 185.047786,300.726289 185.047786,304.061289 Z" id="Stroke-286"></path>
            <polygon id="Stroke-324" points="95.9727864 122.100289 128.050786 122.100289 128.050786 90.0232893 95.9727864 90.0232893"></polygon>
            <polygon id="Stroke-326" points="104.972786 113.350289 119.299786 113.350289 119.299786 99.0232893 104.972786 99.0232893"></polygon>
            <polygon id="Stroke-327" points="88.9727864 119.319289 95.4917864 119.319289 95.4917864 110.023289 88.9727864 110.023289"></polygon>
            <polygon id="Stroke-328" points="128.972786 103.320289 135.491786 103.320289 135.491786 94.0232893 128.972786 94.0232893"></polygon>
            <polygon id="Stroke-329" points="88.9727864 103.320289 95.4917864 103.320289 95.4917864 94.0232893 88.9727864 94.0232893"></polygon>
            <polygon id="Stroke-330" points="128.972786 119.319289 135.491786 119.319289 135.491786 110.023289 128.972786 110.023289"></polygon>
            <polygon id="Stroke-331" points="161.972786 122.101289 194.050786 122.101289 194.050786 90.0232893 161.972786 90.0232893"></polygon>
            <polygon id="Stroke-332" points="170.972786 113.350289 185.299786 113.350289 185.299786 99.0232893 170.972786 99.0232893"></polygon>
            <polygon id="Stroke-333" points="154.972786 119.319289 161.491786 119.319289 161.491786 110.023289 154.972786 110.023289"></polygon>
            <polygon id="Stroke-335" points="154.972786 103.320289 161.491786 103.320289 161.491786 94.0232893 154.972786 94.0232893"></polygon>
            <polygon id="Stroke-337" points="95.9727864 70.1002893 128.050786 70.1002893 128.050786 38.0232893 95.9727864 38.0232893"></polygon>
            <polygon id="Stroke-338" points="104.972786 61.3502893 119.299786 61.3502893 119.299786 47.0232893 104.972786 47.0232893"></polygon>
            <polygon id="Stroke-339" points="88.9727864 67.3192893 95.4917864 67.3192893 95.4917864 58.0232893 88.9727864 58.0232893"></polygon>
            <polygon id="Stroke-340" points="128.972786 51.3202893 135.491786 51.3202893 135.491786 42.0232893 128.972786 42.0232893"></polygon>
            <polygon id="Stroke-341" points="88.9727864 51.3202893 95.4917864 51.3202893 95.4917864 42.0232893 88.9727864 42.0232893"></polygon>
            <polygon id="Stroke-342" points="128.972786 67.3192893 135.491786 67.3192893 135.491786 58.0232893 128.972786 58.0232893"></polygon>
            <polygon id="Stroke-343" points="161.972786 70.1002893 194.050786 70.1002893 194.050786 38.0232893 161.972786 38.0232893"></polygon>
            <polygon id="Stroke-344" points="169.972786 61.3502893 184.299786 61.3502893 184.299786 47.0232893 169.972786 47.0232893"></polygon>
            <polygon id="Stroke-345" points="154.972786 67.3192893 161.491786 67.3192893 161.491786 58.0232893 154.972786 58.0232893"></polygon>
            <polygon id="Stroke-347" points="154.972786 51.3202893 161.491786 51.3202893 161.491786 42.0232893 154.972786 42.0232893"></polygon>
            <polygon id="Stroke-349" points="95.9727864 18.0232893 128.050786 18.0232893 128.050786 1.02328927 95.9727864 1.02328927"></polygon>
            <polygon id="Stroke-350" points="103.972786 9.02328927 118.299786 9.02328927 118.299786 2.02328927 103.972786 2.02328927"></polygon>
            <polygon id="Stroke-351" points="88.9727864 15.3202893 95.4917864 15.3202893 95.4917864 6.02328927 88.9727864 6.02328927"></polygon>
            <polygon id="Stroke-354" points="127.972786 15.3202893 134.491786 15.3202893 134.491786 6.02328927 127.972786 6.02328927"></polygon>
            <polygon id="Stroke-355" points="161.972786 18.0232893 194.050786 18.0232893 194.050786 1.02328927 161.972786 1.02328927"></polygon>
            <polygon id="Stroke-356" points="169.972786 9.02328927 184.299786 9.02328927 184.299786 2.02328927 169.972786 2.02328927"></polygon>
            <polygon id="Stroke-357" points="154.972786 15.3202893 161.491786 15.3202893 161.491786 6.02328927 154.972786 6.02328927"></polygon>
            <path d="M220.972786,2.69158927 L220.972786,76.5232893" id="Stroke-11" stroke-linecap="round"></path>
            <path d="M241.972786,2.69158927 L241.972786,136.523289" id="Stroke-13" stroke-linecap="round"></path>
            <path d="M262.972786,2.69158927 L262.972786,135.523289" id="Stroke-15" stroke-linecap="round"></path>
            <path d="M220.972786,129.523289 L220.972786,207.523289" id="Stroke-18" stroke-linecap="round"></path>
            <path d="M192.972786,156.023289 L220.972786,156.023289" id="Stroke-20" stroke-linecap="round"></path>
            <path d="M185.972786,178.023289 L220.972786,178.023289" id="Stroke-23" stroke-linecap="round"></path>
            <path d="M178.972786,199.023289 L220.972786,199.023289" id="Stroke-26" stroke-linecap="round"></path>
            <path d="M199.972786,235.523289 L199.972786,359.008678" id="Stroke-32" stroke-linecap="round"></path>
            <path d="M220.972786,262.523289 L220.972786,336.523289" id="Stroke-34" stroke-linecap="round"></path>
            <path d="M241.972786,190.523289 L241.972786,269.523289" id="Stroke-35" stroke-linecap="round"></path>
            <path d="M262.972786,190.523289 L262.972786,269.523289" id="Stroke-36" stroke-linecap="round"></path>
            <path d="M283.472786,190.523289 L283.472786,270.523289" id="Stroke-37" stroke-linecap="round"></path>
            <path d="M262.972786,43.0232893 L334.472786,43.0232893" id="Stroke-38" stroke-linecap="round"></path>
            <path d="M262.972786,65.0232893 L335.472786,65.0232893" id="Stroke-39" stroke-linecap="round"></path>
            <path d="M388.472786,43.0232893 L488.472786,43.0232893" id="Stroke-40" stroke-linecap="round"></path>
            <path d="M388.472786,65.0232893 L488.472786,65.0232893" id="Stroke-41" stroke-linecap="round"></path>
            <path d="M282.972786,135.523289 L282.972786,87.0232893" id="Stroke-42" stroke-linecap="round"></path>
            <path d="M452.967839,87.0232893 L282.972786,87.0232893" id="Stroke-43" stroke-linecap="round"></path>
            <path d="M304.639786,148.523289 L304.639786,223.523289" id="Stroke-45" stroke-linecap="round"></path>
            <path d="M319.472786,105.023289 L463.972786,105.023289" id="Stroke-46" stroke-linecap="round"></path>
            <path d="M463.972786,274.523289 L463.972786,105.523289" id="Stroke-47" stroke-linecap="round"></path>
            <path d="M304.972786,156.023289 L332.972786,156.023289" id="Stroke-50" stroke-linecap="round"></path>
            <path d="M357.972786,127.023289 L439.972786,127.689289" id="Stroke-51" stroke-linecap="round"></path>
            <path d="M332.972786,156.023289 L357.972786,127.023289" id="Stroke-52" stroke-linecap="round"></path>
            <path d="M378.472786,235.522789 L420.972786,235.522789" id="Stroke-53" stroke-linecap="round"></path>
            <path d="M439.972786,128.023289 L439.972786,214.523289" id="Stroke-54" stroke-linecap="round"></path>
            <path d="M420.972786,235.522789 L439.472786,215.022789" id="Stroke-55" stroke-linecap="round"></path>
            <path d="M476.003554,65.4363906 L453.970946,86.4021766" id="Stroke-59" stroke-linecap="round"></path>
            <path d="M227.047786,82.0612893 C227.047786,85.3952893 224.344786,88.0982893 221.010786,88.0982893 C217.675786,88.0982893 214.972786,85.3952893 214.972786,82.0612893 C214.972786,78.7262893 217.675786,76.0232893 221.010786,76.0232893 C224.344786,76.0232893 227.047786,78.7262893 227.047786,82.0612893 Z" id="Stroke-262"></path>
            <path d="M227.047786,123.060289 C227.047786,126.395289 224.344786,129.097289 221.010786,129.097289 C217.675786,129.097289 214.972786,126.395289 214.972786,123.060289 C214.972786,119.726289 217.675786,117.023289 221.010786,117.023289 C224.344786,117.023289 227.047786,119.726289 227.047786,123.060289 Z" id="Stroke-266"></path>
            <path d="M227.047786,214.060289 C227.047786,217.394289 224.344786,220.097289 221.010786,220.097289 C217.675786,220.097289 214.972786,217.394289 214.972786,214.060289 C214.972786,210.726289 217.675786,208.023289 221.010786,208.023289 C224.344786,208.023289 227.047786,210.726289 227.047786,214.060289 Z" id="Stroke-270"></path>
            <path d="M206.047786,230.060289 C206.047786,233.395289 203.344786,236.097289 200.010786,236.097289 C196.675786,236.097289 193.972786,233.395289 193.972786,230.060289 C193.972786,226.726289 196.675786,224.023289 200.010786,224.023289 C203.344786,224.023289 206.047786,226.726289 206.047786,230.060289 Z" id="Stroke-274"></path>
            <path d="M227.047786,256.060289 C227.047786,259.394289 224.344786,262.097289 221.010786,262.097289 C217.675786,262.097289 214.972786,259.394289 214.972786,256.060289 C214.972786,252.725289 217.675786,250.023289 221.010786,250.023289 C224.344786,250.023289 227.047786,252.725289 227.047786,256.060289 Z" id="Stroke-278"></path>
            <path d="M227.047786,343.060289 C227.047786,346.395289 224.344786,349.097289 221.010786,349.097289 C217.675786,349.097289 214.972786,346.395289 214.972786,343.060289 C214.972786,339.726289 217.675786,337.023289 221.010786,337.023289 C224.344786,337.023289 227.047786,339.726289 227.047786,343.060289 Z" id="Stroke-282"></path>
            <path d="M248.047786,277.060289 C248.047786,280.394289 245.344786,283.097289 242.010786,283.097289 C238.675786,283.097289 235.972786,280.394289 235.972786,277.060289 C235.972786,273.726289 238.675786,271.023289 242.010786,271.023289 C245.344786,271.023289 248.047786,273.726289 248.047786,277.060289 Z" id="Stroke-290"></path>
            <path d="M269.047786,277.061289 C269.047786,280.395289 266.344786,283.098289 263.010786,283.098289 C259.675786,283.098289 256.972786,280.395289 256.972786,277.061289 C256.972786,273.726289 259.675786,271.023289 263.010786,271.023289 C266.344786,271.023289 269.047786,273.726289 269.047786,277.061289 Z" id="Stroke-294"></path>
            <path d="M290.047786,277.060289 C290.047786,280.394289 287.344786,283.097289 284.010786,283.097289 C280.675786,283.097289 277.972786,280.394289 277.972786,277.060289 C277.972786,273.726289 280.675786,271.023289 284.010786,271.023289 C287.344786,271.023289 290.047786,273.726289 290.047786,277.060289 Z" id="Stroke-298"></path>
            <path d="M248.047786,184.061289 C248.047786,187.395289 245.344786,190.098289 242.010786,190.098289 C238.675786,190.098289 235.972786,187.395289 235.972786,184.061289 C235.972786,180.726289 238.675786,178.023289 242.010786,178.023289 C245.344786,178.023289 248.047786,180.726289 248.047786,184.061289 Z" id="Stroke-302"></path>
            <path d="M268.047786,184.061289 C268.047786,187.395289 265.344786,190.098289 262.010786,190.098289 C258.675786,190.098289 255.972786,187.395289 255.972786,184.061289 C255.972786,180.726289 258.675786,178.023289 262.010786,178.023289 C265.344786,178.023289 268.047786,180.726289 268.047786,184.061289 Z" id="Stroke-306"></path>
            <path d="M290.047786,184.061289 C290.047786,187.395289 287.344786,190.098289 284.010786,190.098289 C280.675786,190.098289 277.972786,187.395289 277.972786,184.061289 C277.972786,180.726289 280.675786,178.023289 284.010786,178.023289 C287.344786,178.023289 290.047786,180.726289 290.047786,184.061289 Z" id="Stroke-310"></path>
            <path d="M247.047786,142.060289 C247.047786,145.395289 244.344786,148.097289 241.010786,148.097289 C237.675786,148.097289 234.972786,145.395289 234.972786,142.060289 C234.972786,138.726289 237.675786,136.023289 241.010786,136.023289 C244.344786,136.023289 247.047786,138.726289 247.047786,142.060289 Z" id="Stroke-314"></path>
            <path d="M268.047786,142.060289 C268.047786,145.394289 265.344786,148.097289 262.010786,148.097289 C258.675786,148.097289 255.972786,145.394289 255.972786,142.060289 C255.972786,138.726289 258.675786,136.023289 262.010786,136.023289 C265.344786,136.023289 268.047786,138.726289 268.047786,142.060289 Z" id="Stroke-318"></path>
            <path d="M289.047786,142.060289 C289.047786,145.395289 286.344786,148.097289 283.010786,148.097289 C279.675786,148.097289 276.972786,145.395289 276.972786,142.060289 C276.972786,138.726289 279.675786,136.023289 283.010786,136.023289 C286.344786,136.023289 289.047786,138.726289 289.047786,142.060289 Z" id="Stroke-322"></path>
            <polygon id="Stroke-334" points="193.972786 103.320289 200.491786 103.320289 200.491786 94.0232893 193.972786 94.0232893"></polygon>
            <polygon id="Stroke-336" points="194.972786 119.319289 201.491786 119.319289 201.491786 110.023289 194.972786 110.023289"></polygon>
            <polygon id="Stroke-346" points="193.972786 51.3202893 200.491786 51.3202893 200.491786 42.0232893 193.972786 42.0232893"></polygon>
            <polygon id="Stroke-348" points="193.972786 67.3192893 200.491786 67.3192893 200.491786 58.0232893 193.972786 58.0232893"></polygon>
            <polygon id="Stroke-360" points="193.972786 15.3202893 200.491786 15.3202893 200.491786 6.02328927 193.972786 6.02328927"></polygon>
            <path d="M347.047786,43.0602893 C347.047786,46.3952893 344.344786,49.0972893 341.010786,49.0972893 C337.675786,49.0972893 334.972786,46.3952893 334.972786,43.0602893 C334.972786,39.7262893 337.675786,37.0232893 341.010786,37.0232893 C344.344786,37.0232893 347.047786,39.7262893 347.047786,43.0602893 Z" id="Stroke-362"></path>
            <path d="M347.047786,65.0602893 C347.047786,68.3942893 344.344786,71.0972893 341.010786,71.0972893 C337.675786,71.0972893 334.972786,68.3942893 334.972786,65.0602893 C334.972786,61.7262893 337.675786,59.0232893 341.010786,59.0232893 C344.344786,59.0232893 347.047786,61.7262893 347.047786,65.0602893 Z" id="Stroke-364"></path>
            <path d="M388.047786,43.0602893 C388.047786,46.3952893 385.344786,49.0972893 382.010786,49.0972893 C378.675786,49.0972893 375.972786,46.3952893 375.972786,43.0602893 C375.972786,39.7262893 378.675786,37.0232893 382.010786,37.0232893 C385.344786,37.0232893 388.047786,39.7262893 388.047786,43.0602893 Z" id="Stroke-366"></path>
            <path d="M388.047786,65.0602893 C388.047786,68.3942893 385.344786,71.0972893 382.010786,71.0972893 C378.675786,71.0972893 375.972786,68.3942893 375.972786,65.0602893 C375.972786,61.7262893 378.675786,59.0232893 382.010786,59.0232893 C385.344786,59.0232893 388.047786,61.7262893 388.047786,65.0602893 Z" id="Stroke-368"></path>
            <path d="M319.047786,105.060289 C319.047786,108.395289 316.344786,111.097289 313.010786,111.097289 C309.675786,111.097289 306.972786,108.395289 306.972786,105.060289 C306.972786,101.726289 309.675786,99.0232893 313.010786,99.0232893 C316.344786,99.0232893 319.047786,101.726289 319.047786,105.060289 Z" id="Stroke-370"></path>
            <path d="M311.047786,142.060289 C311.047786,145.394289 308.344786,148.097289 305.010786,148.097289 C301.675786,148.097289 298.972786,145.394289 298.972786,142.060289 C298.972786,138.726289 301.675786,136.023289 305.010786,136.023289 C308.344786,136.023289 311.047786,138.726289 311.047786,142.060289 Z" id="Stroke-372"></path>
            <path d="M311.047786,230.060289 C311.047786,233.395289 308.344786,236.097289 305.010786,236.097289 C301.675786,236.097289 298.972786,233.395289 298.972786,230.060289 C298.972786,226.726289 301.675786,224.023289 305.010786,224.023289 C308.344786,224.023289 311.047786,226.726289 311.047786,230.060289 Z" id="Stroke-374"></path>
            <path d="M378.047786,234.560789 C378.047786,237.894789 375.344786,240.597789 372.010786,240.597789 C368.675786,240.597789 365.972786,237.894789 365.972786,234.560789 C365.972786,231.225789 368.675786,228.522789 372.010786,228.522789 C375.344786,228.522789 378.047786,231.225789 378.047786,234.560789 Z" id="Stroke-386"></path>
            <path d="M470.047786,281.061289 C470.047786,284.395289 467.344786,287.098289 464.010786,287.098289 C460.675786,287.098289 457.972786,284.395289 457.972786,281.061289 C457.972786,277.726289 460.675786,275.023289 464.010786,275.023289 C467.344786,275.023289 470.047786,277.726289 470.047786,281.061289 Z" id="Stroke-390"></path>
            <path d="M501.047786,64.0612893 C501.047786,67.3952893 498.344786,70.0982893 495.010786,70.0982893 C491.675786,70.0982893 488.972786,67.3952893 488.972786,64.0612893 C488.972786,60.7262893 491.675786,58.0232893 495.010786,58.0232893 C498.344786,58.0232893 501.047786,60.7262893 501.047786,64.0612893 Z" id="Stroke-400"></path>
            <path d="M501.047786,43.0602893 C501.047786,46.3952893 498.344786,49.0972893 495.010786,49.0972893 C491.675786,49.0972893 488.972786,46.3952893 488.972786,43.0602893 C488.972786,39.7262893 491.675786,37.0232893 495.010786,37.0232893 C498.344786,37.0232893 501.047786,39.7262893 501.047786,43.0602893 Z" id="Stroke-402"></path>
            <polygon id="Stroke-403" points="371.972786 163.736289 413.722786 163.736289 413.722786 148.023289 371.972786 148.023289"></polygon>
            <polygon id="Stroke-404" points="364.972786 160.523289 372.222786 160.523289 372.222786 151.023289 364.972786 151.023289"></polygon>
            <polygon id="Stroke-405" points="413.972786 160.523289 421.222786 160.523289 421.222786 151.023289 413.972786 151.023289"></polygon>
            <polygon id="Stroke-405" points="413.972786 196.523289 421.222786 196.523289 421.222786 187.023289 413.972786 187.023289"></polygon>
            <polygon id="Stroke-406" points="371.972786 199.736289 413.722786 199.736289 413.722786 184.023289 371.972786 184.023289"></polygon>
            <polygon id="Stroke-407" points="364.972786 196.523289 372.222786 196.523289 372.222786 187.023289 364.972786 187.023289"></polygon>
            <path d="M5.97278642,3.02328927 L5.97278642,98.5232893" id="Stroke-171" stroke-linecap="round"></path>
            <path d="M12.0467864,105.060289 C12.0467864,108.394289 9.34378642,111.097289 6.00978642,111.097289 C2.67478642,111.097289 -0.0272135762,108.394289 -0.0272135762,105.060289 C-0.0272135762,101.726289 2.67478642,99.0232893 6.00978642,99.0232893 C9.34378642,99.0232893 12.0467864,101.726289 12.0467864,105.060289 Z" id="Stroke-561"></path>
            <polygon id="Stroke-502" stroke-linecap="round" transform="translate(322.525758, 10.899348) rotate(-90.381503) translate(-322.525758, -10.899348) " points="312.652895 53.3993481 332.398621 53.3993481 332.398621 -31.6006519 312.652895 -31.6006519"></polygon>
            <polygon id="Stroke-503" stroke-linecap="round" transform="translate(322.498945, 6.872462) rotate(-90.381503) translate(-322.498945, -6.872462) " points="316.599106 39.3724618 328.398784 39.3724618 328.398784 -25.6275382 316.599106 -25.6275382"></polygon>
            <polygon id="Stroke-508" stroke-linecap="round" transform="translate(354.994077, 24.806332) rotate(-90.381503) translate(-354.994077, -24.806332) " points="351.244077 30.6813315 358.744077 30.6813315 358.744077 18.9313315 351.244077 18.9313315"></polygon>
            <polygon id="Stroke-509" stroke-linecap="round" transform="translate(333.619550, 24.948656) rotate(-90.381503) translate(-333.619550, -24.948656) " points="329.86955 31.4486555 337.36955 31.4486555 337.36955 18.4486555 329.86955 18.4486555"></polygon>
            <polygon id="Stroke-510" stroke-linecap="round" transform="translate(312.620016, 25.088483) rotate(-90.381503) translate(-312.620016, -25.088483) " points="308.870016 31.5884827 316.370016 31.5884827 316.370016 18.5884827 308.870016 18.5884827"></polygon>
            <polygon id="Stroke-511" stroke-linecap="round" transform="translate(291.120492, 25.231639) rotate(-90.381503) translate(-291.120492, -25.231639) " points="287.370492 32.231639 294.870492 32.231639 294.870492 18.231639 287.370492 18.231639"></polygon>
        </g>
    </g>
</svg>